<svg xmlns="http://www.w3.org/2000/svg" width="100.198" height="107.182" viewBox="0 0 100.198 107.182">
  <g id="Group_8" data-name="Group 8" transform="translate(-2415.951 2111.443)">
    <path id="Path_38" data-name="Path 38" d="M2425.063-2082.418c.05-.092.1-.18.149-.274.227-.483.456-.965.675-1.451.2-.435.363-.883.577-1.308a5.239,5.239,0,0,1,.764-1.35,1.43,1.43,0,0,0,.134-.26c.224-.372.463-.735.675-1.113a14.092,14.092,0,0,0,.808-1.319,5.606,5.606,0,0,1,1.088-1.839,2.508,2.508,0,0,0,.448-.66,2.735,2.735,0,0,1,.587-.858,2.145,2.145,0,0,0,.394-.681c.171-.365.487-.657.536-1.084a.573.573,0,0,1,.112-.225c.395-.6.789-1.2,1.19-1.788a1.143,1.143,0,0,1,.282-.307c.245-.169.5-.315.564-.645a.212.212,0,0,1,.112-.118.909.909,0,0,0,.393-.478.477.477,0,0,1,.492-.323.556.556,0,0,0,.464-.245c.451-.5.924-.98,1.37-1.486a7.773,7.773,0,0,1,1.945-1.643c-.133-.095-.207-.186-.292-.2a.684.684,0,0,0-.413.029,5.2,5.2,0,0,0-1.368.812,1.2,1.2,0,0,1-.7.463.94.94,0,0,1,.1-.267q.582-.638,1.178-1.261a2.79,2.79,0,0,1,1.057-.6c.144-.056.3-.1.42.056-.14.527-.095.565.459.526a3.353,3.353,0,0,1,1.124.011,4.639,4.639,0,0,1,1.255.624.992.992,0,0,1,.435.653.433.433,0,0,0,.413.361,1.2,1.2,0,0,1,.9.557c.184.3.394.577.594.864a1.7,1.7,0,0,0,.159.193,1.638,1.638,0,0,1,.156.141,4.507,4.507,0,0,1,1.165,2.514,12.936,12.936,0,0,0,.2,1.286,7.626,7.626,0,0,1,.117,1.972c-.058.432-.091.869-.174,1.3a9.139,9.139,0,0,1-.305,1.094c-.261.8-.534,1.59-.809,2.383-.045.132-.134.248-.185.378a1.545,1.545,0,0,0-.127.44c-.02.277.095.378.378.375a1.3,1.3,0,0,0,.252-.021,3.281,3.281,0,0,1,2.118.371,1.34,1.34,0,0,1,.239.17c.2.156.4.307.583.478a.728.728,0,0,1,.231.328.611.611,0,0,0,.428.475.878.878,0,0,1,.532.448.677.677,0,0,0,.242.216,2.508,2.508,0,0,1,.695.712,2.411,2.411,0,0,0,.958,1.021.445.445,0,0,1,.163.184.781.781,0,0,1,.1.232,9.124,9.124,0,0,1,.39,1.972c.011.641.132,1.281.2,1.921a1.855,1.855,0,0,1,.022.336,16.775,16.775,0,0,1-.6,3.655c-.113.373-.329.714-.478,1.077s-.232.723-.4,1.061c-.311.643-.661,1.267-.991,1.9-.052.1-.092.2-.135.309a2.419,2.419,0,0,1-.458.642,13.782,13.782,0,0,0-1.054,1.415,10.68,10.68,0,0,1-1.085,1.65.824.824,0,0,0-.142.209,11.551,11.551,0,0,1-1.347,1.876,6.059,6.059,0,0,0-.327.541c-.064.1-.137.2-.18.268a1.843,1.843,0,0,0-.637-.077.949.949,0,0,0-.576.527.669.669,0,0,1-.187.276c-.568.354-.869.984-1.421,1.357a4.039,4.039,0,0,0-.483.517,7.055,7.055,0,0,1-.533.47c-.294.237-.613.446-.884.706a.8.8,0,0,0-.2.488,1.219,1.219,0,0,1-.484.9,4.615,4.615,0,0,1-.924.714,3.261,3.261,0,0,0-.737.675q-.465.454-.924.917a3.384,3.384,0,0,0-.4.425,1.284,1.284,0,0,1-1.543.465c-.295.369-.584.741-.887,1.1a.8.8,0,0,1-.3.223c-.377.152-.766.275-1.142.427a3.1,3.1,0,0,0-.591.309,4.959,4.959,0,0,1-1.321.626,1.3,1.3,0,0,0-.288.154,3.559,3.559,0,0,0-.408.279c-.476.4-1.12.433-1.673.8a1.567,1.567,0,0,0-.038-.353,1.766,1.766,0,0,0-.2-.307c-.414.269-.893.41-1.042,1h-.656a.879.879,0,0,0-.579.2,2.342,2.342,0,0,1-.954.517c-.041.009-.088.044-.12.033-.392-.143-.694.108-1.034.213a2.323,2.323,0,0,1-.67.059,4.613,4.613,0,0,0-1.154.214,4.3,4.3,0,0,1-2.568.15,6.007,6.007,0,0,1-1.792-1.006,3.5,3.5,0,0,1-1.216-2.2.607.607,0,0,1-.008-.251c.118-.476.246-.949.371-1.423a2.8,2.8,0,0,0,.138-.527,4.566,4.566,0,0,1,.585-1.7c.063-.13.136-.262.312-.227a.337.337,0,0,1,.286.365c0,.337-.013.674-.026,1.011,0,.126-.021.252-.037.377a9.712,9.712,0,0,0,.094,2.139,1.173,1.173,0,0,0,.479.814,1.738,1.738,0,0,0,1.043.407,5.82,5.82,0,0,0,1.915-.235c.522-.164,1.059-.287,1.575-.468a9.747,9.747,0,0,0,.988-.468c.606-.292,1.211-.586,1.819-.873a14.184,14.184,0,0,0,2.181-1.431c.67-.483,1.349-.958,2-1.465.621-.481,1.213-1,1.818-1.5a4.818,4.818,0,0,0,.546-.463,6.582,6.582,0,0,0,.61-.8,9.334,9.334,0,0,1,1.5-1.65c.141-.132.247-.3.383-.44a2.535,2.535,0,0,1,.441-.379,1.137,1.137,0,0,0,.495-.553,1.776,1.776,0,0,1,.272-.422,9.217,9.217,0,0,1,1.211-1.394,2.65,2.65,0,0,0,.408-.532c.409-.589.9-1.116,1.335-1.678a8.452,8.452,0,0,0,1.1-1.424,1.116,1.116,0,0,1,.236-.3,11.821,11.821,0,0,0,1.492-1.927c.142-.208.3-.409.429-.624.3-.489.59-.988.9-1.476.283-.451.591-.887.87-1.341.314-.512.631-1.024.9-1.559a8.976,8.976,0,0,1,.882-1.628.967.967,0,0,0,.17-.338c.2-.73.4-1.461.592-2.194a.619.619,0,0,0,.024-.292,5.311,5.311,0,0,1,.054-1.593c.011-.223,0-.449,0-.673a2.732,2.732,0,0,1,.017-.587,1.33,1.33,0,0,0-.141-.9,5.777,5.777,0,0,1-.274-.616,1.852,1.852,0,0,1-.087-.53.637.637,0,0,0-.387-.642,1.8,1.8,0,0,0-1.578-.129,1.793,1.793,0,0,1-.438.144,2.025,2.025,0,0,0-1.235,1.013c-.325.492-.6,1.016-.92,1.512-.235.365-.495.718-.764,1.059q-.793,1.007-1.612,1.993a2.519,2.519,0,0,1-.391.318c-.6.479-1.21.955-1.812,1.437a.468.468,0,0,1-.421.129c-.467-.1-.937-.181-1.4-.281a1.421,1.421,0,0,1-.258-.133,1.356,1.356,0,0,0-.344-.136,2.081,2.081,0,0,1-1.126-.518,2.089,2.089,0,0,0-.477-.237c-.161-.081-.315-.174-.478-.249-.369-.17-.748-.318-1.111-.5a.953.953,0,0,1-.525-1.261,1.932,1.932,0,0,1,.9-1.224,7.871,7.871,0,0,0,1.077-.648c.527-.395,1.019-.838,1.534-1.248a15.88,15.88,0,0,0,1.889-2.252c.22-.252.448-.5.661-.756.321-.389.658-.77.94-1.186.251-.369.428-.789.656-1.175.213-.36.455-.7.678-1.059a6.084,6.084,0,0,0,.868-1.71,12.527,12.527,0,0,0,.3-2.208c.045-.614.182-1.22.278-1.83a1.091,1.091,0,0,0,.038-.249c-.066-.726-.135-1.451-.214-2.176-.025-.236-.079-.469-.123-.7a2.119,2.119,0,0,0-.073-.329.608.608,0,0,0-.926-.38c-.288.145-.579.287-.867.431a.716.716,0,0,0-.181.107,10.53,10.53,0,0,0-1.692,1.688c-.4.609-.894,1.153-1.31,1.752-.383.551-.708,1.143-1.077,1.7-.238.362-.515.7-.766,1.054-.114.16-.211.332-.309.5-.146.256-.3.507-.422.774a11.159,11.159,0,0,1-1.082,1.633c-.395.577-.7,1.216-1.044,1.825-.319.56-.638,1.12-.969,1.673s-.71,1.079-1.007,1.649c-.33.63-.594,1.295-.879,1.948a1.564,1.564,0,0,0-.053.289,1.441,1.441,0,0,1-.435.841,1.978,1.978,0,0,0-.53.935c-.187.584-.492,1.129-.735,1.7s-.452,1.118-.69,1.671c-.182.423-.364.849-.582,1.254a4.054,4.054,0,0,0-.648,1.4,1.243,1.243,0,0,1-.2.416,7.558,7.558,0,0,0-.616,1.469,8.767,8.767,0,0,1-.836,2.151.4.4,0,0,0,0,.535.992.992,0,0,1,.192.714q-.037,1.456-.066,2.912a10.732,10.732,0,0,0,0,1.093,1.337,1.337,0,0,1-.172.72,1.155,1.155,0,0,0-.123.513c.015.546.042,1.092.1,1.634a6.319,6.319,0,0,0,.234,1.233,2.493,2.493,0,0,1-.1,1.686.286.286,0,0,1-.216.153c-.4-.02-.816.019-1.115-.361a.678.678,0,0,0-.435-.226,1.393,1.393,0,0,1-.723-.308,7.8,7.8,0,0,1-1.485-1.367,1.284,1.284,0,0,1-.261-.474,13.245,13.245,0,0,1-.362-1.686c-.173-1.5-.245-3-.284-4.5-.033-1.252-.008-2.5.037-3.748a21.538,21.538,0,0,1,.25-2.771c.114-.68.2-1.357.258-2.042a8.322,8.322,0,0,1,.32-1.3c.039-.15.087-.3.125-.447.229-.939.46-1.877.683-2.818.119-.5.221-1.01.333-1.514a1.057,1.057,0,0,1,.064-.2,7.707,7.707,0,0,0,.5-1.729,6.849,6.849,0,0,1,.372-1.512,9.87,9.87,0,0,0,.434-1.47,16.208,16.208,0,0,1,.82-2.065c.1-.247.187-.5.31-.737a9.879,9.879,0,0,0,.8-1.717,1.439,1.439,0,0,1,.157-.246,2.751,2.751,0,0,0,.2-.4,3.812,3.812,0,0,1,.875-1.6,1.614,1.614,0,0,0,.273-.557,3.391,3.391,0,0,1,.127-.4c.55-.964,1.062-1.953,1.676-2.874.7-1.049,1.5-2.035,2.248-3.049a1.829,1.829,0,0,0,.162-.246,1.261,1.261,0,0,1,.529-.523,5.512,5.512,0,0,1,1.119-.567,1.775,1.775,0,0,0,.562-.356.61.61,0,0,1,.741-.083c.313.172.689.264.775.7a1.766,1.766,0,0,1-.248,1.427.9.9,0,0,0-.132.465,1.043,1.043,0,0,1-.318.917.284.284,0,0,0-.083.227,7.825,7.825,0,0,0,.162,1.025.429.429,0,0,1-.031.393,13.476,13.476,0,0,0-.812,1.16,10.652,10.652,0,0,0-1.338,2.267,14.458,14.458,0,0,1-.521,1.374,1.008,1.008,0,0,1-.09.189c-.26.4-.525.793-.786,1.191a.782.782,0,0,0-.136.259,2.342,2.342,0,0,1-.4,1.1c-.046.058-.036.161-.049.244s0,.219-.047.288c-.372.5-.322,1.149-.662,1.669-.32.49-.518,1.057-.79,1.58a6.175,6.175,0,0,0-.5,1.282c-.081.309-.148.622-.23.931a1.169,1.169,0,0,1-.137.352,1.171,1.171,0,0,0-.168.851A17.336,17.336,0,0,1,2425.063-2082.418Zm2.72,28.849a1.64,1.64,0,0,0-1.172-.1,4.338,4.338,0,0,0-1.049.513,5.808,5.808,0,0,1-.8.451.764.764,0,0,0-.506.745c-.033.254.07.313.32.239a1.777,1.777,0,0,0,.687-.539c.114-.108.216-.175.37-.106a.582.582,0,0,0,.69-.161,2.26,2.26,0,0,1,.947-.6,1.081,1.081,0,0,0,.331-.182A1.233,1.233,0,0,0,2427.784-2053.569Zm-4.083,2.1c.1-.116.2-.18.224-.263.034-.139-.085-.19-.2-.2-.137-.008-.269.041-.25.2C2423.48-2051.653,2423.593-2051.586,2423.7-2051.469Z" transform="translate(0 -6.125)"/>
    <path id="Path_39" data-name="Path 39" d="M2953.583-2031.889l.875-1.281c.328.149.521,0,.717-.206.336-.356.7-.686,1.046-1.033a.717.717,0,0,0,.176-.791l-.4.254c-.183-.111-.157-.232-.061-.361.175-.236.358-.468.53-.707q.737-1.025,1.465-2.055c.252-.358.248-.361.686-.272.014-.05.056-.115.038-.15-.144-.277,0-.466.163-.673.188-.236.34-.5.494-.735.451.086.451.086.584-.22-.272-.321-.264-.315-.038-.67.174-.271.307-.569.487-.834.2-.3.443-.577.667-.865a1.345,1.345,0,0,0,.126-.169c.393-.711.779-1.425,1.174-2.135.184-.33.375-.657.58-.975.234-.365.481-.723.734-1.075.089-.123.227-.209.32-.33.242-.312.616-.309.944-.4.23-.067.5.153.643.366a1.588,1.588,0,0,1,.014,1.6c-.261.65-.539,1.3-.851,1.923-.3.6-.656,1.17-.979,1.759a1.084,1.084,0,0,0-.146.43.506.506,0,0,1-.335.489.349.349,0,0,0-.253.385c.008.247-.165.533.173.714.045.024.042.222,0,.309a6.1,6.1,0,0,1-.413.683c-.173.255-.364.5-.547.747-.157.212-.3.427-.1.7a3.272,3.272,0,0,0-.877,1.338c-.2.463-.422.931-.663,1.375a20.251,20.251,0,0,1-1.224,1.805c-.462.668-.905,1.35-1.4,2a6.146,6.146,0,0,0-.763,1.2,4.473,4.473,0,0,1-.514.715c-.27.376-.535.756-.8,1.136a1.265,1.265,0,0,1-.1.182,2,2,0,0,0-.246,2.211,2.266,2.266,0,0,1,.136.9.736.736,0,0,0,.143.551,1.566,1.566,0,0,1,.3.99c-.011.379.007.759,0,1.138a.524.524,0,0,1-.052.285,1.124,1.124,0,0,0-.141.73c.007.521.015,1.041.021,1.561a6.381,6.381,0,0,1-.13,1.125,5.666,5.666,0,0,1-.2,1.435c.118,1.647-.129,3.285-.117,4.929.007,1.012.052,2.025.06,3.037a2.026,2.026,0,0,1-.134.7.655.655,0,0,1-.708.415c-.125-.01-.251-.019-.376-.017-.38.005-.427-.031-.541-.384a3.632,3.632,0,0,0-.217-.548c-.121-.237-.24-.477-.586-.46-.082,0-.182-.146-.256-.239a3.079,3.079,0,0,0-.375-.5,1.385,1.385,0,0,1-.478-1.081,9.168,9.168,0,0,1,.094-2.1.986.986,0,0,0,.025-.167c-.005-.656-.02-1.313-.018-1.97,0-.349.024-.7.049-1.046.039-.532.08-1.065.134-1.6a4.8,4.8,0,0,1,.144-.91,7.028,7.028,0,0,0,.152-1.633c.046-.715.082-1.43.123-2.145a1.034,1.034,0,0,0-.088-.689c-.1.078-.186.146-.274.2a1.071,1.071,0,0,1-.291.156c-.21.053-.34-.043-.322-.257a.809.809,0,0,1,.152-.418.383.383,0,0,0,.085-.46.648.648,0,0,1,.1-.74c.2-.316.376-.649.567-.983-.206-.157-.384-.082-.571-.086a.768.768,0,0,0-.069.2,1.383,1.383,0,0,1-.483.952,1.2,1.2,0,0,0-.2.262c-.257.464-.508.932-.762,1.4a.16.16,0,0,1-.054.063c-.586.346-.649.98-.841,1.54-.127.371-.238.748-.346,1.125a1.386,1.386,0,0,0-.045.375c0,.352.107.414.431.27.213-.094.3-.065.4.136a1.107,1.107,0,0,1-.184,1.279,4.719,4.719,0,0,1-.373.4,1.686,1.686,0,0,0-.49,1.616c.044.374.041.754.063,1.131.028.455-.34.685-.566.994a.226.226,0,0,1-.194.045,3.051,3.051,0,0,1-.639-.2c-.092-.046-.142-.2-.188-.31-.064-.155-.1-.322-.163-.477-.03-.072-.1-.181-.156-.18-.308,0-.345-.236-.424-.438-.1-.261-.193-.527-.3-.786a.435.435,0,0,0-.169-.218.7.7,0,0,1-.38-.66,19.527,19.527,0,0,1-.032-2.694,3.43,3.43,0,0,0-.1-1.537,2.3,2.3,0,0,1,.057-1.03c.068-.438.174-.87.271-1.3.086-.383.18-.764.275-1.146.084-.34.164-.682.266-1.017q.2-.664.436-1.319c.29-.807.582-1.612.891-2.411.193-.5.425-.976.63-1.467.26-.62.462-1.271.781-1.859a6.587,6.587,0,0,1,.717-1.51.232.232,0,0,0,.039-.074q.424-1.053.848-2.106c.063-.155.136-.306.2-.461.1-.257.2-.516.308-.772a.52.52,0,0,1,.083-.145,5.935,5.935,0,0,0,.9-1.788c.333-.836.749-1.624,1.154-2.422.222-.437.395-.9.618-1.336.2-.386.461-.74.646-1.131.221-.467.373-.966.585-1.437a3.7,3.7,0,0,1,.4-.577c.111-.157.285-.3.323-.473a1.523,1.523,0,0,1,.876-.969,3.817,3.817,0,0,1,.826-.308c.154-.045.366-.1.478-.037a1.888,1.888,0,0,1,.569.539,1.645,1.645,0,0,1,.085,1.346.312.312,0,0,1-.131.2,1.273,1.273,0,0,0-.638.945,6.25,6.25,0,0,0-.229,1.146c-.041.415-.005.838-.027,1.256a1.372,1.372,0,0,1-.127.52c-.227.466-.479.921-.721,1.379a.167.167,0,0,0-.02.037,2.775,2.775,0,0,1-.224.952,1.462,1.462,0,0,0-.344.869,1.042,1.042,0,0,1-.121.4c-.338.786-.684,1.57-1.024,2.356-.255.59-.518,1.177-.757,1.774s-.438,1.181-.664,1.769c-.1.249-.213.488-.319.733C2953.518-2032.238,2953.4-2032.107,2953.583-2031.889Zm4.6-1.564c-.007-.254-.109-.347-.386-.382-.219-.027-.386.064-.4.262a.824.824,0,0,0,.113.339c.082.193.025.342-.166.316-.353-.048-.5.178-.679.4-.121.154-.253.3-.364.459a.69.69,0,0,0-.126.3.169.169,0,0,0,.25.173,2.8,2.8,0,0,0,1.069-.849,1.242,1.242,0,0,1,.257-.264A1.108,1.108,0,0,0,2958.188-2033.453Zm-.169-.893h.367l.307.379a1.065,1.065,0,0,0,.373-1.012c-.019-.229-.076-.512-.4-.545-.207.236-.4.455-.591.676A.388.388,0,0,0,2958.019-2034.346Zm-3.569,5.921c.121-.083.238-.125.295-.208.229-.333.453-.671.651-1.022.11-.195,0-.329-.244-.4l-.686,1.1A.451.451,0,0,0,2954.45-2028.425Zm7.34-12.134a2.517,2.517,0,0,0-.188.511.332.332,0,0,0,.15.265.367.367,0,0,0,.292-.049,5.654,5.654,0,0,0,.478-.352c-.03-.086-.065-.183-.1-.288C2962.057-2040.223,2962.057-2040.223,2961.79-2040.558Zm-3.751,3.255a1.76,1.76,0,0,0-.787,1.137c.169,0,.239-.112.3-.237.095-.183.194-.364.292-.546Zm-2.379,6.278a4.7,4.7,0,0,0,.006.534c.008.066.1.182.129.175a.351.351,0,0,0,.219-.143C2956.128-2030.667,2956.034-2030.83,2955.66-2031.025Zm6.865-10.578c.07.214.124.385.32.472C2963-2041.535,2962.947-2041.618,2962.524-2041.6Zm-2.509,4.764c.042.146.07.267.231.253.031,0,.085-.084.079-.121C2960.3-2036.854,2960.211-2036.912,2960.015-2036.839Zm-.909.658.084.085.252-.246C2959.175-2036.43,2959.109-2036.346,2959.106-2036.181Zm-4.2,4.416c-.063-.056-.115-.122-.132-.114a.341.341,0,0,0-.134.125c-.007.012.065.1.09.1C2954.781-2031.664,2954.827-2031.713,2954.9-2031.765Zm5.545-6.491c-.032.04-.076.07-.075.1s.046.057.071.085l.1-.1Z" transform="translate(-449.619 -53.323)"/>
    <path id="Path_40" data-name="Path 40" d="M2750.982-1765.493a2.155,2.155,0,0,0,.7-.52c.708-.7,1.413-1.408,2.125-2.106a1.024,1.024,0,0,1,.4-.292,2.22,2.22,0,0,0,.956-.659c.338-.318.67-.643,1-.965a2.045,2.045,0,0,1,.156-.142.28.28,0,0,1,.415,0,.307.307,0,0,1,.018.424c-.086.11-.2.2-.294.3-.06.065-.11.141-.189.243a1.321,1.321,0,0,0,.856-.111.9.9,0,0,1,1.246.611.756.756,0,0,0,.5.565.406.406,0,0,1,.247.613.91.91,0,0,0,.105.917.571.571,0,0,1,.105.473c-.1.392-.189.791-.325,1.171a4.739,4.739,0,0,0-.266,1.137,6.156,6.156,0,0,1-.345,1.255c-.267.824-.548,1.643-.824,2.464-.022.067-.024.152-.068.2a2.6,2.6,0,0,0-.441,1.079c-.088.25-.2.492-.3.738-.31.737-.644,1.466-.923,2.214a13.221,13.221,0,0,1-.926,2.07.772.772,0,0,0,.023.864c.231.393.2.514-.17.794a2.138,2.138,0,0,0-.786,1.307c-.095.437-.142.884-.215,1.325a1.778,1.778,0,0,1-.094.324c-.171.456-.417.544-.843.311a1.14,1.14,0,0,0-.382-.172.959.959,0,0,1-.792-.675,7.714,7.714,0,0,1-.333-1.082.628.628,0,0,0-.509-.531c-.451-.095-.491-.138-.558-.6a7.107,7.107,0,0,1,.367-3.241c.308-.947.668-1.878,1.035-2.8.284-.717.617-1.414.922-2.122.238-.555.465-1.115.7-1.671a6.352,6.352,0,0,1,.392-.886,7.017,7.017,0,0,0,.725-2.359c.026-.128.028-.285-.127-.312a.623.623,0,0,0-.336.1c-.057.028-.091.1-.131.163a8.549,8.549,0,0,1-1.279,1.313,15.282,15.282,0,0,0-2.563,2.9c-.143.224-.248.473-.371.71a1.472,1.472,0,0,1-.162.294,2.411,2.411,0,0,0-.537,1.126,4.269,4.269,0,0,1-.248.66.944.944,0,0,0-.044.576.575.575,0,0,1-.107.344c-.073.135-.182.25-.265.38a.449.449,0,0,0-.051.437.542.542,0,0,1-.006.4c-.162.323-.375.619-.543.94-.227.433-.43.879-.646,1.319a3.721,3.721,0,0,1-.181.332,2.271,2.271,0,0,0-.314.764,4.557,4.557,0,0,1-.442,1.043c-.231.465-.483.919-.724,1.38-.045.087-.072.182-.118.269q-.225.424-.458.845c-.068.121-.15.235-.22.355a4.383,4.383,0,0,1-1.42,1.4.259.259,0,0,1-.348-.024,2,2,0,0,1-.369-.342,1.018,1.018,0,0,0-.645-.442,1.554,1.554,0,0,1-1.034-.971.8.8,0,0,0-.163-.29.709.709,0,0,1-.232-.69,8.822,8.822,0,0,1,.3-1.478q.482-1.434,1.066-2.833a11.961,11.961,0,0,1,.741-1.32,1.688,1.688,0,0,0,.2-.318c.333-1.134.954-2.155,1.288-3.288.043-.147.14-.277.19-.422.1-.3.2-.611.29-.919.128-.43.25-.862.374-1.293.1-.362.207-.725.314-1.086a8.518,8.518,0,0,1,.375-1.2,12.866,12.866,0,0,0,.582-2.151c.115-.419.216-.843.331-1.261.26-.948.55-1.889.78-2.844.193-.8.342-1.621.469-2.439.156-1.012.276-2.03.4-3.048.068-.571.1-1.146.163-1.717.036-.335.114-.666.142-1,.068-.8.111-1.6.176-2.4.063-.768.124-1.537.217-2.3.063-.515.39-.682.88-.508a5.735,5.735,0,0,0,.645.193,1.069,1.069,0,0,1,.86.885,8.455,8.455,0,0,0,.867,2.094,4.35,4.35,0,0,1,.466,1.478,7.571,7.571,0,0,1,.017,1.6,16.5,16.5,0,0,0-.026,2.232,1.486,1.486,0,0,1,.012.251,17.562,17.562,0,0,1-.322,1.825,6.713,6.713,0,0,0-.216,2.086.9.9,0,0,1-.208.7.92.92,0,0,0-.228.7,2.547,2.547,0,0,1-.165.943,2.258,2.258,0,0,0-.08,1.039,3.249,3.249,0,0,1-.279,1.843A.45.45,0,0,0,2750.982-1765.493Zm.084,1.495c-.186-.008-.462.329-.4.475a.253.253,0,0,0,.18.132.41.41,0,0,0,.321-.52A.336.336,0,0,0,2751.066-1764Z" transform="translate(-275.33 -277.993)"/>
    <path id="Path_41" data-name="Path 41" d="M2621.633-1773.1a.814.814,0,0,1-.3.73,1.01,1.01,0,0,0-.226.248,15.879,15.879,0,0,1-1.831,2.146,19.3,19.3,0,0,1-1.555,1.353c-.413.359-.81.735-1.224,1.091-.223.192-.466.358-.7.535-.257.194-.521.382-.771.585a1.22,1.22,0,0,0-.163.233c-.084.11-.152.254-.265.317a1.13,1.13,0,0,0-.47.522,1.694,1.694,0,0,1-.564.6,3.222,3.222,0,0,0-.691.784.623.623,0,0,0,0,.479,15.008,15.008,0,0,0,.577,1.444,13.259,13.259,0,0,1,.79,2.079,11.433,11.433,0,0,1,.351,2.453c.044.7.168,1.4.214,2.1a16.168,16.168,0,0,1-.106,3.493.959.959,0,0,0,.061.48.653.653,0,0,1-.05.716,4.053,4.053,0,0,0-.652,1.624,1.742,1.742,0,0,1-.419.756.976.976,0,0,0-.3,1.032.941.941,0,0,1-.178.827,12.126,12.126,0,0,0-1.216,2.006.367.367,0,0,1-.091.141,8.656,8.656,0,0,0-1.143,1.5c-.33.437-.689.852-1.031,1.28a3.737,3.737,0,0,0-.238.348,1.257,1.257,0,0,1-.721.613.438.438,0,0,0-.33.34.978.978,0,0,1-.581.61,3.817,3.817,0,0,0-1.566,1.172,1.973,1.973,0,0,1-.517.427,5.91,5.91,0,0,1-1.41.617.689.689,0,0,1-.416.021,2.655,2.655,0,0,1-1.327-.653c-.189-.219-.445-.207-.68-.272-.188-.052-.392-.058-.574-.124-.087-.031-.143-.153-.212-.233a1.249,1.249,0,0,1,.249-.182c.257-.109.528-.186.78-.3a.335.335,0,0,0,.167-.255.334.334,0,0,0-.187-.24,1.751,1.751,0,0,0-1.061-.139,4.5,4.5,0,0,1-1.089,0c-.281-.006-.562-.014-.844-.019a.741.741,0,0,1-.842-.6,4.066,4.066,0,0,0-.189-.391l-.4.276a5.82,5.82,0,0,1-.527-.337.349.349,0,0,1-.1-.247,1.342,1.342,0,0,1,.058-.306c-.25-.139-.464-.249-.667-.374a6.109,6.109,0,0,1-.662-.443,2.251,2.251,0,0,1-.715-1.072,18.244,18.244,0,0,1-.763-2,3.345,3.345,0,0,1,.122-1.985c.094-.234.177-.475.249-.717a3.992,3.992,0,0,1,.692-1.34,5.443,5.443,0,0,0,.436-.666,4.846,4.846,0,0,1,1.171-1.417,8.632,8.632,0,0,0,.709-.72l1.832-1.867c.029-.03.054-.076.09-.087.407-.126.605-.476.859-.775.417-.491.841-.978,1.3-1.428a3.578,3.578,0,0,1,1.007-.736,2.288,2.288,0,0,0,.584-.373c.177-.152.31-.355.484-.512a9.477,9.477,0,0,1,1.828-1.38,1.14,1.14,0,0,0,.309-.33c.127-.166.24-.343.372-.533.345.134.521-.066.692-.312a3.133,3.133,0,0,1,.371-.387c.125-.126.25-.252.38-.373.1-.091.194-.221.31-.248.528-.123.787-.567,1.134-.906a2.7,2.7,0,0,1,.288-.976c.052-.122-.076-.346-.168-.495a2.734,2.734,0,0,0-.374-.4c-.426-.448-.843-.905-1.281-1.341s-.892-.818-1.315-1.249a7.813,7.813,0,0,1-.585-.761,3.948,3.948,0,0,0-.258-.331,5.118,5.118,0,0,0-.512-.5,1.734,1.734,0,0,1-.608-1.461,6.78,6.78,0,0,0-.082-1,3.137,3.137,0,0,1,.213-1.69,13.18,13.18,0,0,1,.713-1.38c.169-.307.4-.586.539-.9a3.127,3.127,0,0,1,1.341-1.363,5.091,5.091,0,0,1,1.746-.713,1.292,1.292,0,0,1,1.1.267,3.461,3.461,0,0,1,1.351,2.865,7.255,7.255,0,0,1-.058.842.618.618,0,0,1-.573.577.592.592,0,0,1-.671-.454c-.079-.311-.1-.636-.156-.954-.049-.29-.091-.583-.163-.868a.41.41,0,0,0-.482-.321c-.455.063-.937.092-1.189.583a.539.539,0,0,1-.134.161,4.3,4.3,0,0,0-1.284,2.079c-.094.294-.211.58-.3.875-.062.2-.1.407-.146.611a.788.788,0,0,0,.3.825.972.972,0,0,0,.312.208,3.071,3.071,0,0,1,1.2.894c.359.356.74.689,1.108,1.035.727.684,1.456,1.365,2.173,2.059.35.339.348.351.779.1.291-.171.585-.333.873-.51a1.4,1.4,0,0,0,.365-.28c.178-.219.35-.4.669-.33a.27.27,0,0,0,.19-.072c.484-.4.963-.8,1.446-1.2.149-.124.314-.231.46-.361a9.379,9.379,0,0,0,.734-.685,16.084,16.084,0,0,1,1.842-1.722c.425-.339.8-.739,1.2-1.111.38-.355.752-.718,1.142-1.063C2621.218-1773.146,2621.293-1773.151,2621.633-1773.1Zm-20.323,30.653a2.809,2.809,0,0,0,1.472-.338c.047-.028.112-.024.161-.049.348-.176.711-.331,1.039-.54a5.528,5.528,0,0,0,1.583-1.6,19.518,19.518,0,0,1,1.973-2.506,6.844,6.844,0,0,0,1.12-1.725c.472-.953.907-1.929,1.286-2.923a14.925,14.925,0,0,0,.7-2.379,18.87,18.87,0,0,0,.224-2.264c.042-.53.06-1.062.078-1.593.007-.21-.01-.421-.023-.631s-.04-.391-.054-.587c-.031-.434-.044-.87-.092-1.3a5.779,5.779,0,0,0-.173-.825c-.042-.161-.1-.336-.3-.373s-.261.129-.361.242a7.877,7.877,0,0,1-.623.682c-.417.373-.86.716-1.285,1.079-.117.1-.2.234-.316.336a2.724,2.724,0,0,1-.617.5,2.335,2.335,0,0,0-.884.694,5.707,5.707,0,0,1-.754.659c-.375.334-.806.578-1.185.894-.235.2-.413.459-.63.679a5.49,5.49,0,0,1-1.026.917,3.322,3.322,0,0,0-1.032.785,5.167,5.167,0,0,1-1.6,1.654.648.648,0,0,0-.154.143c-.377.415-.781.81-1.123,1.251-.568.732-1.1,1.492-1.641,2.242a2.273,2.273,0,0,0-.171.29c-.205.4-.407.8-.61,1.2a3.432,3.432,0,0,0-.43,1.613,2.963,2.963,0,0,0,1.746,2.541c.18.1.355.218.529.334.312.209.564.525.961.587C2599.837-1742.651,2600.574-1742.552,2601.31-1742.446Z" transform="translate(-151.33 -283.89)"/>
    <path id="Path_42" data-name="Path 42" d="M2734.738-1965.434a.334.334,0,0,1,.024-.462c.283-.367.557-.74.852-1.1a23.8,23.8,0,0,1,3.26-3.106,5.525,5.525,0,0,0,.922-.794.618.618,0,0,1,.374-.158c.278-.04.56-.052.841-.07a2.03,2.03,0,0,1,.947.15c.3.126.618.187.925.288a.732.732,0,0,1,.326.172c.262.308.491.644.753.952a4.673,4.673,0,0,1,.727,1.509c.174.474.405.928.565,1.406a13.4,13.4,0,0,1,.371,1.421c.083.384.118.777.189,1.164a1.026,1.026,0,0,0,.139.351,1.147,1.147,0,0,1-.013,1.26,2.026,2.026,0,0,0-.349,1.347,8.807,8.807,0,0,1,.025,1.306,1.968,1.968,0,0,1-.283,1.168,1.042,1.042,0,0,0-.164.474,4.69,4.69,0,0,1-.653,1.808c-.3.584-.6,1.171-.9,1.756a1.9,1.9,0,0,1-.147.256,4.445,4.445,0,0,0-.81,2.312,2.149,2.149,0,0,1-.151.609,1.078,1.078,0,0,0,.891,1.529c.6.091,1.193.177,1.792.238a1.77,1.77,0,0,0,.527-.1,1.125,1.125,0,0,0,.114-.055.574.574,0,0,1,.691.14.6.6,0,0,1-.056.742,3.174,3.174,0,0,1-.678.56c-.459.271-.944.5-1.42.741a1.122,1.122,0,0,1-.238.071c-.2.049-.4.1-.606.143-.121.027-.267.1-.362.057-.506-.218-1.094-.266-1.478-.746a2.622,2.622,0,0,0-.7-.591,1.684,1.684,0,0,1-.407-.522c-.053-.079-.064-.187-.115-.27a.552.552,0,0,0-.914-.2.926.926,0,0,1-.753.28c-.111-.018-.247.111-.371.177-.3.16-.318.133-.593-.056a3.253,3.253,0,0,0-.716-.322.269.269,0,0,0-.236.051c-.316.341-.85.386-1.1.823a.428.428,0,0,1-.322.152,1.2,1.2,0,0,0-.934.414,1.523,1.523,0,0,1-1.449.367.731.731,0,0,1-.585-.694.662.662,0,0,0-.33-.545,1.4,1.4,0,0,1-.339-.412c-.072-.1-.093-.275-.185-.32-.491-.241-.612-.792-.98-1.133a.987.987,0,0,1-.188-.327q-.238-.537-.462-1.08a1.632,1.632,0,0,1-.115-.361,7.426,7.426,0,0,1,.272-3.906c.39-1.022.744-2.058,1.211-3.047.288-.609.639-1.189.958-1.783.292-.544.578-1.092.873-1.635.154-.283.328-.555.475-.841a6.6,6.6,0,0,0,.282-.656A1.537,1.537,0,0,1,2734.738-1965.434Zm7.729-1.079.04-.005c-.066-.556-.131-1.111-.2-1.667-.019-.15-.083-.321-.246-.281a1.443,1.443,0,0,0-.88.447c-.126.166-.224.351-.348.518-.1.138-.163.31-.061.429.265.31.155.594.009.894a.725.725,0,0,0-.065.2,3.125,3.125,0,0,1-1.188,1.835c-.356.3-.645.657-.964.987-.369.382-.664.834-1.035,1.215a6.172,6.172,0,0,0-1.007,1.495.9.9,0,0,1-.208.309,3.589,3.589,0,0,0-.932,1.224c-.354.664-.717,1.325-1.082,1.984-.109.2-.208.4-.3.6-.34.74-.7,1.471-1,2.225a10,10,0,0,0-.361,1.339.815.815,0,0,0,.264.876c.2.175.385.371.583.55a.452.452,0,0,0,.549.072,3.191,3.191,0,0,0,.613-.435,41.361,41.361,0,0,0,3.4-3.629,11.766,11.766,0,0,1,.842-.985,5.564,5.564,0,0,0,1.215-1.658c.593-1.272,1.148-2.563,1.672-3.866a8.383,8.383,0,0,0,.511-1.821c.113-.731.108-1.481.153-2.224C2742.448-1966.092,2742.456-1966.3,2742.466-1966.513Z" transform="translate(-266.37 -119.111)"/>
    <path id="Path_43" data-name="Path 43" d="M2905.061-1693.476a1.1,1.1,0,0,1,.337-.748.6.6,0,0,0,.2-.6.7.7,0,0,1,.012-.292c.088-.468.178-.936.278-1.4.035-.163.1-.32.149-.48.072-.24.132-.485.213-.722s.178-.459.266-.681l.016,0a9.311,9.311,0,0,0-.115-2.2l-.055.047c-.078-.089-.2-.167-.228-.269-.129-.5-.247-1.008-.341-1.517-.059-.324-.2-.475-.529-.458-.1,0-.2.03-.292.044a.268.268,0,0,1-.322-.2c-.184-.467-.19-.464-.664-.342-.082.021-.164.04-.247.056a.748.748,0,0,0-.6.633,2.662,2.662,0,0,1-.115.446,4.893,4.893,0,0,0-.571,2.223,1.111,1.111,0,0,1-.049.29c-.18.751-.365,1.5-.544,2.253-.258,1.079-.414,2.18-.774,3.237-.166.49-.258,1-.376,1.509a2.59,2.59,0,0,0-.092.535,1.835,1.835,0,0,0,.232,1.206,5.139,5.139,0,0,0,.431.655,2.156,2.156,0,0,0,1.728.386,4.709,4.709,0,0,1,.806-.212.476.476,0,0,1,.187,0c.383-1.071.583-2.27,1.049-3.342C2905.06-1693.437,2905.06-1693.456,2905.061-1693.476Z" transform="translate(-411.419 -346.407)"/>
    <path id="Path_44" data-name="Path 44" d="M3006.767-1665.5a.161.161,0,0,1-.039-.1c0-.007.052-.036.065-.029a.526.526,0,0,1,.092.1C3006.83-1665.521,3006.782-1665.492,3006.767-1665.5Z" transform="translate(-501.491 -378.431)"/>
    <path id="Path_45" data-name="Path 45" d="M2990.483-1736.263a2.859,2.859,0,0,1,1.083-.76.357.357,0,0,1,.2-.03.23.23,0,0,1,.162.1.215.215,0,0,1-.055.18,1.248,1.248,0,0,1-.237.168q-.562.353-1.125.7a.9.9,0,0,1-.193.042A1.81,1.81,0,0,1,2990.483-1736.263Z" transform="translate(-487.563 -317.804)"/>
    <path id="Path_46" data-name="Path 46" d="M2959.619-1581.59a.4.4,0,0,1,.609-.181c0,.268-.235.384-.347.575C2959.566-1581.362,2959.532-1581.417,2959.619-1581.59Z" transform="translate(-461.467 -449.561)"/>
    <path id="Path_47" data-name="Path 47" d="M2946.232-1726.112c-.066-.287-.138-.572-.2-.859a.375.375,0,0,0-.273-.284.948.948,0,0,1-.438-.28.4.4,0,0,0-.378-.206c-.35.019-.7.047-1.048.075a4.116,4.116,0,0,0-1.631.364,1.1,1.1,0,0,1-.289.052c-.838.169-1.68.322-2.512.518-.49.115-.962.3-1.443.455q-1.2.377-2.409.747c-.094.029-.195.035-.288.065-.562.18-1.127.348-1.679.554-.287.107-.537.311-.822.422-.555.218-1.123.4-1.686.6s-1.124.367-1.664.6a7.607,7.607,0,0,0-2,.964.637.637,0,0,1-.345.126c-.326.022-.454-.14-.326-.437.267-.616.565-1.22.837-1.835a1.794,1.794,0,0,0,.158-.554.651.651,0,0,1,.226-.479,1.479,1.479,0,0,0,.581-.9.6.6,0,0,1,.149-.3,3.278,3.278,0,0,0,.59-1.153,2.5,2.5,0,0,1,1.618-1.646,1.946,1.946,0,0,0,.959-.506.334.334,0,0,1,.3-.023.554.554,0,0,0,.593-.069c.276-.193.562-.372.834-.57.364-.264.729-.529,1.076-.814a6.475,6.475,0,0,0,.862-.793c.422-.5.775-1.061,1.208-1.551a1.885,1.885,0,0,0,.47-.964.668.668,0,0,1,.116-.308,2.126,2.126,0,0,0,.385-.741,7.967,7.967,0,0,1,.374-.985,3.149,3.149,0,0,0,.06-2.537,6.944,6.944,0,0,1-.359-1.928,1.815,1.815,0,0,0-.354-1.231,4.963,4.963,0,0,0-1.042-.766c-.271-.159-.518-.287-.443-.636-.431-.238-.833-.464-1.241-.68a.521.521,0,0,0-.313-.095,3.212,3.212,0,0,0-1.628.728,7.418,7.418,0,0,1-1.406,1.266,2.551,2.551,0,0,0-.981.887.43.43,0,0,1-.117.121,3.244,3.244,0,0,0-.756.953c-.321.529-.638,1.059-.959,1.587a13.761,13.761,0,0,0-1.489,2.968,1.057,1.057,0,0,1-.136.307,1.12,1.12,0,0,1-.2.19,9.338,9.338,0,0,1,.116,2.2l-.016,0c-.087.222-.187.448-.266.681s-.141.481-.213.721c-.048.161-.114.317-.149.48-.1.465-.189.933-.278,1.4a.7.7,0,0,0-.011.292.6.6,0,0,1-.2.6,1.1,1.1,0,0,0-.338.748c0,.02,0,.039,0,.057-.466,1.072-.666,2.272-1.048,3.342.138.031.208.146.219.347a1.616,1.616,0,0,1-.029.335c-.146.971-.452,1.914-.515,2.9a1.278,1.278,0,0,1-.95,1.159.671.671,0,0,0-.45.387c.269.2.286.22.439.1a1.748,1.748,0,0,1,1.13-.257c.31-.008.453.336.6.587a.351.351,0,0,1-.1.487.788.788,0,0,0-.116.174.652.652,0,0,0,.654-.036c.483-.246.991-.441,1.529-.675l.359,1.029c.365-.188.7-.353,1.031-.536a.5.5,0,0,0,.22-.244,6.335,6.335,0,0,0,.2-.766c.056-.258.149-.379.322-.372s.267.132.281.391c0,.028-.005.056-.006.084a.26.26,0,0,0,.209.279.247.247,0,0,0,.31-.156,1,1,0,0,0,.079-.357c.006-.139-.035-.281-.028-.419.009-.226.13-.308.364-.268.066.011.13.029.188.041.381-.615.722-.866,1.257-.605.029.094.067.2.094.307.14.566.3.627.772.29a.567.567,0,0,0,.1-.117c-.034-.152-.07-.286-.094-.423a.639.639,0,0,1,.406-.8c.075-.038.165-.047.236-.089.131-.078.267-.162.228-.4a2.165,2.165,0,0,0-1.185.023,1.783,1.783,0,0,0-.758.429,1.806,1.806,0,0,1-.718.481c-.219.089-.429.2-.647.3l-.351-.223a2.2,2.2,0,0,0-.263.235,1.741,1.741,0,0,1-.812.574,12.772,12.772,0,0,0-1.78.749,10.537,10.537,0,0,1-1.068.416c0-.2.01-.3,0-.393a.8.8,0,0,1,.519-.791,2.968,2.968,0,0,0,.64-.437,1.878,1.878,0,0,1,.4-.23c.111-.059.229-.1.336-.17.379-.234.863-.222,1.215-.526.048-.042.163-.008.247-.008a1.315,1.315,0,0,0,.755-.214,2.8,2.8,0,0,1,.948-.53,1.54,1.54,0,0,0,1.021-.427.2.2,0,0,1,.115-.048,8.16,8.16,0,0,0,2.027-.8,2.052,2.052,0,0,1,.282-.077c.415-.13.84-.233,1.239-.4a5.167,5.167,0,0,0,1.349-.521.071.071,0,0,1,.041-.007c.552,0,1.044-.333,1.607-.293.085.006.176-.076.265-.115a5.1,5.1,0,0,1,.8-.344c.761-.186,1.532-.333,2.3-.5a.465.465,0,0,0,.2-.068c.418-.354.853-.164,1.28-.042.172.05.212.213.117.377-.034.06-.094.105-.132.163-.193.289-.086.535.254.558.307.021.617.01.925.024a1.008,1.008,0,0,1,.45.067,1.086,1.086,0,0,0,1.048-.028C2946.26-1725.707,2946.3-1725.8,2946.232-1726.112Zm-15.622-7.064a7.393,7.393,0,0,0,.458-1.617,1.868,1.868,0,0,0-.028-.751c-.133-.672-.3-1.338-.443-2.008a3.421,3.421,0,0,1-.125-.739,2.215,2.215,0,0,1,.622-1.254c.207-.281.431-.549.654-.817a1.951,1.951,0,0,1,.322-.331,4.107,4.107,0,0,0,.794-.681.479.479,0,0,1,.295-.135,1.369,1.369,0,0,0,.87-.464,2.186,2.186,0,0,1,.307-.288.745.745,0,0,1,1.243.534c.035.279.072.557.109.846a6.826,6.826,0,0,1-.59,2.686.691.691,0,0,0-.1.276,3.254,3.254,0,0,1-.54,1.445c-.115.187-.311.322-.436.5-.368.53-.716,1.073-1.077,1.608a2.893,2.893,0,0,1-.7.765,7.349,7.349,0,0,0-.962.99c-.153.164-.287.349-.453.5-.191.17-.417.084-.4-.167A2.412,2.412,0,0,1,2930.61-1733.175Z" transform="translate(-430.112 -311.316)"/>
    <path id="Path_48" data-name="Path 48" d="M2991.638-1736.608a1.248,1.248,0,0,0,.237-.168.215.215,0,0,0,.055-.18.23.23,0,0,0-.162-.1.357.357,0,0,0-.2.03,2.859,2.859,0,0,0-1.083.76,1.81,1.81,0,0,0-.164.4.9.9,0,0,0,.193-.042Q2991.077-1736.253,2991.638-1736.608Z" transform="translate(-487.563 -317.804)"/>
    <path id="Path_49" data-name="Path 49" d="M2959.882-1581.2c.112-.191.345-.306.347-.575a.4.4,0,0,0-.609.181C2959.532-1581.417,2959.566-1581.362,2959.882-1581.2Z" transform="translate(-461.467 -449.561)"/>
    <path id="Path_50" data-name="Path 50" d="M3006.793-1665.636c-.012-.007-.066.022-.065.029a.161.161,0,0,0,.039.1c.015.012.063-.016.118-.033A.526.526,0,0,0,3006.793-1665.636Z" transform="translate(-501.491 -378.431)"/>
    <path id="Path_51" data-name="Path 51" d="M2664.37-2092.354a3.44,3.44,0,0,1,.081.4.962.962,0,0,1-.018.414c-.259.639-.29,1.338-.529,1.981-.068.183-.1.378-.17.563-.194.541-.439,1.068-.583,1.621a15.009,15.009,0,0,0-.275,1.7c-.047.333-.064.671-.105,1a.7.7,0,0,1-.1.271,2.8,2.8,0,0,0-.373,1.2.681.681,0,0,1-.058.286,1.512,1.512,0,0,0-.22.921.691.691,0,0,1-.195.4,1.105,1.105,0,0,0-.289.772,8.425,8.425,0,0,1-.4,2.533,24.518,24.518,0,0,0-.521,3.49c-.121.846-.2,1.7-.309,2.546a19.3,19.3,0,0,0,.033,4.454.7.7,0,0,0,.535.675c.488.128.982.227,1.469.353a6.1,6.1,0,0,1,.921.292.63.63,0,0,1,.068.954,2.294,2.294,0,0,0-.768,1.066.51.51,0,0,1-.519.294,4.588,4.588,0,0,0-.714.043.465.465,0,0,1-.506-.218.571.571,0,0,0-.555-.29,1.475,1.475,0,0,1-.629-.193,5.625,5.625,0,0,1-.715-.441,1.179,1.179,0,0,1-.292-.3,1.039,1.039,0,0,0-.456-.408,1.147,1.147,0,0,1-.4-.418,7.5,7.5,0,0,1-.675-1.052,3.632,3.632,0,0,1-.357-1.156,28.468,28.468,0,0,1-.193-3.745c.027-.883.042-1.767.09-2.649.022-.4.123-.8.17-1.208.1-.837.165-1.679.286-2.512.089-.608.246-1.206.369-1.809a2.223,2.223,0,0,0,.067-.416,11.513,11.513,0,0,1,.387-2.317c.178-.8.385-1.595.573-2.394.16-.682.295-1.369.471-2.047.112-.433.273-.854.417-1.277.168-.49.341-.977.515-1.464.089-.25.2-.494.273-.749.164-.58.336-1.16.457-1.75a6.782,6.782,0,0,1,.471-1.477c.144-.317.223-.663.337-.993.073-.212.164-.418.237-.63.26-.757.525-1.513.771-2.274s.451-1.505.7-2.25c.255-.77.571-1.521.8-2.3a18.026,18.026,0,0,1,1.036-2.387,27.69,27.69,0,0,0,1.159-3.507,7.132,7.132,0,0,1,.37-.842,1.96,1.96,0,0,0,.128-.264.69.69,0,0,1,.428-.464,3.688,3.688,0,0,0,.685-.605,4.056,4.056,0,0,1,.527-.414c.311-.191.5-.15.789.127a.547.547,0,0,1,.12.753c-.025.049-.053.1-.094.17.083.058.159.111.234.167s.131.1.219.166a4.46,4.46,0,0,0-.335,1.555,1.84,1.84,0,0,1-.16.521c-.2.448-.427.884-.628,1.332-.108.242-.184.5-.278.749-.074.2-.146.394-.232.585a3.794,3.794,0,0,0-.349,1.2,3.382,3.382,0,0,1-.331,1.033c-.187.4-.435.776-.648,1.167a2.911,2.911,0,0,0-.16.387c-.106.287-.213.573-.309.863a.81.81,0,0,0-.073.4.633.633,0,0,1-.227.674.782.782,0,0,0-.158.289c-.065.169-.116.344-.172.516-.046.143-.123.291.071.428.2-.354.4-.7.6-1.036a.7.7,0,0,1,.162-.192,1.533,1.533,0,0,0,.531-.978,1.116,1.116,0,0,1,.105-.24c.061.04.1.056.1.07-.009.376-.02.753-.038,1.129a.552.552,0,0,1-.062.2c-.209.46-.421.919-.631,1.378a.291.291,0,0,0-.033.078c-.071.484-.161.966-.205,1.453a1.768,1.768,0,0,1-.517,1.285.736.736,0,0,0-.2.618c0,.16,0,.313-.157.406a.492.492,0,0,0-.226.509c0,.07,0,.141,0,.211A.978.978,0,0,1,2664.37-2092.354Zm-2.084,5.357-.327-.376c-.422.363-.458.526-.2.853Zm-1.293-1.979-.146-.018c-.076.274-.165.545-.215.824-.012.07.1.162.162.244.068-.056.192-.108.2-.167C2661.008-2088.385,2660.995-2088.68,2660.993-2088.975Zm-2.022,13.156a.546.546,0,0,0,.093.686.253.253,0,0,0,.371-.037.218.218,0,0,0-.042-.331C2659.258-2075.609,2659.116-2075.71,2658.971-2075.818Zm5.642-20.129c.368-.192.42-.425.181-.67C2664.729-2096.376,2664.671-2096.161,2664.613-2095.948Zm-5.118,16.708c-.128.224-.218.366-.043.54C2659.656-2078.851,2659.6-2079,2659.5-2079.24Zm-.822,0-.178-.166c-.042.046-.122.1-.114.134.016.064.082.115.127.171Zm3.271-12.1-.1.017.048.364C2662.039-2091.093,2662.068-2091.219,2661.944-2091.337Z" transform="translate(-204.234 0)"/>
    <path id="Path_52" data-name="Path 52" d="M2692.565-1581.475a.572.572,0,0,1-.318.591,5.563,5.563,0,0,1-1.68.848c-.08.024-.188.045-.226.1-.269.421-.785.458-1.14.745a.545.545,0,0,1-.3.128,2.119,2.119,0,0,0-1.613.95.771.771,0,0,1-.567.319,1.521,1.521,0,0,0-1.342.854c.211.419.421.488.794.287.12-.064.267-.078.391-.138a2.8,2.8,0,0,0,.331-.225.722.722,0,0,0,.783-.2.767.767,0,0,1,.45-.182.9.9,0,0,0,.463-.245,1.267,1.267,0,0,1,.57-.338,1.337,1.337,0,0,0,.363-.2c.034-.021.054-.065.088-.089a.461.461,0,0,1,.583.021.427.427,0,0,1-.1.532,4.473,4.473,0,0,1-.443.321,2.227,2.227,0,0,1-.317.2,3.184,3.184,0,0,1-.459.167c-.254.074-.512.135-.768.2-.04.01-.076.048-.115.049a.936.936,0,0,0-.742.478c-.22.3-.6.336-.894.516-.082.05-.207.047-.268.11a1.812,1.812,0,0,1-.959.492c-.458.1-.74.487-1.127.7-.1.054-.174.143-.266.207-.243.169-.4.36-.218.669a.4.4,0,0,1,.038.205.206.206,0,0,1-.292.2.553.553,0,0,1-.169-.123c-.358-.356-.355-.354-.837-.161a2.882,2.882,0,0,0-.774.489,4.691,4.691,0,0,1-.979.554,3.813,3.813,0,0,0-.974.573,2.835,2.835,0,0,1-.591.316,1.581,1.581,0,0,0-.358.215,1.313,1.313,0,0,1-.914.528c-.12,0-.245.128-.356.212a1.39,1.39,0,0,1-.554.268,1.529,1.529,0,0,0-.515.348c-.185.144-.357.307-.544.449a6.266,6.266,0,0,0-1.094.888.986.986,0,0,0-.211.579c-.018.172,0,.357-.232.383s-.328-.11-.4-.3a2.345,2.345,0,0,0-.181-.315c-.251.223-.251.223,0,.953a1.921,1.921,0,0,1-.207.359c-.139.152-.3.381-.464.393-.412.031-.6.326-.812.576a1.305,1.305,0,0,1-.88.575.48.48,0,0,0-.276.173.675.675,0,0,1-.626.275c-.194-.025-.274.079-.366.216-.34.509-.435.505-.788-.016-.28-.416-.468-.439-.84-.089a7.007,7.007,0,0,1-1.155.9.891.891,0,0,0-.372.435,1.811,1.811,0,0,1-.79.894,6.026,6.026,0,0,0-1.36.98.711.711,0,0,1-.612.279.907.907,0,0,0-.763-.442,1.561,1.561,0,0,0-.248.818,1.332,1.332,0,0,1-.031.333.4.4,0,0,1-.51.325.39.39,0,0,0-.551.278c-.052.145-.175.158-.312.157a.7.7,0,0,0-.592.335c-.367.494-.762.968-1.148,1.448a2.737,2.737,0,0,1-.406.461,1.243,1.243,0,0,1-.872.247.733.733,0,0,0-.692.323.637.637,0,0,1-.542.276.758.758,0,0,0-.655.4,1.811,1.811,0,0,1-1.163.838,7.386,7.386,0,0,0-.916.3,1.891,1.891,0,0,0-.388.243c-.251.178-.49.373-.747.541a.57.57,0,0,1-.739-.05,2.914,2.914,0,0,0-.452-.307c-.336-.19-.448-.425-.292-.761a2.848,2.848,0,0,0,.3-1.038.956.956,0,0,1,.364-.537,6.424,6.424,0,0,0,1.047-.966c.128-.171.431-.206.543-.43a2.822,2.822,0,0,1,.626-.665.585.585,0,0,1,.148-.079l.3.381c.305-.23.682-.322.83-.746.323.181.588.01.867-.128a6.153,6.153,0,0,0,1.254-.824,12.166,12.166,0,0,1,1.257-.837c.435-.28.878-.549,1.309-.836a5.953,5.953,0,0,0,.737-.548,5.62,5.62,0,0,1,1.21-.743,2.637,2.637,0,0,0,.559-.439,2,2,0,0,1,.87-.568,1.105,1.105,0,0,0,.4-.221c.239-.193.434-.448.775-.474a.15.15,0,0,0,.1-.066c.24-.431.733-.493,1.09-.751a.6.6,0,0,1,.187-.094,2.6,2.6,0,0,0,1.673-1.364.665.665,0,0,1,.332-.29,4.589,4.589,0,0,0,1.5-.99,6.266,6.266,0,0,1,1.282-1,1.9,1.9,0,0,0,.545-.568c.158-.207.267-.452.419-.664a1.021,1.021,0,0,1,.288-.218c.139-.089.282-.172.424-.254a6.543,6.543,0,0,1,.876-.491,8.543,8.543,0,0,0,1.247-.583c.812-.472,1.649-.9,2.493-1.315,1.439-.7,2.84-1.476,4.22-2.287.615-.363,1.226-.735,1.858-1.066.371-.194.789-.3,1.166-.479a11.747,11.747,0,0,0,1.578-.786,14.654,14.654,0,0,1,1.57-.79c.507-.264,1-.554,1.5-.831.184-.1.367-.2.553-.3.6-.3,1.194-.613,1.8-.9A1.587,1.587,0,0,1,2692.565-1581.475Zm-26.81,16.73-.01.122.255.014.009-.1Zm-2.585,2.635a.546.546,0,0,0-.15-.071c-.022,0-.049.049-.074.077a.464.464,0,0,0,.117.082C2663.081-1562.016,2663.116-1562.064,2663.171-1562.11Zm-5.835,3.719c.038-.056.081-.094.074-.113a.12.12,0,0,0-.088-.064c-.031,0-.063.036-.094.056Z" transform="translate(-200.329 -449.873)"/>
    <path id="Path_53" data-name="Path 53" d="M2850.788-1971.807a1.949,1.949,0,0,0-.937.457c-.187.208-.329.457-.52.661a6.235,6.235,0,0,0-.687,1.332c-.174.306-.274.641-.649.787-.084.033-.144.2-.164.312a1.243,1.243,0,0,1-.284.645.533.533,0,0,0-.124.3.854.854,0,0,1-.371.632.431.431,0,0,0-.062.685.349.349,0,0,1,.059.487,2.813,2.813,0,0,0-.3,1.089,1.309,1.309,0,0,1-.093.409,5.877,5.877,0,0,0-.468,2.384,11.545,11.545,0,0,1-.331,1.517c-.079.369-.13.744-.188,1.118a.517.517,0,0,0,.2.482,1.907,1.907,0,0,0,1.045.494,10.021,10.021,0,0,0,3.469-.281,7.065,7.065,0,0,0,1.786-.608.313.313,0,0,1,.481.277,1.374,1.374,0,0,1-.4,1.227,7.318,7.318,0,0,1-.868.654,3.851,3.851,0,0,0-1.511,1.538c-.011.026-.037.051-.036.076.02.459-.378.618-.633.878a.687.687,0,0,1-.22.11,3.554,3.554,0,0,0-.458.2.65.65,0,0,1-.64.063.807.807,0,0,0-.32-.092,3.235,3.235,0,0,1-1.847-.626.989.989,0,0,0-.345-.149.966.966,0,0,1-.633-.458,3.517,3.517,0,0,1-.418-.728,2.648,2.648,0,0,0-.449-.752,1.159,1.159,0,0,1-.247-.436.816.816,0,0,0-.484-.638c-.1-.042-.162-.219-.194-.345a4.109,4.109,0,0,1-.107-.666,2.873,2.873,0,0,0-.263-1.006,2.437,2.437,0,0,1-.065-1.534,9.128,9.128,0,0,0,.221-1.752,5.57,5.57,0,0,1,.206-1.11,11.965,11.965,0,0,1,.956-2.465c.2-.446.49-.853.726-1.284.168-.308.314-.628.469-.943.019-.038.021-.092.049-.115.443-.359.4-.955.678-1.388a10.629,10.629,0,0,1,2.037-2.562,3.3,3.3,0,0,0,.613-.631,1.136,1.136,0,0,1,.886-.49c.308-.031.616-.062.925-.087a1.974,1.974,0,0,1,1.274.332,2.911,2.911,0,0,0,.3.163.317.317,0,0,0,.418-.08,1.575,1.575,0,0,0,.135-.161c.337-.5.668-1,1.006-1.5.166-.244.347-.478.515-.721.128-.184.243-.377.369-.563a2.864,2.864,0,0,1,1.334-1.111c.157-.062.31-.133.467-.2a.629.629,0,0,1,.854.2c.168.189.34.375.5.572a.317.317,0,0,1-.022.485c-.072.066-.119.156-.187.227-.514.533-1.046,1.051-1.538,1.6a3.89,3.89,0,0,0-.389.732,1.325,1.325,0,0,1-.219.306,1.024,1.024,0,0,0-.323.749.921.921,0,0,1-.182.455,2.3,2.3,0,0,0-.47.931.405.405,0,0,1-.062.156q-.44.684-.885,1.366c-.007.012-.021.02-.027.032-.26.475-.588.913-.837,1.388a7.735,7.735,0,0,0-.547,1.544,1,1,0,0,0,.632,1.188.863.863,0,0,1,.233.1c.314.172.361.259.316.562-.05.336-.175.5-.492.544a1.222,1.222,0,0,1-1.382-.468.571.571,0,0,0-.194-.219,1.25,1.25,0,0,1-.654-1.009c-.077-.366-.251-.712-.354-1.074a1.4,1.4,0,0,1-.016-.5c.024-.278.069-.553.108-.829a2.3,2.3,0,0,1,.076-.454c.209-.581.436-1.155.652-1.733.072-.194.135-.391.2-.587Z" transform="translate(-362.014 -113.222)"/>
    <path id="Path_54" data-name="Path 54" d="M2863.232-1679.2c-.689.019-.755-.018-.939-.688a1.623,1.623,0,0,0-.8-1.08,1.1,1.1,0,0,1-.512-.876c-.044-.276-.116-.547-.166-.821a1.63,1.63,0,0,1-.05-.455,15.517,15.517,0,0,1,.526-2.983c.1-.319.143-.654.221-.979a.729.729,0,0,1,.125-.309,3.5,3.5,0,0,0,.621-1.891,8,8,0,0,1,.617-2.3,2.643,2.643,0,0,0,.221-.591,14.011,14.011,0,0,1,1.045-2.709,3.137,3.137,0,0,1,.708-.821.6.6,0,0,1,.679-.058,6.117,6.117,0,0,1,.779.42.692.692,0,0,1,.168.228,2.589,2.589,0,0,1,.249,1.66.687.687,0,0,0,.039.4.922.922,0,0,1,.059.843,5.293,5.293,0,0,0-.168.988,4.018,4.018,0,0,1-.451,1.944,3.175,3.175,0,0,0-.3.828c-.117.434-.207.876-.309,1.314a.536.536,0,0,0-.03.122,9.761,9.761,0,0,1-.781,2.867c-.167.609-.3,1.228-.421,1.847a1.03,1.03,0,0,0,.061.494.855.855,0,0,1-.1.84,1.018,1.018,0,0,0-.182.838,1.25,1.25,0,0,1,.012.376.586.586,0,0,1-.588.554A3.308,3.308,0,0,1,2863.232-1679.2Z" transform="translate(-377.585 -352.786)"/>
    <path id="Path_55" data-name="Path 55" d="M3010.168-1618.115c-.086.088-.151.166-.229.231-.027.023-.085,0-.122.02a3.723,3.723,0,0,1-.87.363,2.369,2.369,0,0,0-.9.3,3.352,3.352,0,0,1-.751.235c-.133.039-.3.034-.4.114a1.21,1.21,0,0,1-.87.233c-.168-.005-.337,0-.5,0a.676.676,0,0,0-.537.2,2.9,2.9,0,0,1-.915.5,3.116,3.116,0,0,1-1.259.25,2.062,2.062,0,0,0-.4.1c-.239.059-.479.116-.783.189a1.678,1.678,0,0,1,.826-.545,1.683,1.683,0,0,0,.9-.506,1.376,1.376,0,0,1,1.344-.373.83.83,0,0,0,.856-.28.38.38,0,0,1,.118-.114,3.5,3.5,0,0,1,.991-.421,6.3,6.3,0,0,0,1.1-.324,1.351,1.351,0,0,1,.461-.01.625.625,0,0,0,.512-.126.363.363,0,0,1,.229-.072C3009.344-1618.148,3009.715-1618.131,3010.168-1618.115Z" transform="translate(-497.164 -418.738)"/>
    <path id="Path_56" data-name="Path 56" d="M2915.068-1566.5c-.054.2-.241.2-.385.28-.086.045-.192.149-.193.227a.329.329,0,0,0,.172.254c.193.066.357.128.289.37-.044.157-.277.2-.52.123-.291-.1-.586-.177-.874-.284-.328-.122-.359-.329-.092-.556a1.439,1.439,0,0,1,.215-.129c.218-.126.438-.249.654-.378A.506.506,0,0,1,2915.068-1566.5Z" transform="translate(-422.171 -462.409)"/>
    <path id="Path_57" data-name="Path 57" d="M2702.242-1460.315a.6.6,0,0,1-.135.731,2.236,2.236,0,0,1-.705.511.726.726,0,0,1-.28.075.24.24,0,0,1-.217-.4.85.85,0,0,1,.2-.21c.291-.218.584-.432.882-.638A.869.869,0,0,1,2702.242-1460.315Z" transform="translate(-241.838 -552.722)"/>
    <path id="Path_58" data-name="Path 58" d="M2928.775-1571.881a1.244,1.244,0,0,1-.286-.233c-.09-.131.013-.232.122-.309a1.856,1.856,0,0,1,.938-.507c.076,0,.207,0,.221.042a.308.308,0,0,1-.016.263,8.247,8.247,0,0,1-.663.622A1.168,1.168,0,0,1,2928.775-1571.881Z" transform="translate(-435.048 -457.126)"/>
    <path id="Path_59" data-name="Path 59" d="M2691.005-1451.093c.257.409.248.469-.081.717-.113.084-.221.175-.338.252-.272.18-.326.173-.655-.084A7.054,7.054,0,0,1,2691.005-1451.093Z" transform="translate(-232.572 -560.55)"/>
    <path id="Path_60" data-name="Path 60" d="M2762.436-1494.376c.086.241.15.424-.076.513a.292.292,0,0,1-.257-.131C2762.031-1494.239,2762.245-1494.267,2762.436-1494.376Z" transform="translate(-293.824 -523.809)"/>
    <path id="Path_61" data-name="Path 61" d="M2769.111-1499.033c.257-.342.29-.354.617-.238C2769.593-1498.982,2769.584-1498.978,2769.111-1499.033Z" transform="translate(-299.786 -519.597)"/>
    <path id="Path_62" data-name="Path 62" d="M3008.428-1954.837c.074.426-.328.423-.458.63C3007.951-1954.529,3008.176-1954.663,3008.428-1954.837Z" transform="translate(-502.544 -132.938)"/>
    <path id="Path_63" data-name="Path 63" d="M2742.969-1481.9a1.3,1.3,0,0,1-.328.166c-.043.006-.1-.094-.154-.146.07-.056.133-.137.213-.159C2742.75-1482.051,2742.825-1481.977,2742.969-1481.9Z" transform="translate(-277.186 -534.281)"/>
    <path id="Path_64" data-name="Path 64" d="M2727.871-2046.937c-.123-.464-.123-.464.135-.614C2727.955-2047.323,2727.913-2047.13,2727.871-2046.937Z" transform="translate(-264.711 -54.236)"/>
    <path id="Path_65" data-name="Path 65" d="M2715.455-1463.63c-.03-.025-.065-.045-.063-.055a.445.445,0,0,1,.049-.093c.018.015.053.032.052.045A.4.4,0,0,1,2715.455-1463.63Z" transform="translate(-254.186 -549.783)"/>
    <rect id="_Sector_" data-name="&lt;Sector&gt;" width="0.151" height="3.476" transform="translate(2497.526 -2047.611)"/>
  </g>
</svg>
