<svg xmlns="http://www.w3.org/2000/svg" width="40" height="40" viewBox="0 0 40 40">
  <g id="Group_204" data-name="Group 204" transform="translate(162.119 529.521)">
    <path id="Path_66" data-name="Path 66" d="M-117.149-496.013a10.458,10.458,0,0,0-2.423-.33c-3.044-.152-4.954,1.431-6.427,3.571l-3.074-.153a1.415,1.415,0,0,0-1.305.74l-1.607,2.924a.738.738,0,0,0,.269.992.691.691,0,0,0,.313.092l3.062.152-.7.648a.991.991,0,0,0-.068,1.372l1.425,1.618a.927.927,0,0,0,1.335.067h0l.7-.648-.157,3.149a.719.719,0,0,0,.672.763.689.689,0,0,0,.319-.061l2.987-1.353a1.459,1.459,0,0,0,.847-1.262l.157-3.166c2.212-1.3,3.94-3.1,4.095-6.213a11.065,11.065,0,0,0-.077-2.515A.476.476,0,0,0-117.149-496.013Z" transform="translate(-17.734 -19.589)" fill="#0c1a28"/>
    <path id="Path_67" data-name="Path 67" d="M-142.119-529.521a20.023,20.023,0,0,0-20,20,20.022,20.022,0,0,0,20,20,20.023,20.023,0,0,0,20-20A20.023,20.023,0,0,0-142.119-529.521Zm0,38.11a18.131,18.131,0,0,1-18.11-18.11,18.131,18.131,0,0,1,18.11-18.11,18.131,18.131,0,0,1,18.11,18.11A18.131,18.131,0,0,1-142.119-491.411Z" fill="#dd3431"/>
  </g>
</svg>
