<svg xmlns="http://www.w3.org/2000/svg" width="100.732" height="100.732" viewBox="0 0 100.732 100.732">
  <g id="Group_9" data-name="Group 9" transform="translate(162.119 529.521)">
    <path id="Path_66" data-name="Path 66" d="M-89.822-495.39a29.6,29.6,0,0,0-6.86-.935c-8.618-.429-14.023,4.052-18.192,10.109l-8.7-.433a4,4,0,0,0-3.694,2.095l-4.549,8.276a2.089,2.089,0,0,0,.761,2.807,1.956,1.956,0,0,0,.885.262l8.666.431-1.973,1.835a2.805,2.805,0,0,0-.193,3.884l4.034,4.581a2.624,2.624,0,0,0,3.779.188h0l1.972-1.835-.444,8.914a2.035,2.035,0,0,0,1.9,2.16,1.949,1.949,0,0,0,.9-.171l8.454-3.829a4.13,4.13,0,0,0,2.4-3.572l.445-8.962c6.26-3.672,11.153-8.773,11.591-17.587a31.32,31.32,0,0,0-.219-7.119A1.348,1.348,0,0,0-89.822-495.39Z" transform="translate(-1.448 -1.599)" fill="#fff"/>
    <path id="Path_67" data-name="Path 67" d="M-111.753-529.521a50.423,50.423,0,0,0-50.366,50.367,50.423,50.423,0,0,0,50.366,50.366,50.423,50.423,0,0,0,50.367-50.366A50.423,50.423,0,0,0-111.753-529.521Zm0,95.973a45.658,45.658,0,0,1-45.607-45.607,45.658,45.658,0,0,1,45.607-45.608,45.659,45.659,0,0,1,45.608,45.608A45.658,45.658,0,0,1-111.753-433.548Z" fill="#fff"/>
  </g>
</svg>
