<svg xmlns="http://www.w3.org/2000/svg" width="429.128" height="459.036" viewBox="0 0 429.128 459.036">
  <g id="Group_6" data-name="Group 6" transform="translate(-2415.952 2111.443)">
    <path id="Path_38" data-name="Path 38" d="M2454.976-2010.821c.214-.391.449-.771.638-1.174.972-2.068,1.95-4.134,2.891-6.216.839-1.861,1.555-3.782,2.469-5.6.991-1.974,1.7-4.12,3.271-5.779a6.183,6.183,0,0,0,.576-1.113c.959-1.591,1.982-3.147,2.892-4.765,1.082-1.924,2.559-3.561,3.459-5.651,1.2-2.788,2.423-5.638,4.661-7.876a10.674,10.674,0,0,0,1.918-2.824,11.775,11.775,0,0,1,2.518-3.675,9.186,9.186,0,0,0,1.684-2.916c.734-1.562,2.086-2.814,2.295-4.644a2.464,2.464,0,0,1,.479-.964c1.689-2.56,3.378-5.119,5.1-7.659a4.947,4.947,0,0,1,1.206-1.316c1.049-.723,2.15-1.348,2.414-2.759a.911.911,0,0,1,.483-.505,3.889,3.889,0,0,0,1.683-2.045,2.042,2.042,0,0,1,2.106-1.383,2.386,2.386,0,0,0,1.987-1.047c1.931-2.144,3.958-4.2,5.868-6.363a33.248,33.248,0,0,1,8.33-7.038c-.569-.4-.885-.8-1.251-.852a2.936,2.936,0,0,0-1.77.123c-1.956,1.149-4.248,1.722-5.856,3.477a5.147,5.147,0,0,1-3.009,1.983,3.942,3.942,0,0,1,.448-1.145q2.489-2.733,5.046-5.4a11.958,11.958,0,0,1,4.528-2.563c.614-.24,1.283-.412,1.8.241-.6,2.254-.406,2.419,1.966,2.251a14.378,14.378,0,0,1,4.815.048,19.851,19.851,0,0,1,5.375,2.675,4.245,4.245,0,0,1,1.861,2.8,1.857,1.857,0,0,0,1.768,1.546,5.141,5.141,0,0,1,3.845,2.384c.787,1.27,1.684,2.472,2.544,3.7a7.325,7.325,0,0,0,.68.824,6.848,6.848,0,0,1,.67.6c2.344,3.268,4.884,6.409,4.985,10.768.044,1.841.644,3.662.876,5.507.352,2.8.881,5.6.5,8.443-.248,1.851-.388,3.723-.746,5.551a39.024,39.024,0,0,1-1.306,4.686c-1.119,3.413-2.286,6.811-3.462,10.2-.195.563-.574,1.062-.792,1.62a6.675,6.675,0,0,0-.545,1.884c-.083,1.188.406,1.618,1.618,1.61a5.762,5.762,0,0,0,1.08-.093,14.035,14.035,0,0,1,9.07,1.588,5.934,5.934,0,0,1,1.028.726c.842.67,1.707,1.317,2.494,2.046a3.1,3.1,0,0,1,.99,1.406,2.623,2.623,0,0,0,1.836,2.036,3.756,3.756,0,0,1,2.279,1.92,2.883,2.883,0,0,0,1.036.926,10.772,10.772,0,0,1,2.973,3.048c1.108,1.629,2.095,3.513,4.1,4.371a1.912,1.912,0,0,1,.7.787,3.437,3.437,0,0,1,.426,1c.667,2.791,1.615,5.5,1.668,8.446.048,2.747.565,5.486.869,8.229a7.94,7.94,0,0,1,.1,1.439,71.8,71.8,0,0,1-2.572,15.653c-.485,1.6-1.409,3.057-2.047,4.615-.614,1.5-.995,3.1-1.7,4.544-1.335,2.752-2.829,5.427-4.246,8.14-.223.425-.393.877-.579,1.321a10.308,10.308,0,0,1-1.959,2.75,58.966,58.966,0,0,0-4.515,6.062c-1.565,2.343-2.64,5.008-4.647,7.067a3.509,3.509,0,0,0-.609.895c-1.473,3-3.757,5.42-5.769,8.037a26.125,26.125,0,0,0-1.4,2.316c-.276.449-.587.876-.77,1.146a7.911,7.911,0,0,0-2.729-.331,4.063,4.063,0,0,0-2.469,2.256,2.866,2.866,0,0,1-.8,1.183c-2.433,1.518-3.722,4.212-6.087,5.812a17.271,17.271,0,0,0-2.067,2.215c-.721.711-1.5,1.375-2.285,2.012-1.258,1.016-2.625,1.911-3.785,3.024a3.415,3.415,0,0,0-.841,2.09,5.233,5.233,0,0,1-2.073,3.85,19.887,19.887,0,0,1-3.958,3.058c-1.231.587-2.127,1.887-3.154,2.889q-1.995,1.948-3.961,3.926a14.574,14.574,0,0,0-1.708,1.82,5.5,5.5,0,0,1-6.609,1.989c-1.263,1.579-2.5,3.172-3.8,4.718a3.42,3.42,0,0,1-1.285.956c-1.614.649-3.278,1.177-4.89,1.828a13.285,13.285,0,0,0-2.533,1.324,21.253,21.253,0,0,1-5.656,2.681,5.587,5.587,0,0,0-1.232.66,15.107,15.107,0,0,0-1.746,1.192c-2.04,1.731-4.8,1.855-7.167,3.426a6.786,6.786,0,0,0-.161-1.511,7.66,7.66,0,0,0-.841-1.317c-1.772,1.15-3.822,1.758-4.463,4.293-.922,0-1.865,0-2.81,0a3.77,3.77,0,0,0-2.477.846,10.054,10.054,0,0,1-4.086,2.216c-.176.036-.378.189-.514.139-1.678-.612-2.973.462-4.427.913a9.991,9.991,0,0,1-2.868.254,19.7,19.7,0,0,0-4.944.916c-3.605.95-7.309,1.94-11,.642a25.741,25.741,0,0,1-7.673-4.31,15.009,15.009,0,0,1-5.207-9.415,2.618,2.618,0,0,1-.034-1.074c.505-2.038,1.051-4.065,1.586-6.1a11.97,11.97,0,0,0,.591-2.258c.153-2.668,1.4-4.935,2.509-7.259.266-.557.578-1.125,1.333-.975a1.445,1.445,0,0,1,1.225,1.563c-.01,1.444-.057,2.887-.111,4.33-.021.541-.093,1.079-.159,1.617-.376,3.077.106,6.114.4,9.162a5.012,5.012,0,0,0,2.051,3.486,7.435,7.435,0,0,0,4.466,1.744,24.915,24.915,0,0,0,8.2-1.005c2.238-.7,4.534-1.23,6.746-2a42.28,42.28,0,0,0,4.232-2c2.6-1.248,5.187-2.508,7.791-3.738,3.4-1.606,6.317-3.949,9.34-6.128,2.874-2.071,5.781-4.1,8.578-6.272,2.659-2.062,5.2-4.279,7.786-6.428a21,21,0,0,0,2.336-1.983,28.241,28.241,0,0,0,2.615-3.418,39.821,39.821,0,0,1,6.427-7.065c.6-.567,1.055-1.294,1.64-1.886a10.815,10.815,0,0,1,1.886-1.626,4.867,4.867,0,0,0,2.12-2.366,7.582,7.582,0,0,1,1.164-1.805,39.483,39.483,0,0,1,5.187-5.972,11.356,11.356,0,0,0,1.746-2.279c1.752-2.522,3.833-4.781,5.719-7.187,1.582-2.017,3.559-3.745,4.713-6.1a4.76,4.76,0,0,1,1.009-1.264,50.7,50.7,0,0,0,6.388-8.252c.61-.891,1.266-1.753,1.835-2.67,1.3-2.095,2.527-4.232,3.836-6.32,1.212-1.933,2.532-3.8,3.726-5.743,1.346-2.193,2.7-4.389,3.869-6.679,1.2-2.359,2.1-4.869,3.78-6.972a4.17,4.17,0,0,0,.73-1.446c.872-3.125,1.709-6.259,2.537-9.4a2.644,2.644,0,0,0,.1-1.25c-.576-2.3.123-4.549.232-6.82.046-.96-.01-1.924-.006-2.885a11.617,11.617,0,0,1,.072-2.513,5.7,5.7,0,0,0-.6-3.839,24.913,24.913,0,0,1-1.174-2.637,8.029,8.029,0,0,1-.375-2.27,2.725,2.725,0,0,0-1.656-2.75c-2.182-.877-4.378-1.765-6.757-.551a7.788,7.788,0,0,1-1.878.616c-2.514.541-4,2.368-5.292,4.337-1.389,2.108-2.573,4.353-3.94,6.478-1.008,1.565-2.118,3.073-3.271,4.537q-3.4,4.313-6.9,8.535a10.539,10.539,0,0,1-1.675,1.361c-2.587,2.049-5.183,4.092-7.761,6.156a2,2,0,0,1-1.8.553c-2-.432-4.013-.777-6.013-1.2a6.03,6.03,0,0,1-1.1-.57,5.794,5.794,0,0,0-1.474-.583,8.926,8.926,0,0,1-4.823-2.22,8.983,8.983,0,0,0-2.041-1.017c-.688-.346-1.349-.746-2.048-1.067-1.579-.725-3.2-1.36-4.758-2.133a4.081,4.081,0,0,1-2.25-5.4c.717-2.144,1.667-4.11,3.836-5.243a33.615,33.615,0,0,0,4.613-2.775c2.258-1.689,4.362-3.586,6.569-5.346,3.353-2.671,5.337-6.477,8.092-9.642.941-1.083,1.918-2.135,2.83-3.24,1.375-1.668,2.815-3.3,4.026-5.08,1.074-1.582,1.832-3.378,2.81-5.031.913-1.545,1.95-3.016,2.9-4.537,1.456-2.326,3.007-4.541,3.718-7.322a53.4,53.4,0,0,0,1.266-9.457c.194-2.627.779-5.225,1.19-7.836a4.538,4.538,0,0,0,.162-1.066c-.285-3.107-.581-6.215-.916-9.317-.11-1.011-.339-2.011-.524-3.014a8.906,8.906,0,0,0-.313-1.41,2.6,2.6,0,0,0-3.963-1.625c-1.237.618-2.479,1.227-3.715,1.847a3.071,3.071,0,0,0-.775.457c-2.45,2.372-5.319,4.285-7.248,7.231-1.706,2.606-3.828,4.938-5.61,7.5-1.642,2.361-3.03,4.9-4.612,7.3-1.021,1.553-2.2,3-3.282,4.515-.486.686-.9,1.42-1.321,2.151-.623,1.094-1.288,2.172-1.807,3.316-1.175,2.588-3.054,4.684-4.635,6.995-1.688,2.468-2.983,5.205-4.469,7.813-1.367,2.4-2.732,4.8-4.152,7.165s-3.04,4.622-4.315,7.06c-1.412,2.7-2.542,5.548-3.765,8.343a6.732,6.732,0,0,0-.229,1.239,6.16,6.16,0,0,1-1.86,3.6,8.461,8.461,0,0,0-2.272,4c-.8,2.5-2.107,4.835-3.147,7.262-1.017,2.372-1.937,4.786-2.957,7.158-.779,1.813-1.561,3.634-2.494,5.369-1.049,1.948-2.488,3.686-2.776,6.005a5.391,5.391,0,0,1-.836,1.78,32.341,32.341,0,0,0-2.639,6.293c-.977,3.139-1.792,6.384-3.581,9.212a1.714,1.714,0,0,0,.014,2.29,4.255,4.255,0,0,1,.824,3.059q-.158,6.234-.282,12.469a46.172,46.172,0,0,0,.007,4.68,5.715,5.715,0,0,1-.735,3.087,4.945,4.945,0,0,0-.524,2.2c.063,2.336.18,4.677.436,7a27.168,27.168,0,0,0,1,5.282,10.679,10.679,0,0,1-.407,7.222,1.221,1.221,0,0,1-.925.656c-1.711-.086-3.495.079-4.774-1.549a2.9,2.9,0,0,0-1.862-.967,5.953,5.953,0,0,1-3.1-1.317,33.353,33.353,0,0,1-6.359-5.856,5.49,5.49,0,0,1-1.119-2.029,56.689,56.689,0,0,1-1.55-7.22c-.739-6.4-1.048-12.833-1.215-19.283-.139-5.361-.032-10.708.158-16.053a91.955,91.955,0,0,1,1.07-11.867c.486-2.914.843-5.811,1.1-8.746a35.548,35.548,0,0,1,1.368-5.584c.165-.641.376-1.271.532-1.913.983-4.021,1.973-8.041,2.926-12.07.51-2.154.948-4.325,1.427-6.486a4.757,4.757,0,0,1,.276-.855,32.82,32.82,0,0,0,2.16-7.407,29.271,29.271,0,0,1,1.593-6.473,42.118,42.118,0,0,0,1.857-6.3c.781-3.049,2.3-5.907,3.511-8.846.435-1.056.8-2.149,1.325-3.156a42.433,42.433,0,0,0,3.422-7.353,6.249,6.249,0,0,1,.671-1.055,11.751,11.751,0,0,0,.866-1.721c.883-2.491,1.733-4.964,3.746-6.874a6.861,6.861,0,0,0,1.167-2.385,15,15,0,0,1,.545-1.7c2.353-4.127,4.546-8.365,7.178-12.308,3-4.493,6.4-8.715,9.628-13.06a7.967,7.967,0,0,0,.694-1.054,5.4,5.4,0,0,1,2.267-2.239,23.669,23.669,0,0,1,4.79-2.428,7.593,7.593,0,0,0,2.406-1.525,2.611,2.611,0,0,1,3.174-.356c1.336.739,2.949,1.131,3.317,3.012a7.568,7.568,0,0,1-1.059,6.112,3.857,3.857,0,0,0-.569,1.992c-.047,1.47-.02,2.9-1.362,3.925a1.236,1.236,0,0,0-.353.972,34.093,34.093,0,0,0,.7,4.389,1.827,1.827,0,0,1-.135,1.681,57.846,57.846,0,0,0-3.475,4.969c-1.831,3.281-4.69,5.933-5.729,9.708a62.51,62.51,0,0,1-2.229,5.883,4.3,4.3,0,0,1-.388.813c-1.116,1.7-2.249,3.394-3.365,5.1a3.354,3.354,0,0,0-.581,1.109,10.024,10.024,0,0,1-1.7,4.7c-.2.246-.15.69-.208,1.045-.066.415.018.936-.2,1.231-1.593,2.124-1.379,4.921-2.836,7.149-1.37,2.1-2.219,4.525-3.382,6.764a26.478,26.478,0,0,0-2.14,5.494c-.347,1.324-.635,2.664-.986,3.988a4.94,4.94,0,0,1-.585,1.506,5.024,5.024,0,0,0-.718,3.644C2454.1-2016.073,2454.884-2013.55,2454.976-2010.821Zm11.65,123.554a7.011,7.011,0,0,0-5.019-.422,18.481,18.481,0,0,0-4.5,2.2,24.971,24.971,0,0,1-3.436,1.931c-1.634.562-1.984,1.786-2.167,3.189-.143,1.089.3,1.338,1.372,1.025,1.308-.383,2.037-1.456,2.939-2.31.49-.462.925-.75,1.586-.456a2.491,2.491,0,0,0,2.958-.689,9.669,9.669,0,0,1,4.056-2.564,4.614,4.614,0,0,0,1.417-.778A5.278,5.278,0,0,0,2466.626-1887.266Zm-17.489,8.991c.442-.5.873-.769.96-1.127.146-.594-.365-.812-.874-.841-.585-.033-1.152.175-1.07.844C2448.2-1879.06,2448.679-1878.775,2449.138-1878.275Z" transform="translate(0 -2.546)" fill="#fff"/>
    <path id="Path_39" data-name="Path 39" d="M2979.724-1976.942l3.75-5.487c1.4.639,2.231.008,3.07-.882,1.44-1.526,3-2.94,4.48-4.425a3.075,3.075,0,0,0,.757-3.388l-1.719,1.088c-.785-.473-.673-1-.264-1.547.754-1.012,1.535-2.006,2.271-3.03q3.154-4.388,6.275-8.8c1.081-1.533,1.06-1.548,2.938-1.164.06-.214.241-.5.165-.642-.618-1.186-.011-1.993.7-2.884.806-1.012,1.455-2.149,2.115-3.147,1.933.371,1.933.371,2.5-.943-1.165-1.375-1.13-1.352-.16-2.869.744-1.161,1.312-2.436,2.086-3.572.876-1.286,1.9-2.472,2.855-3.7a5.858,5.858,0,0,0,.54-.725c1.68-3.044,3.335-6.1,5.029-9.141.788-1.414,1.606-2.815,2.481-4.176,1-1.564,2.06-3.1,3.147-4.6.379-.527.971-.9,1.37-1.413,1.033-1.336,2.639-1.323,4.042-1.733.99-.29,2.134.656,2.753,1.566,1.572,2.309.958,4.6.058,6.85-1.117,2.785-2.3,5.552-3.642,8.236-1.28,2.568-2.811,5.011-4.19,7.532a4.722,4.722,0,0,0-.626,1.841,2.157,2.157,0,0,1-1.432,2.092,1.5,1.5,0,0,0-1.086,1.652c.036,1.059-.705,2.281.743,3.057.19.1.176.952-.009,1.321a25.7,25.7,0,0,1-1.768,2.927c-.744,1.091-1.558,2.135-2.343,3.2-.669.907-1.27,1.827-.428,2.981a14,14,0,0,0-3.755,5.731c-.861,1.983-1.808,3.987-2.841,5.89a87.029,87.029,0,0,1-5.24,7.732c-1.979,2.859-3.879,5.782-5.977,8.553a26.3,26.3,0,0,0-3.267,5.151,19.155,19.155,0,0,1-2.2,3.062c-1.155,1.614-2.292,3.239-3.426,4.866a5.414,5.414,0,0,1-.447.781c-2.879,2.875-2.008,6.22-1.052,9.469a9.77,9.77,0,0,1,.584,3.874,3.148,3.148,0,0,0,.612,2.359,6.709,6.709,0,0,1,1.291,4.24c-.046,1.623.031,3.25.021,4.874a2.251,2.251,0,0,1-.223,1.222,4.816,4.816,0,0,0-.6,3.129c.028,2.229.064,4.458.089,6.687a27.176,27.176,0,0,1-.556,4.816c-.341,2.028.026,4.17-.843,6.148.5,7.052-.553,14.068-.5,21.108.032,4.336.225,8.672.256,13.008a8.663,8.663,0,0,1-.574,2.985,2.8,2.8,0,0,1-3.03,1.777c-.536-.043-1.074-.082-1.611-.074-1.629.022-1.83-.133-2.317-1.644a15.73,15.73,0,0,0-.927-2.345c-.519-1.013-1.03-2.042-2.51-1.969-.351.018-.779-.625-1.1-1.023a12.844,12.844,0,0,0-1.608-2.135,5.925,5.925,0,0,1-2.043-4.631,39.268,39.268,0,0,1,.4-9.011,4.138,4.138,0,0,0,.108-.714c-.024-2.812-.087-5.624-.078-8.436.006-1.493.1-2.988.212-4.479.165-2.281.343-4.561.575-6.836a20.608,20.608,0,0,1,.612-3.9c.7-2.3.5-4.661.653-7,.2-3.061.349-6.125.523-9.187a4.42,4.42,0,0,0-.378-2.95c-.447.332-.8.623-1.175.865a4.6,4.6,0,0,1-1.246.669c-.9.229-1.458-.186-1.381-1.1a3.5,3.5,0,0,1,.65-1.79,1.636,1.636,0,0,0,.366-1.968c-.692-1.2-.206-2.149.444-3.168.863-1.354,1.612-2.78,2.43-4.209-.88-.676-1.645-.352-2.445-.368a3.279,3.279,0,0,0-.3.869,5.927,5.927,0,0,1-2.069,4.079,5.13,5.13,0,0,0-.861,1.119c-1.1,1.987-2.176,3.993-3.264,5.99a.694.694,0,0,1-.233.272c-2.513,1.483-2.782,4.2-3.6,6.6-.543,1.588-1.02,3.2-1.48,4.817a5.766,5.766,0,0,0-.2,1.609c.009,1.506.458,1.773,1.846,1.157.911-.4,1.288-.277,1.718.582a4.732,4.732,0,0,1-.789,5.477,20.321,20.321,0,0,1-1.6,1.725c-2.17,1.878-2.406,4.287-2.1,6.923.188,1.6.172,3.23.27,4.843.117,1.948-1.457,2.935-2.424,4.259a.963.963,0,0,1-.832.192,13.144,13.144,0,0,1-2.735-.868c-.395-.2-.608-.843-.807-1.325-.275-.663-.421-1.38-.7-2.041-.13-.31-.443-.775-.668-.773-1.321.016-1.477-1.01-1.817-1.878-.437-1.12-.828-2.259-1.294-3.366a1.864,1.864,0,0,0-.727-.936,3.007,3.007,0,0,1-1.629-2.828c-.137-3.842-.532-7.675-.135-11.537a14.714,14.714,0,0,0-.434-6.583c-.45-1.289.012-2.947.241-4.411.293-1.876.748-3.727,1.165-5.581.369-1.641.771-3.274,1.178-4.906.363-1.456.7-2.922,1.138-4.357q.864-2.845,1.866-5.648c1.241-3.454,2.491-6.906,3.818-10.326.825-2.124,1.819-4.181,2.7-6.284,1.113-2.656,1.979-5.442,3.341-7.962,1.142-2.113,1.391-4.633,3.074-6.467a1.058,1.058,0,0,0,.167-.319q1.813-4.51,3.628-9.019c.269-.665.583-1.312.854-1.976.448-1.1.871-2.208,1.319-3.308a2.258,2.258,0,0,1,.359-.622c1.928-2.223,2.786-5.022,3.834-7.656,1.425-3.579,3.208-6.956,4.944-10.372.951-1.873,1.691-3.854,2.647-5.723.845-1.654,1.977-3.166,2.769-4.842.945-2,1.6-4.138,2.508-6.157a15.894,15.894,0,0,1,1.71-2.47c.477-.672,1.218-1.284,1.383-2.024.478-2.149,2.093-3.195,3.754-4.148a16.312,16.312,0,0,1,3.538-1.32c.66-.194,1.565-.45,2.045-.158a8.11,8.11,0,0,1,2.438,2.307c1.222,1.793.782,3.81.362,5.762a1.335,1.335,0,0,1-.561.874c-1.778.781-2.263,2.452-2.732,4.049a26.708,26.708,0,0,0-.981,4.91c-.175,1.78-.023,3.588-.116,5.379a5.909,5.909,0,0,1-.548,2.226c-.972,2-2.051,3.942-3.087,5.908a.62.62,0,0,0-.085.159c-.291,1.379-.23,2.994-.959,4.078a6.25,6.25,0,0,0-1.473,3.719,4.452,4.452,0,0,1-.519,1.707c-1.449,3.368-2.928,6.725-4.385,10.09-1.093,2.527-2.218,5.042-3.242,7.6-1,2.5-1.876,5.058-2.843,7.578-.408,1.064-.912,2.091-1.364,3.139C2979.444-1978.438,2978.943-1977.876,2979.724-1976.942Zm19.721-6.7c-.027-1.086-.468-1.488-1.65-1.634-.94-.116-1.655.274-1.716,1.124a3.541,3.541,0,0,0,.483,1.45c.35.825.111,1.466-.708,1.355-1.51-.2-2.162.761-2.906,1.708-.518.658-1.083,1.281-1.559,1.967a2.969,2.969,0,0,0-.54,1.285.722.722,0,0,0,1.073.741c1.692-.994,3.475-1.876,4.578-3.635a5.275,5.275,0,0,1,1.1-1.129A4.744,4.744,0,0,0,2999.445-1983.641Zm-.723-3.824h1.57l1.314,1.625a4.562,4.562,0,0,0,1.6-4.335c-.08-.979-.327-2.2-1.7-2.333-.886,1.012-1.716,1.948-2.533,2.894A1.658,1.658,0,0,0,2998.723-1987.465Zm-15.286,25.358c.519-.355,1.018-.536,1.262-.892.98-1.425,1.941-2.873,2.791-4.377.47-.833,0-1.409-1.045-1.708l-2.936,4.731A1.93,1.93,0,0,0,2983.437-1962.107Zm31.436-51.966a10.66,10.66,0,0,0-.806,2.19,1.414,1.414,0,0,0,.643,1.135,1.563,1.563,0,0,0,1.246-.209,24.072,24.072,0,0,0,2.047-1.509c-.13-.37-.277-.785-.436-1.235C3016.012-2012.639,3016.012-2012.639,3014.873-2014.073Zm-16.069,13.939a7.535,7.535,0,0,0-3.37,4.869c.724.014,1.021-.481,1.3-1.015.41-.783.833-1.56,1.251-2.339Q2998.394-1999.377,2998.8-2000.133Zm-10.187,26.888a20.159,20.159,0,0,0,.026,2.288c.035.286.418.781.553.752a1.494,1.494,0,0,0,.938-.614C2990.625-1971.709,2990.219-1972.408,2988.617-1973.245Zm29.4-45.3c.3.918.535,1.648,1.37,2.022C3020.045-2018.254,3019.825-2018.612,3018.015-2018.55Zm-10.746,20.4c.182.625.3,1.144.99,1.083.134-.011.365-.36.339-.518C3008.5-1998.21,3008.11-1998.455,3007.27-1998.146Zm-3.894,2.819.359.366,1.082-1.053C3003.671-1996.391,3003.392-1996.033,3003.376-1995.327Zm-18,18.914c-.27-.242-.493-.523-.564-.489a1.462,1.462,0,0,0-.574.535c-.032.052.28.448.385.427C2984.856-1975.982,2985.053-1976.192,2985.381-1976.413Zm23.751-27.8c-.137.168-.326.3-.322.42s.2.243.309.364l.431-.429Z" transform="translate(-186.832 -22.158)" fill="#fff"/>
    <path id="Path_40" data-name="Path 40" d="M2786.048-1704.879a9.184,9.184,0,0,0,2.988-2.228c3.035-3.006,6.053-6.03,9.1-9.021a4.381,4.381,0,0,1,1.733-1.25c1.748-.441,2.877-1.677,4.093-2.822,1.447-1.362,2.868-2.754,4.3-4.131a8.845,8.845,0,0,1,.668-.608,1.2,1.2,0,0,1,1.78.01,1.315,1.315,0,0,1,.075,1.816c-.366.471-.851.849-1.259,1.292-.258.28-.472.6-.81,1.042,1.455.456,2.569-.145,3.664-.474,2.581-.775,4.5.092,5.338,2.617a3.235,3.235,0,0,0,2.158,2.419,1.738,1.738,0,0,1,1.055,2.624,3.9,3.9,0,0,0,.451,3.928,2.434,2.434,0,0,1,.451,2.023c-.447,1.678-.813,3.386-1.394,5.017a20.289,20.289,0,0,0-1.137,4.869,26.422,26.422,0,0,1-1.476,5.376c-1.145,3.527-2.351,7.035-3.53,10.551-.095.285-.1.652-.292.846-1.256,1.3-1.336,3.049-1.887,4.621-.375,1.073-.859,2.109-1.3,3.159-1.326,3.158-2.757,6.276-3.951,9.484a56.48,56.48,0,0,1-3.967,8.863,3.307,3.307,0,0,0,.1,3.7c.988,1.685.857,2.2-.727,3.4a9.159,9.159,0,0,0-3.366,5.6c-.406,1.87-.605,3.784-.922,5.674a7.632,7.632,0,0,1-.4,1.387c-.733,1.954-1.787,2.328-3.61,1.33a4.848,4.848,0,0,0-1.637-.735,4.109,4.109,0,0,1-3.39-2.891,33.061,33.061,0,0,1-1.429-4.633,2.691,2.691,0,0,0-2.181-2.273c-1.934-.406-2.1-.59-2.389-2.556a30.437,30.437,0,0,1,1.573-13.88c1.318-4.056,2.862-8.044,4.433-12.012,1.216-3.069,2.643-6.054,3.948-9.089,1.021-2.377,1.991-4.775,3-7.159a27.353,27.353,0,0,1,1.676-3.795c1.917-3.115,2.389-6.641,3.106-10.1.113-.548.121-1.22-.545-1.336a2.677,2.677,0,0,0-1.442.415c-.243.118-.388.45-.56.7a36.536,36.536,0,0,1-5.479,5.621,65.4,65.4,0,0,0-10.977,12.408c-.615.96-1.06,2.027-1.587,3.042a6.484,6.484,0,0,1-.692,1.261,10.3,10.3,0,0,0-2.3,4.824,18.586,18.586,0,0,1-1.063,2.829,4.036,4.036,0,0,0-.187,2.466,2.459,2.459,0,0,1-.457,1.475c-.315.576-.778,1.07-1.134,1.628a1.915,1.915,0,0,0-.219,1.871,2.336,2.336,0,0,1-.028,1.7c-.694,1.383-1.608,2.653-2.327,4.025-.975,1.856-1.842,3.768-2.766,5.65a15.642,15.642,0,0,1-.777,1.421,9.735,9.735,0,0,0-1.343,3.271,19.642,19.642,0,0,1-1.9,4.466c-.987,1.993-2.07,3.939-3.1,5.91-.194.371-.312.781-.508,1.151q-.963,1.818-1.96,3.618c-.29.52-.643,1.006-.944,1.52a18.782,18.782,0,0,1-6.081,5.992,1.109,1.109,0,0,1-1.49-.1,8.551,8.551,0,0,1-1.584-1.464,4.351,4.351,0,0,0-2.762-1.892c-2.283-.594-3.517-2.167-4.426-4.158a3.464,3.464,0,0,0-.7-1.241,3.035,3.035,0,0,1-.994-2.953,37.8,37.8,0,0,1,1.3-6.33q2.064-6.143,4.567-12.135a51.274,51.274,0,0,1,3.173-5.652,7.229,7.229,0,0,0,.859-1.361c1.424-4.858,4.084-9.229,5.515-14.083.186-.628.6-1.185.814-1.807.449-1.3.853-2.617,1.243-3.935.547-1.842,1.068-3.691,1.6-5.537.447-1.552.889-3.1,1.347-4.653a36.318,36.318,0,0,1,1.6-5.16c1.38-2.946,1.654-6.148,2.493-9.214.491-1.8.927-3.607,1.42-5.4,1.114-4.06,2.354-8.089,3.337-12.181.828-3.444,1.467-6.942,2.007-10.445.669-4.335,1.181-8.7,1.7-13.052.292-2.444.433-4.906.7-7.354.153-1.435.485-2.854.608-4.29.29-3.417.477-6.844.756-10.263.268-3.29.529-6.583.928-9.858.269-2.205,1.67-2.92,3.769-2.175a24.573,24.573,0,0,0,2.763.828,4.581,4.581,0,0,1,3.682,3.787c.605,3.28,2.319,6.063,3.714,8.969a18.721,18.721,0,0,1,1.992,6.328,32.281,32.281,0,0,1,.074,6.851,70.963,70.963,0,0,0-.112,9.559,6.41,6.41,0,0,1,.051,1.077,74.482,74.482,0,0,1-1.376,7.816,28.714,28.714,0,0,0-.925,8.935,3.829,3.829,0,0,1-.893,3,3.937,3.937,0,0,0-.977,3.011,10.906,10.906,0,0,1-.7,4.039,9.665,9.665,0,0,0-.34,4.449,13.9,13.9,0,0,1-1.2,7.891A1.934,1.934,0,0,0,2786.048-1704.879Zm.36,6.4c-.8-.033-1.979,1.41-1.732,2.033a1.084,1.084,0,0,0,.771.564,1.758,1.758,0,0,0,1.375-2.227C2786.723-1698.287,2786.5-1698.4,2786.408-1698.476Z" transform="translate(-114.409 -115.516)" fill="#fff"/>
    <path id="Path_41" data-name="Path 41" d="M2711.612-1760.257a3.491,3.491,0,0,1-1.263,3.124,4.34,4.34,0,0,0-.971,1.064c-2.185,3.426-5.115,6.233-7.838,9.187a81.773,81.773,0,0,1-6.661,5.794c-1.765,1.538-3.466,3.148-5.24,4.675-.952.82-2,1.532-3,2.29-1.1.832-2.229,1.637-3.306,2.5a5.274,5.274,0,0,0-.7,1c-.36.473-.653,1.088-1.135,1.358a4.857,4.857,0,0,0-2.017,2.236,7.256,7.256,0,0,1-2.417,2.567,13.83,13.83,0,0,0-2.959,3.357,2.68,2.68,0,0,0-.009,2.054,64.58,64.58,0,0,0,2.472,6.186,56.919,56.919,0,0,1,3.382,8.9,49.187,49.187,0,0,1,1.5,10.5c.19,3,.723,5.977.919,8.977a69.276,69.276,0,0,1-.457,14.96,4.1,4.1,0,0,0,.258,2.054,2.805,2.805,0,0,1-.211,3.067c-1.687,2.031-2.122,4.518-2.8,6.953a7.411,7.411,0,0,1-1.8,3.239,4.177,4.177,0,0,0-1.28,4.419,4.038,4.038,0,0,1-.765,3.543c-1.824,2.81-3.941,5.445-5.211,8.593a1.573,1.573,0,0,1-.392.6c-2.1,1.8-3.267,4.291-4.893,6.442-1.416,1.87-2.952,3.647-4.418,5.479a15.521,15.521,0,0,0-1.018,1.489,5.383,5.383,0,0,1-3.089,2.625,1.874,1.874,0,0,0-1.412,1.458,4.193,4.193,0,0,1-2.489,2.613c-2.509,1.253-5.025,2.567-6.71,5.018a8.442,8.442,0,0,1-2.21,1.829,25.33,25.33,0,0,1-6.04,2.643,2.948,2.948,0,0,1-1.779.093c-2.03-.643-4.207-1.089-5.685-2.8-.811-.938-1.907-.886-2.914-1.164-.807-.223-1.676-.249-2.458-.529-.375-.134-.61-.653-.909-1a5.483,5.483,0,0,1,1.062-.783c1.1-.464,2.263-.794,3.341-1.3a1.441,1.441,0,0,0,.716-1.092,1.441,1.441,0,0,0-.8-1.026,7.5,7.5,0,0,0-4.543-.6,19.169,19.169,0,0,1-4.662-.01c-1.206-.024-2.411-.06-3.615-.079-2.125-.034-2.913-.614-3.605-2.592a17.012,17.012,0,0,0-.808-1.673l-1.7,1.182a24.742,24.742,0,0,1-2.259-1.443,1.494,1.494,0,0,1-.422-1.059,5.763,5.763,0,0,1,.249-1.309c-1.072-.6-1.987-1.066-2.858-1.6a26.016,26.016,0,0,1-2.837-1.9,9.639,9.639,0,0,1-3.064-4.59c-.963-2.9-2.628-5.527-3.265-8.578a14.307,14.307,0,0,1,.52-8.5c.4-1,.758-2.033,1.063-3.071a17.114,17.114,0,0,1,2.968-5.74,24.024,24.024,0,0,0,1.867-2.852,20.771,20.771,0,0,1,5.015-6.07,36.915,36.915,0,0,0,3.037-3.083q3.92-4,7.846-8c.126-.128.231-.326.383-.373,1.746-.542,2.594-2.039,3.68-3.321,1.784-2.1,3.6-4.191,5.573-6.116a15.283,15.283,0,0,1,4.312-3.153,9.769,9.769,0,0,0,2.5-1.6c.758-.653,1.326-1.523,2.073-2.194a40.555,40.555,0,0,1,7.826-5.912,4.841,4.841,0,0,0,1.323-1.411c.546-.711,1.03-1.469,1.593-2.281,1.481.574,2.234-.282,2.964-1.337a13.187,13.187,0,0,1,1.589-1.66c.536-.538,1.068-1.081,1.626-1.6.421-.388.83-.948,1.329-1.064,2.262-.528,3.369-2.427,4.856-3.878a11.517,11.517,0,0,1,1.234-4.179c.221-.52-.324-1.482-.721-2.119a11.9,11.9,0,0,0-1.6-1.709c-1.825-1.916-3.608-3.875-5.484-5.741-1.836-1.825-3.82-3.5-5.633-5.347a32.824,32.824,0,0,1-2.506-3.256,17.3,17.3,0,0,0-1.1-1.417,22.022,22.022,0,0,0-2.193-2.149c-2.031-1.623-2.591-3.793-2.607-6.256a29.052,29.052,0,0,0-.349-4.3,13.453,13.453,0,0,1,.913-7.239,56.2,56.2,0,0,1,3.052-5.91c.725-1.315,1.7-2.51,2.307-3.87a13.39,13.39,0,0,1,5.742-5.839,21.793,21.793,0,0,1,7.477-3.054,5.53,5.53,0,0,1,4.7,1.146,14.827,14.827,0,0,1,5.788,12.269,31.145,31.145,0,0,1-.25,3.6,2.648,2.648,0,0,1-2.454,2.471,2.532,2.532,0,0,1-2.872-1.944c-.34-1.333-.439-2.725-.668-4.088-.21-1.243-.393-2.5-.7-3.716a1.758,1.758,0,0,0-2.065-1.375c-1.948.271-4.015.392-5.093,2.495a2.3,2.3,0,0,1-.578.691,18.424,18.424,0,0,0-5.5,8.906c-.407,1.258-.907,2.485-1.3,3.747-.266.855-.423,1.744-.627,2.618a3.381,3.381,0,0,0,1.28,3.534,4.178,4.178,0,0,0,1.334.89c2.177.679,3.612,2.3,5.151,3.826s3.169,2.95,4.747,4.434c3.112,2.931,6.237,5.847,9.307,8.82,1.5,1.453,1.491,1.5,3.337.413,1.242-.733,2.509-1.428,3.738-2.181a5.978,5.978,0,0,0,1.565-1.2c.759-.937,1.5-1.729,2.866-1.414a1.162,1.162,0,0,0,.814-.311c2.073-1.708,4.123-3.443,6.19-5.156.643-.533,1.348-.992,1.973-1.544a40.515,40.515,0,0,0,3.145-2.933,68.749,68.749,0,0,1,7.886-7.374c1.82-1.45,3.43-3.164,5.134-4.759,1.627-1.521,3.226-3.074,4.89-4.554C2709.832-1760.459,2710.155-1760.48,2711.612-1760.257Zm-87.041,131.278a12.033,12.033,0,0,0,6.307-1.447c.2-.119.476-.1.687-.209,1.491-.755,3.045-1.418,4.449-2.312a23.661,23.661,0,0,0,6.782-6.87,83.327,83.327,0,0,1,8.449-10.732,29.276,29.276,0,0,0,4.794-7.387c2.022-4.083,3.882-8.262,5.509-12.516a63.8,63.8,0,0,0,3-10.189,81.243,81.243,0,0,0,.961-9.694c.176-2.27.253-4.548.33-6.825.03-.9-.043-1.8-.1-2.7-.055-.839-.169-1.673-.231-2.512-.133-1.86-.189-3.727-.4-5.578a25.382,25.382,0,0,0-.742-3.534c-.181-.689-.408-1.439-1.276-1.594-.826-.147-1.116.551-1.545,1.037a33.615,33.615,0,0,1-2.668,2.922c-1.784,1.6-3.68,3.067-5.5,4.622-.5.425-.865,1-1.356,1.44a11.632,11.632,0,0,1-2.641,2.12,9.992,9.992,0,0,0-3.786,2.969,24.609,24.609,0,0,1-3.233,2.824c-1.6,1.43-3.45,2.474-5.073,3.827-1.006.841-1.767,1.967-2.7,2.911a23.523,23.523,0,0,1-4.4,3.927,14.244,14.244,0,0,0-4.418,3.362c-1.975,2.634-3.786,5.466-6.833,7.084a2.7,2.7,0,0,0-.661.611c-1.616,1.776-3.343,3.468-4.812,5.358-2.431,3.131-4.7,6.389-7.026,9.6a9.532,9.532,0,0,0-.733,1.244c-.879,1.711-1.741,3.429-2.612,5.144a14.7,14.7,0,0,0-1.843,6.908c.107,5.189,3.258,8.436,7.478,10.883.772.448,1.522.934,2.266,1.43,1.338.9,2.418,2.25,4.117,2.514C2618.265-1629.856,2621.421-1629.43,2624.572-1628.979Z" transform="translate(-62.883 -117.966)" fill="#fff"/>
    <path id="Path_42" data-name="Path 42" d="M2751.125-1946.746a1.432,1.432,0,0,1,.1-1.979c1.209-1.571,2.384-3.171,3.643-4.7,4.113-5,9.012-9.185,13.966-13.3a23.888,23.888,0,0,0,3.951-3.4,2.631,2.631,0,0,1,1.6-.677c1.189-.172,2.4-.223,3.6-.3a8.7,8.7,0,0,1,4.057.642c1.267.538,2.648.8,3.962,1.236a3.133,3.133,0,0,1,1.4.736c1.124,1.318,2.1,2.76,3.221,4.08,1.607,1.893,2.291,4.2,3.118,6.459.743,2.031,1.733,3.974,2.419,6.022a57.293,57.293,0,0,1,1.586,6.088c.355,1.643.507,3.329.81,4.984a4.444,4.444,0,0,0,.592,1.5,4.907,4.907,0,0,1-.055,5.4c-.948,1.746-1.874,3.534-1.494,5.767a37.934,37.934,0,0,1,.105,5.593,8.424,8.424,0,0,1-1.214,5,4.473,4.473,0,0,0-.7,2.031c-.22,2.852-1.514,5.288-2.8,7.743-1.3,2.5-2.579,5.013-3.873,7.518a8.694,8.694,0,0,1-.629,1.1,19.014,19.014,0,0,0-3.469,9.9,9.257,9.257,0,0,1-.648,2.611c-1.459,3.739,1.138,6.137,3.817,6.548,2.552.389,5.11.759,7.678,1.016a7.573,7.573,0,0,0,2.257-.435,4.783,4.783,0,0,0,.486-.236,2.46,2.46,0,0,1,2.961.6,2.544,2.544,0,0,1-.243,3.175,13.513,13.513,0,0,1-2.9,2.4c-1.968,1.159-4.042,2.139-6.083,3.173a4.724,4.724,0,0,1-1.015.3c-.865.212-1.729.422-2.6.613-.519.114-1.144.418-1.551.243-2.167-.932-4.683-1.14-6.326-3.2a11.26,11.26,0,0,0-3.009-2.53,7.175,7.175,0,0,1-1.743-2.236c-.23-.34-.278-.8-.492-1.156-1.024-1.7-2.337-2.044-3.915-.846-.988.75-1.849,1.423-3.221,1.2-.478-.077-1.062.478-1.591.758-1.285.685-1.36.569-2.542-.241a13.982,13.982,0,0,0-3.066-1.378,1.154,1.154,0,0,0-1.011.217c-1.355,1.461-3.638,1.654-4.716,3.523a1.825,1.825,0,0,1-1.38.65,5.125,5.125,0,0,0-4,1.775c-1.721,1.948-4.04,1.818-6.205,1.57a3.132,3.132,0,0,1-2.505-2.972,2.831,2.831,0,0,0-1.414-2.335,5.974,5.974,0,0,1-1.453-1.762c-.306-.436-.4-1.18-.789-1.372-2.106-1.033-2.622-3.392-4.2-4.852a4.17,4.17,0,0,1-.8-1.4q-1.021-2.3-1.983-4.626a6.953,6.953,0,0,1-.494-1.546c-.9-5.662-.926-11.24,1.168-16.726,1.67-4.376,3.185-8.815,5.187-13.051,1.233-2.609,2.735-5.092,4.1-7.638,1.253-2.331,2.478-4.677,3.738-7,.658-1.213,1.4-2.378,2.034-3.6a27.669,27.669,0,0,0,1.207-2.807A6.587,6.587,0,0,1,2751.125-1946.746Zm33.1-4.625.172-.021q-.423-3.569-.851-7.138c-.077-.643-.355-1.374-1.053-1.2a6.177,6.177,0,0,0-3.768,1.915c-.54.708-.96,1.505-1.492,2.219-.438.591-.7,1.33-.265,1.838,1.135,1.326.664,2.545.037,3.828a3.169,3.169,0,0,0-.278.856c-.57,3.346-2.665,5.8-5.086,7.858a59,59,0,0,0-4.13,4.229c-1.578,1.636-2.844,3.573-4.428,5.2a26.306,26.306,0,0,0-4.312,6.4,3.859,3.859,0,0,1-.894,1.324,15.439,15.439,0,0,0-4,5.244c-1.516,2.845-3.068,5.673-4.632,8.494-.466.841-.891,1.708-1.293,2.582-1.455,3.166-3,6.3-4.293,9.529a42.765,42.765,0,0,0-1.542,5.736,3.5,3.5,0,0,0,1.129,3.754c.866.747,1.648,1.588,2.5,2.354a1.939,1.939,0,0,0,2.351.31,13.672,13.672,0,0,0,2.625-1.865,176.565,176.565,0,0,0,14.56-15.542,49.978,49.978,0,0,1,3.6-4.22,23.861,23.861,0,0,0,5.2-7.1q3.813-8.172,7.161-16.558a35.746,35.746,0,0,0,2.188-7.8c.485-3.134.466-6.344.659-9.523C2784.149-1949.564,2784.181-1950.468,2784.223-1951.37Z" transform="translate(-110.685 -49.495)" fill="#fff"/>
    <path id="Path_43" data-name="Path 43" d="M2919.643-1661.022a4.7,4.7,0,0,1,1.445-3.2,2.565,2.565,0,0,0,.872-2.591,3.018,3.018,0,0,1,.05-1.252c.378-2,.763-4.007,1.19-6,.15-.7.432-1.369.639-2.057.309-1.029.565-2.075.912-3.091.34-1,.764-1.965,1.139-2.917l.068.02c.414-3.3-.173-6.268-.5-9.412-.079.066-.16.132-.236.2-.335-.382-.861-.714-.974-1.152-.554-2.149-1.057-4.315-1.459-6.5-.257-1.388-.868-2.034-2.268-1.965-.418.02-.833.13-1.25.19a1.145,1.145,0,0,1-1.374-.851c-.79-2-.815-1.989-2.841-1.465-.351.091-.7.172-1.059.239a3.2,3.2,0,0,0-2.552,2.712,11.68,11.68,0,0,1-.495,1.909c-1.36,3.037-2.593,6.1-2.447,9.521a4.573,4.573,0,0,1-.21,1.243c-.772,3.217-1.559,6.429-2.33,9.646-1.106,4.62-1.773,9.338-3.314,13.863-.712,2.1-1.1,4.3-1.614,6.462a11.2,11.2,0,0,0-.393,2.292c-.042,1.777-.168,3.506.995,5.165a22.171,22.171,0,0,0,1.847,2.8c1.356,1.435,5.559,2.339,7.4,1.655a20.148,20.148,0,0,1,3.452-.908,2.025,2.025,0,0,1,.8,0c1.64-4.585,2.5-9.723,4.491-14.314C2919.635-1660.856,2919.639-1660.936,2919.643-1661.022Z" transform="translate(-170.958 -143.944)" fill="#fff"/>
    <path id="Path_44" data-name="Path 44" d="M3006.893-1665.071a.7.7,0,0,1-.165-.436c0-.031.225-.157.278-.125a2.284,2.284,0,0,1,.393.419C3007.161-1665.14,3006.959-1665.019,3006.893-1665.071Z" transform="translate(-208.386 -157.251)" fill="#fff"/>
    <path id="Path_45" data-name="Path 45" d="M2991.021-1733.658a12.243,12.243,0,0,1,4.635-3.253,1.53,1.53,0,0,1,.87-.13.978.978,0,0,1,.689.418.914.914,0,0,1-.233.771,5.258,5.258,0,0,1-1.017.719q-2.4,1.515-4.818,3.012a3.759,3.759,0,0,1-.827.179A7.647,7.647,0,0,1,2991.021-1733.658Z" transform="translate(-202.598 -132.059)" fill="#fff"/>
    <path id="Path_46" data-name="Path 46" d="M2959.753-1580.763a1.708,1.708,0,0,1,2.611-.775c-.007,1.149-1.006,1.644-1.485,2.46C2959.528-1579.786,2959.384-1580.022,2959.753-1580.763Z" transform="translate(-191.755 -186.808)" fill="#fff"/>
    <path id="Path_47" data-name="Path 47" d="M3023.677-1665.085c-.28-1.228-.59-2.449-.861-3.679a1.6,1.6,0,0,0-1.168-1.218,4.053,4.053,0,0,1-1.876-1.2,1.7,1.7,0,0,0-1.616-.883c-1.5.08-2.994.2-4.489.321a17.591,17.591,0,0,0-6.984,1.561,4.743,4.743,0,0,1-1.235.223c-3.591.726-7.2,1.377-10.762,2.217-2.1.495-4.118,1.3-6.181,1.951q-5.153,1.615-10.319,3.2c-.4.124-.833.149-1.232.278-2.4.771-4.827,1.49-7.189,2.372-1.226.457-2.3,1.329-3.517,1.809-2.377.934-4.812,1.72-7.219,2.573-2.381.844-4.813,1.574-7.126,2.576-2.91,1.26-6.068,2.022-8.585,4.128a2.7,2.7,0,0,1-1.476.54c-1.4.1-1.945-.6-1.4-1.869,1.145-2.642,2.419-5.228,3.587-7.86a7.743,7.743,0,0,0,.678-2.373,2.8,2.8,0,0,1,.967-2.049,6.333,6.333,0,0,0,2.488-3.857,2.578,2.578,0,0,1,.637-1.284c1.348-1.4,1.837-3.206,2.524-4.937,1.312-3.3,3.255-5.942,6.931-7.052a8.335,8.335,0,0,0,4.108-2.167,1.432,1.432,0,0,1,1.3-.1,2.37,2.37,0,0,0,2.541-.295c1.182-.826,2.406-1.595,3.573-2.441,1.56-1.13,3.12-2.265,4.607-3.485a27.855,27.855,0,0,0,3.693-3.4c1.81-2.142,3.318-4.544,5.174-6.641a8.069,8.069,0,0,0,2.016-4.129,2.844,2.844,0,0,1,.5-1.318,9.149,9.149,0,0,0,1.651-3.173,33.625,33.625,0,0,1,1.6-4.22c1.759-3.6,1.543-7.219.255-10.865a29.793,29.793,0,0,1-1.539-8.259c-.11-1.875-.156-3.885-1.515-5.271a21.258,21.258,0,0,0-4.459-3.283c-1.159-.681-2.22-1.228-1.9-2.726-1.845-1.017-3.567-1.986-5.312-2.913a2.243,2.243,0,0,0-1.342-.405c-2.5.632-5.035,1.157-6.971,3.117-1.9,1.921-3.652,4-6.022,5.42a10.92,10.92,0,0,0-4.2,3.8,1.841,1.841,0,0,1-.5.519,13.881,13.881,0,0,0-3.236,4.081c-1.372,2.263-2.734,4.533-4.106,6.8-2.465,4.066-4.939,8.127-6.379,12.709a4.527,4.527,0,0,1-.585,1.316,4.789,4.789,0,0,1-.86.813c.323,3.144.909,6.113.5,9.412l-.069-.019c-.375.951-.8,1.919-1.138,2.917-.346,1.016-.6,2.062-.912,3.091-.206.688-.489,1.358-.639,2.056-.426,1.994-.812,4-1.19,6a3.025,3.025,0,0,0-.049,1.252,2.564,2.564,0,0,1-.871,2.591,4.7,4.7,0,0,0-1.446,3.2c0,.086-.008.166-.011.242-1.994,4.592-2.851,9.729-4.491,14.314.591.131.888.624.938,1.487a6.908,6.908,0,0,1-.123,1.434c-.625,4.159-1.936,8.2-2.207,12.417-.171,2.653-1.774,4.092-4.068,4.964a2.872,2.872,0,0,0-1.929,1.655c1.152.853,1.222.941,1.882.416,1.451-1.159,3.225-1.061,4.842-1.1,1.324-.033,1.94,1.439,2.574,2.517a1.5,1.5,0,0,1-.441,2.083,3.452,3.452,0,0,0-.5.743,2.789,2.789,0,0,0,2.8-.152c2.068-1.05,4.244-1.89,6.547-2.89.547,1.565,1,2.868,1.537,4.406,1.566-.8,3.014-1.509,4.415-2.3a2.161,2.161,0,0,0,.944-1.042,27.362,27.362,0,0,0,.874-3.279c.238-1.106.64-1.626,1.379-1.592.76.035,1.144.567,1.2,1.674.006.12-.021.24-.026.36a1.118,1.118,0,0,0,.9,1.194,1.056,1.056,0,0,0,1.325-.668,4.235,4.235,0,0,0,.336-1.531c.027-.6-.146-1.2-.12-1.8.041-.969.556-1.318,1.559-1.148.282.048.559.122.8.176,1.631-2.634,3.094-3.708,5.383-2.592.124.4.285.852.4,1.314.6,2.423,1.282,2.685,3.307,1.243a2.534,2.534,0,0,0,.427-.5c-.146-.649-.3-1.225-.4-1.81a2.735,2.735,0,0,1,1.734-3.447c.321-.162.707-.2,1.012-.381.562-.333,1.142-.694.977-1.7a9.274,9.274,0,0,0-5.079.1,7.616,7.616,0,0,0-3.245,1.84,7.718,7.718,0,0,1-3.074,2.057c-.936.384-1.838.852-2.769,1.289l-1.5-.956a9.425,9.425,0,0,0-1.128,1,7.452,7.452,0,0,1-3.478,2.46,54.69,54.69,0,0,0-7.622,3.207,44.914,44.914,0,0,1-4.575,1.781c0-.859.043-1.276-.008-1.681-.217-1.755,1.109-2.8,2.224-3.388a12.575,12.575,0,0,0,2.739-1.873,8.064,8.064,0,0,1,1.707-.982c.474-.253.981-.447,1.436-.727,1.623-1,3.7-.949,5.2-2.253.208-.18.7-.035,1.059-.034a5.649,5.649,0,0,0,3.232-.915c1.3-.843,2.434-1.94,4.062-2.272,1.552-.316,3.248-.417,4.372-1.827a.863.863,0,0,1,.492-.206c3.116-.577,5.872-2.062,8.683-3.416a8.818,8.818,0,0,1,1.208-.329c1.775-.554,3.6-1,5.308-1.712,1.909-.8,4.086-.9,5.781-2.231a.321.321,0,0,1,.176-.032c2.363-.02,4.472-1.425,6.881-1.255.365.026.753-.327,1.136-.5a21.693,21.693,0,0,1,3.445-1.473c3.262-.8,6.564-1.43,9.848-2.137a1.968,1.968,0,0,0,.847-.292c1.788-1.517,3.654-.7,5.483-.178.738.211.907.914.5,1.616-.148.256-.4.45-.568.7-.826,1.237-.368,2.292,1.088,2.392,1.317.091,2.642.043,3.962.1a4.314,4.314,0,0,1,1.929.288c1.567.94,3.02.478,4.488-.12C3023.8-1663.354,3023.981-1663.748,3023.677-1665.085Zm-66.9-30.252a31.761,31.761,0,0,0,1.961-6.928,8.014,8.014,0,0,0-.118-3.215c-.568-2.878-1.272-5.729-1.9-8.6a14.539,14.539,0,0,1-.536-3.168c.023-2.172,1.464-3.737,2.663-5.367.885-1.2,1.847-2.35,2.8-3.5a8.287,8.287,0,0,1,1.378-1.417,17.606,17.606,0,0,0,3.4-2.916,2.062,2.062,0,0,1,1.264-.579,5.858,5.858,0,0,0,3.727-1.989,9.28,9.28,0,0,1,1.317-1.234,3.19,3.19,0,0,1,5.323,2.287c.149,1.194.306,2.385.465,3.621-.481,3.9-.476,7.916-2.527,11.5a2.979,2.979,0,0,0-.413,1.185,13.9,13.9,0,0,1-2.313,6.187c-.492.8-1.329,1.376-1.868,2.153-1.574,2.27-3.065,4.6-4.61,6.887a12.4,12.4,0,0,1-3.014,3.275,31.463,31.463,0,0,0-4.12,4.24c-.656.7-1.228,1.494-1.94,2.13-.821.731-1.785.362-1.728-.717A10.269,10.269,0,0,1,2956.774-1695.337Z" transform="translate(-178.726 -129.362)" fill="#fff"/>
    <path id="Path_48" data-name="Path 48" d="M2995.964-1735.132a5.258,5.258,0,0,0,1.017-.719.914.914,0,0,0,.233-.771.978.978,0,0,0-.689-.418,1.53,1.53,0,0,0-.87.13,12.243,12.243,0,0,0-4.635,3.253,7.647,7.647,0,0,0-.7,1.716,3.759,3.759,0,0,0,.827-.179Q2993.563-1733.614,2995.964-1735.132Z" transform="translate(-202.598 -132.059)" fill="#fff"/>
    <path id="Path_49" data-name="Path 49" d="M2960.879-1579.078c.479-.817,1.478-1.312,1.485-2.46a1.708,1.708,0,0,0-2.611.775C2959.384-1580.022,2959.528-1579.786,2960.879-1579.078Z" transform="translate(-191.755 -186.808)" fill="#fff"/>
    <path id="Path_50" data-name="Path 50" d="M3007.005-1665.632c-.052-.032-.282.094-.278.125a.7.7,0,0,0,.165.436c.066.052.268-.069.5-.142A2.284,2.284,0,0,0,3007.005-1665.632Z" transform="translate(-208.386 -157.251)" fill="#fff"/>
    <path id="Path_51" data-name="Path 51" d="M2690.051-2029.685a14.672,14.672,0,0,1,.344,1.725,4.126,4.126,0,0,1-.071,1.774c-1.113,2.737-1.241,5.729-2.268,8.484-.293.784-.445,1.62-.728,2.408-.832,2.315-1.881,4.572-2.5,6.941a64.5,64.5,0,0,0-1.179,7.295c-.2,1.428-.273,2.873-.452,4.3a3.01,3.01,0,0,1-.436,1.161,12.018,12.018,0,0,0-1.6,5.133,2.909,2.909,0,0,1-.248,1.225,6.472,6.472,0,0,0-.944,3.947,2.953,2.953,0,0,1-.836,1.73,4.739,4.739,0,0,0-1.236,3.3,36,36,0,0,1-1.714,10.848c-1.433,4.925-1.524,9.964-2.234,14.946-.516,3.624-.848,7.274-1.32,10.9a82.765,82.765,0,0,0,.141,19.074,2.977,2.977,0,0,0,2.294,2.893c2.086.546,4.2.97,6.291,1.511a25.994,25.994,0,0,1,3.944,1.251c1.242.544,1.543,3.163.294,4.088a9.814,9.814,0,0,0-3.29,4.561,2.181,2.181,0,0,1-2.221,1.261,19.66,19.66,0,0,0-3.055.184,1.99,1.99,0,0,1-2.17-.934,2.443,2.443,0,0,0-2.376-1.241,6.268,6.268,0,0,1-2.7-.827,24.155,24.155,0,0,1-3.064-1.889,5.1,5.1,0,0,1-1.25-1.267,4.446,4.446,0,0,0-1.952-1.75,4.886,4.886,0,0,1-1.693-1.792,32.075,32.075,0,0,1-2.894-4.5,15.545,15.545,0,0,1-1.528-4.951,121.863,121.863,0,0,1-.827-16.039c.117-3.781.178-7.567.385-11.345.1-1.731.527-3.442.732-5.171.425-3.586.706-7.19,1.226-10.762.379-2.6,1.051-5.165,1.582-7.747a9.653,9.653,0,0,0,.288-1.781,49.035,49.035,0,0,1,1.659-9.922c.762-3.428,1.648-6.829,2.452-10.249.686-2.919,1.265-5.866,2.015-8.769.479-1.854,1.169-3.656,1.791-5.47.718-2.1,1.46-4.183,2.2-6.271.382-1.072.862-2.114,1.171-3.206.7-2.485,1.438-4.969,1.956-7.5a29.094,29.094,0,0,1,2.013-6.322c.618-1.356.957-2.839,1.448-4.256.314-.907.7-1.789,1.013-2.7,1.115-3.242,2.248-6.479,3.3-9.741,1.035-3.2,1.932-6.446,2.988-9.638,1.09-3.3,2.442-6.513,3.418-9.843,1.056-3.605,2.9-6.856,4.438-10.222,2.216-4.857,3.428-9.975,4.963-15.019a30.617,30.617,0,0,1,1.586-3.606,8.428,8.428,0,0,0,.549-1.13,2.954,2.954,0,0,1,1.832-1.987c1.129-.554,1.945-1.728,2.933-2.593a17.329,17.329,0,0,1,2.26-1.77c1.33-.819,2.142-.643,3.377.545a2.34,2.34,0,0,1,.516,3.223c-.106.21-.228.411-.4.728.356.251.684.477,1.006.713.284.207.559.424.937.713-1.081,2.116-1.162,4.4-1.435,6.661a7.835,7.835,0,0,1-.687,2.235c-.865,1.916-1.83,3.787-2.689,5.7-.466,1.038-.788,2.138-1.189,3.2-.318.841-.622,1.69-1,2.506a16.251,16.251,0,0,0-1.492,5.158,14.5,14.5,0,0,1-1.417,4.424c-.8,1.724-1.861,3.324-2.777,5a12.2,12.2,0,0,0-.684,1.657c-.454,1.228-.915,2.453-1.321,3.7a3.468,3.468,0,0,0-.313,1.719,2.706,2.706,0,0,1-.968,2.886,3.287,3.287,0,0,0-.677,1.238c-.279.725-.5,1.472-.738,2.211-.2.613-.53,1.243.3,1.831.868-1.514,1.7-2.983,2.552-4.437a3.063,3.063,0,0,1,.694-.823,6.544,6.544,0,0,0,2.273-4.186,4.762,4.762,0,0,1,.453-1.029c.262.173.444.239.443.3-.04,1.613-.086,3.226-.163,4.838a2.438,2.438,0,0,1-.263.854c-.9,1.97-1.8,3.934-2.707,5.9a1.3,1.3,0,0,0-.139.332c-.3,2.073-.689,4.139-.878,6.223s-.542,4.061-2.213,5.5a3.151,3.151,0,0,0-.849,2.65c-.013.687.013,1.34-.673,1.739a2.108,2.108,0,0,0-.966,2.177c.016.3.018.6.013.9A4.2,4.2,0,0,1,2690.051-2029.685Zm-8.928,22.944-1.4-1.61c-1.812,1.554-1.967,2.253-.842,3.651Zm-5.539-8.472-.627-.078c-.321,1.173-.707,2.335-.919,3.528-.053.3.446.695.691,1.046.293-.238.823-.46.839-.715C2675.649-2012.688,2675.592-2013.952,2675.583-2015.214Zm-8.658,56.345c-.547,1.224-.358,2.436.4,2.938a1.087,1.087,0,0,0,1.589-.159.934.934,0,0,0-.177-1.414C2668.157-1957.972,2667.547-1958.4,2666.926-1958.869Zm24.166-86.208c1.573-.825,1.8-1.821.774-2.871C2691.587-2046.912,2691.339-2045.994,2691.092-2045.076Zm-21.92,71.554c-.55.958-.936,1.568-.185,2.312C2669.859-1971.856,2669.617-1972.507,2669.171-1973.522Zm-3.521-.006-.76-.708c-.175.2-.522.432-.487.575.067.271.352.49.548.73Zm14.009-51.8-.426.074.208,1.558C2680.066-2024.286,2680.189-2024.827,2679.659-2025.332Z" transform="translate(-84.866 0)" fill="#fff"/>
    <path id="Path_52" data-name="Path 52" d="M2825.908-1581.475a2.45,2.45,0,0,1-1.364,2.533,23.749,23.749,0,0,1-7.2,3.632c-.343.1-.807.194-.97.448-1.153,1.806-3.363,1.965-4.882,3.192a2.316,2.316,0,0,1-1.291.549c-3.091.042-5.112,1.9-6.908,4.068a3.3,3.3,0,0,1-2.43,1.365,6.519,6.519,0,0,0-5.748,3.658c.9,1.795,1.8,2.089,3.4,1.23.515-.276,1.142-.335,1.672-.59a11.751,11.751,0,0,0,1.418-.961c1.256.569,2.357-.036,3.358-.858a3.269,3.269,0,0,1,1.924-.781,3.851,3.851,0,0,0,1.985-1.05,5.424,5.424,0,0,1,2.438-1.445,5.742,5.742,0,0,0,1.552-.854c.149-.09.237-.278.381-.381a1.971,1.971,0,0,1,2.494.09,1.827,1.827,0,0,1-.425,2.28,19.025,19.025,0,0,1-1.9,1.376,9.622,9.622,0,0,1-1.359.874,13.666,13.666,0,0,1-1.964.716c-1.089.316-2.192.577-3.286.871-.172.046-.328.208-.494.212a4.01,4.01,0,0,0-3.175,2.044c-.945,1.294-2.571,1.441-3.829,2.211-.351.215-.887.2-1.149.473a7.749,7.749,0,0,1-4.107,2.108c-1.961.433-3.167,2.087-4.828,3.01-.416.231-.744.613-1.138.887-1.04.724-1.7,1.542-.932,2.865a1.742,1.742,0,0,1,.162.88.885.885,0,0,1-1.252.839,2.366,2.366,0,0,1-.721-.526c-1.536-1.527-1.525-1.515-3.587-.688a12.3,12.3,0,0,0-3.316,2.1,20,20,0,0,1-4.194,2.371,16.372,16.372,0,0,0-4.17,2.453,12.055,12.055,0,0,1-2.531,1.351,6.749,6.749,0,0,0-1.532.921c-1.126,1.08-2.121,2.26-3.917,2.263-.51,0-1.047.549-1.525.908a5.945,5.945,0,0,1-2.375,1.147,6.561,6.561,0,0,0-2.2,1.49c-.8.617-1.53,1.315-2.332,1.924a26.869,26.869,0,0,0-4.685,3.8,4.217,4.217,0,0,0-.908,2.48c-.072.737,0,1.53-.991,1.641-.933.1-1.405-.472-1.722-1.283a10.368,10.368,0,0,0-.776-1.35c-1.078.955-1.078.955,0,4.081a7.945,7.945,0,0,1-.885,1.538c-.593.651-1.279,1.63-1.986,1.683-1.762.132-2.585,1.4-3.475,2.467-1.042,1.252-2.059,2.283-3.769,2.464a2.065,2.065,0,0,0-1.181.74,2.893,2.893,0,0,1-2.68,1.18c-.831-.109-1.173.34-1.565.926-1.458,2.182-1.865,2.163-3.372-.069-1.2-1.78-2.006-1.88-3.6-.379a29.951,29.951,0,0,1-4.944,3.846,3.843,3.843,0,0,0-1.593,1.862,7.746,7.746,0,0,1-3.383,3.829,25.784,25.784,0,0,0-5.826,4.2,3.042,3.042,0,0,1-2.62,1.194,3.879,3.879,0,0,0-3.268-1.894,6.685,6.685,0,0,0-1.06,3.5,5.623,5.623,0,0,1-.133,1.424,1.719,1.719,0,0,1-2.18,1.392,1.671,1.671,0,0,0-2.362,1.193c-.219.62-.747.677-1.333.673a2.985,2.985,0,0,0-2.535,1.434c-1.572,2.118-3.261,4.148-4.918,6.2a11.892,11.892,0,0,1-1.735,1.973,5.332,5.332,0,0,1-3.738,1.058,3.143,3.143,0,0,0-2.963,1.381,2.718,2.718,0,0,1-2.317,1.182,3.246,3.246,0,0,0-2.807,1.708,7.768,7.768,0,0,1-4.982,3.587,31.531,31.531,0,0,0-3.923,1.3,8.143,8.143,0,0,0-1.66,1.04c-1.074.763-2.1,1.6-3.2,2.317a2.436,2.436,0,0,1-3.161-.215,12.562,12.562,0,0,0-1.937-1.312c-1.439-.814-1.919-1.82-1.251-3.26a12.226,12.226,0,0,0,1.287-4.449,4.092,4.092,0,0,1,1.561-2.3,27.6,27.6,0,0,0,4.483-4.135c.549-.734,1.844-.884,2.326-1.844.617-1.231,1.767-1.921,2.681-2.848a2.5,2.5,0,0,1,.635-.338c.431.548.82,1.045,1.281,1.634,1.309-.984,2.923-1.381,3.554-3.194,1.385.775,2.518.039,3.716-.55a26.394,26.394,0,0,0,5.372-3.53,52.229,52.229,0,0,1,5.383-3.585c1.863-1.2,3.758-2.353,5.6-3.578a25.467,25.467,0,0,0,3.157-2.346,24.171,24.171,0,0,1,5.186-3.184,11.361,11.361,0,0,0,2.392-1.881,8.536,8.536,0,0,1,3.729-2.432,4.783,4.783,0,0,0,1.72-.948c1.021-.826,1.856-1.919,3.318-2.031a.65.65,0,0,0,.447-.282c1.027-1.844,3.138-2.108,4.666-3.217a2.556,2.556,0,0,1,.8-.4,11.166,11.166,0,0,0,7.168-5.839,2.831,2.831,0,0,1,1.421-1.243,19.7,19.7,0,0,0,6.409-4.24,26.736,26.736,0,0,1,5.493-4.3,8.155,8.155,0,0,0,2.335-2.435c.678-.887,1.142-1.935,1.8-2.844a4.4,4.4,0,0,1,1.237-.936c.592-.383,1.2-.734,1.815-1.087a27.755,27.755,0,0,1,3.751-2.1,36.67,36.67,0,0,0,5.337-2.5c3.477-2.023,7.063-3.869,10.68-5.635,6.164-3.012,12.162-6.318,18.07-9.8,2.636-1.552,5.254-3.146,7.961-4.567,1.585-.832,3.377-1.263,4.991-2.049a50.424,50.424,0,0,0,6.758-3.367c2.051-1.406,4.5-2.222,6.725-3.382,2.173-1.131,4.291-2.372,6.435-3.559.783-.433,1.57-.863,2.368-1.269,2.56-1.3,5.111-2.625,7.7-3.865A6.824,6.824,0,0,1,2825.908-1581.475Zm-114.819,71.651-.044.523,1.091.062.04-.433Zm-11.073,11.287a2.294,2.294,0,0,0-.643-.305c-.093-.009-.209.212-.315.328a1.972,1.972,0,0,0,.5.351C2699.634-1498.139,2699.785-1498.343,2700.015-1498.538Zm-24.988,15.925c.163-.237.348-.4.317-.482a.516.516,0,0,0-.378-.274c-.132-.006-.271.154-.406.24Z" transform="translate(-83.242 -186.938)" fill="#fff"/>
    <path id="Path_53" data-name="Path 53" d="M2878.262-1951.267c-1.42.461-2.933.761-4.013,1.957-.8.889-1.41,1.957-2.226,2.833-1.521,1.634-1.883,3.84-2.942,5.7-.747,1.313-1.176,2.744-2.778,3.37-.361.141-.615.849-.7,1.335a5.308,5.308,0,0,1-1.216,2.764,2.289,2.289,0,0,0-.53,1.3,3.658,3.658,0,0,1-1.587,2.706,1.847,1.847,0,0,0-.269,2.935,1.5,1.5,0,0,1,.252,2.085,12.048,12.048,0,0,0-1.3,4.661,5.625,5.625,0,0,1-.4,1.754c-1.7,3.2-1.728,6.757-2,10.208a49.647,49.647,0,0,1-1.416,6.5c-.34,1.581-.559,3.187-.807,4.786a2.215,2.215,0,0,0,.875,2.066,8.169,8.169,0,0,0,4.475,2.115c5.06.688,9.954-.158,14.857-1.2a30.2,30.2,0,0,0,7.649-2.6,1.339,1.339,0,0,1,2.062,1.185c.135,1.969-.1,3.81-1.734,5.255a31.391,31.391,0,0,1-3.716,2.8c-2.6,1.694-5.092,3.629-6.468,6.586-.052.11-.159.218-.154.323.086,1.966-1.619,2.649-2.711,3.762a2.941,2.941,0,0,1-.944.473,15.2,15.2,0,0,0-1.958.852,2.783,2.783,0,0,1-2.742.271,3.481,3.481,0,0,0-1.372-.392c-2.98.089-5.487-1.146-7.909-2.682a4.248,4.248,0,0,0-1.477-.639,4.135,4.135,0,0,1-2.708-1.96,15.2,15.2,0,0,1-1.79-3.121,11.375,11.375,0,0,0-1.923-3.22,5.01,5.01,0,0,1-1.057-1.866,3.489,3.489,0,0,0-2.073-2.733c-.419-.179-.693-.936-.833-1.479a17.537,17.537,0,0,1-.458-2.853,12.313,12.313,0,0,0-1.129-4.308c-1-2.106-.7-4.392-.279-6.57a39.152,39.152,0,0,0,.948-7.5,23.679,23.679,0,0,1,.882-4.753c.783-3.743,2.532-7.122,4.093-10.559.867-1.909,2.1-3.65,3.109-5.5.721-1.318,1.344-2.689,2.007-4.04.079-.162.089-.394.211-.494,1.9-1.537,1.717-4.089,2.9-5.943,2.53-3.948,5.054-7.912,8.726-10.971a14.188,14.188,0,0,0,2.624-2.7,4.873,4.873,0,0,1,3.8-2.1c1.318-.135,2.638-.267,3.958-.374a8.445,8.445,0,0,1,5.456,1.424,13.066,13.066,0,0,0,1.265.7,1.357,1.357,0,0,0,1.79-.342,7.169,7.169,0,0,0,.581-.69c1.439-2.143,2.86-4.3,4.309-6.435.71-1.046,1.484-2.05,2.2-3.089.547-.789,1.042-1.615,1.581-2.41a12.26,12.26,0,0,1,5.713-4.76c.673-.263,1.329-.571,2-.842a2.694,2.694,0,0,1,3.658.849c.719.812,1.455,1.607,2.136,2.45a1.359,1.359,0,0,1-.093,2.077c-.307.281-.511.67-.8.971-2.2,2.286-4.48,4.5-6.583,6.873a16.465,16.465,0,0,0-1.667,3.136,5.68,5.68,0,0,1-.936,1.309,4.386,4.386,0,0,0-1.385,3.208,3.937,3.937,0,0,1-.778,1.951,9.838,9.838,0,0,0-2.012,3.987,1.767,1.767,0,0,1-.268.669q-1.883,2.931-3.787,5.849c-.033.051-.089.086-.117.137-1.115,2.034-2.52,3.909-3.585,5.943a33.111,33.111,0,0,0-2.342,6.615c-.569,2.064.78,4.688,2.708,5.089a3.761,3.761,0,0,1,1,.418c1.345.738,1.546,1.108,1.352,2.406-.215,1.44-.748,2.126-2.1,2.331-2.292.349-4.486.271-5.92-2.005a2.439,2.439,0,0,0-.831-.94c-1.848-.872-2.409-2.465-2.8-4.319-.33-1.57-1.076-3.048-1.517-4.6a6.023,6.023,0,0,1-.069-2.123c.105-1.188.3-2.369.465-3.551a9.769,9.769,0,0,1,.327-1.944c.9-2.487,1.865-4.948,2.792-7.424.31-.83.578-1.676.866-2.515Z" transform="translate(-150.428 -47.048)" fill="#fff"/>
    <path id="Path_54" data-name="Path 54" d="M2871.344-1624.572c-2.952.082-3.236-.076-4.02-2.947a6.958,6.958,0,0,0-3.432-4.627,4.694,4.694,0,0,1-2.189-3.751c-.19-1.179-.5-2.34-.713-3.516a7.068,7.068,0,0,1-.214-1.948,66.557,66.557,0,0,1,2.252-12.776c.421-1.366.611-2.8.945-4.194a3.082,3.082,0,0,1,.534-1.322c2.079-2.322,2.147-5.269,2.658-8.1.606-3.357,1.049-6.763,2.644-9.865a11.245,11.245,0,0,0,.946-2.531,60,60,0,0,1,4.475-11.6,13.426,13.426,0,0,1,3.036-3.519,2.57,2.57,0,0,1,2.906-.248,26.442,26.442,0,0,1,3.335,1.8,2.942,2.942,0,0,1,.723.978c1.42,2.21,1.224,4.658,1.063,7.109a2.942,2.942,0,0,0,.166,1.715c.858,1.2.563,2.352.251,3.609a22.89,22.89,0,0,0-.722,4.232c-.157,2.9-.364,5.729-1.929,8.324a13.736,13.736,0,0,0-1.266,3.546c-.5,1.859-.886,3.75-1.322,5.627a2.229,2.229,0,0,0-.129.524c.133,4.436-2.221,8.188-3.343,12.279-.715,2.607-1.278,5.259-1.8,7.912a4.429,4.429,0,0,0,.26,2.115,3.661,3.661,0,0,1-.423,3.6,4.366,4.366,0,0,0-.778,3.588,5.36,5.36,0,0,1,.052,1.612,2.512,2.512,0,0,1-2.519,2.373A14.115,14.115,0,0,1,2871.344-1624.572Z" transform="translate(-156.899 -146.595)" fill="#fff"/>
    <path id="Path_55" data-name="Path 55" d="M3038.2-1617.987c-.366.377-.651.712-.982.99-.115.1-.362.019-.521.087a15.889,15.889,0,0,1-3.727,1.556,10.162,10.162,0,0,0-3.838,1.3,14.341,14.341,0,0,1-3.215,1.009c-.571.166-1.284.145-1.7.489a5.178,5.178,0,0,1-3.727,1c-.721-.021-1.444.019-2.165-.013a2.891,2.891,0,0,0-2.3.836c-1.1,1.1-2.559,1.494-3.918,2.127a13.352,13.352,0,0,1-5.4,1.072,8.743,8.743,0,0,0-1.729.437c-1.025.254-2.052.5-3.356.81a7.194,7.194,0,0,1,3.539-2.334,7.2,7.2,0,0,0,3.872-2.166c1.635-1.793,3.633-1.919,5.758-1.6a3.553,3.553,0,0,0,3.666-1.2,1.59,1.59,0,0,1,.5-.487c1.4-.649,2.781-1.644,4.245-1.8a27.024,27.024,0,0,0,4.712-1.386,5.807,5.807,0,0,1,1.973-.045,2.685,2.685,0,0,0,2.2-.54,1.555,1.555,0,0,1,.981-.309C3034.664-1618.131,3036.255-1618.056,3038.2-1617.987Z" transform="translate(-206.588 -174)" fill="#fff"/>
    <path id="Path_56" data-name="Path 56" d="M2920.917-1565.812c-.23.843-1.033.871-1.649,1.2-.365.194-.823.637-.826.973a1.4,1.4,0,0,0,.735,1.087c.826.282,1.529.55,1.237,1.585-.19.674-1.187.864-2.226.525-1.247-.408-2.513-.758-3.741-1.215-1.4-.523-1.537-1.41-.4-2.38a6.143,6.143,0,0,1,.923-.551c.934-.54,1.875-1.065,2.8-1.622A2.17,2.17,0,0,1,2920.917-1565.812Z" transform="translate(-175.426 -192.147)" fill="#fff"/>
    <path id="Path_57" data-name="Path 57" d="M2706.82-1460.315a2.551,2.551,0,0,1-.577,3.129,9.559,9.559,0,0,1-3.02,2.189,3.1,3.1,0,0,1-1.2.322,1.028,1.028,0,0,1-.931-1.708,3.641,3.641,0,0,1,.868-.9c1.244-.932,2.5-1.849,3.779-2.731A3.756,3.756,0,0,1,2706.82-1460.315Z" transform="translate(-100.492 -229.675)" fill="#fff"/>
    <path id="Path_58" data-name="Path 58" d="M2929.826-1568.434a5.336,5.336,0,0,1-1.224-1c-.386-.559.055-1,.523-1.324,1.254-.882,2.342-2.081,4.015-2.172.327-.017.885.02.947.181a1.31,1.31,0,0,1-.068,1.126,35.178,35.178,0,0,1-2.836,2.665A5,5,0,0,1,2929.826-1568.434Z" transform="translate(-180.777 -189.952)" fill="#fff"/>
    <path id="Path_59" data-name="Path 59" d="M2694.531-1451.093c1.1,1.75,1.063,2.008-.349,3.07-.481.363-.947.748-1.448,1.081-1.167.774-1.4.742-2.8-.361C2691.487-1448.567,2692.737-1450.142,2694.531-1451.093Z" transform="translate(-96.641 -232.928)" fill="#fff"/>
    <path id="Path_60" data-name="Path 60" d="M2763.576-1494.376c.365,1.032.644,1.814-.326,2.2a1.256,1.256,0,0,1-1.1-.562C2761.843-1493.791,2762.757-1493.908,2763.576-1494.376Z" transform="translate(-122.093 -217.66)" fill="#fff"/>
    <path id="Path_61" data-name="Path 61" d="M2769.111-1498.035c1.1-1.468,1.241-1.516,2.641-1.018C2771.176-1497.816,2771.135-1497.8,2769.111-1498.035Z" transform="translate(-124.571 -215.91)" fill="#fff"/>
    <path id="Path_62" data-name="Path 62" d="M3009.935-1954.836c.318,1.824-1.4,1.813-1.963,2.7C3007.893-1953.517,3008.855-1954.092,3009.935-1954.836Z" transform="translate(-208.824 -55.241)" fill="#fff"/>
    <path id="Path_63" data-name="Path 63" d="M2744.551-1481.438a5.583,5.583,0,0,1-1.4.712c-.187.026-.438-.4-.66-.624.3-.24.571-.588.912-.681C2743.615-1482.091,2743.935-1481.773,2744.551-1481.438Z" transform="translate(-115.18 -222.013)" fill="#fff"/>
    <path id="Path_64" data-name="Path 64" d="M2728.135-2044.922c-.528-1.988-.528-1.988.573-2.629Z" transform="translate(-109.996 -22.537)" fill="#fff"/>
    <path id="Path_65" data-name="Path 65" d="M2715.663-1463.146c-.129-.108-.281-.194-.27-.235a1.865,1.865,0,0,1,.211-.4c.078.065.227.137.221.193A1.778,1.778,0,0,1,2715.663-1463.146Z" transform="translate(-105.623 -228.454)" fill="#fff"/>
    <rect id="_Sector_" data-name="&lt;Sector&gt;" width="0.647" height="14.887" transform="translate(2765.321 -1838.062)" fill="#fff"/>
  </g>
</svg>
