<svg xmlns="http://www.w3.org/2000/svg" width="146.562" height="50" viewBox="0 0 146.562 50">
  <g id="Group_290" data-name="Group 290" transform="translate(-75.479 -164.159)">
    <path id="Path_94" data-name="Path 94" d="M77.38,200.533a7.634,7.634,0,0,1-1.9-5.557V164.159h7.8V194.68q0,1.63,1.333,1.63a3.3,3.3,0,0,0,1.284-.247l1.53,5.531a12.172,12.172,0,0,1-4.74.889A7.074,7.074,0,0,1,77.38,200.533Z" fill="#fff"/>
    <path id="Path_95" data-name="Path 95" d="M119.565,184.894a13.9,13.9,0,0,1,4.347,2.37l-2.865,4.4a12.026,12.026,0,0,0-6.469-2.025,4.391,4.391,0,0,0-2.347.518,1.638,1.638,0,0,0-.814,1.457,1.9,1.9,0,0,0,.37,1.21,3.963,3.963,0,0,0,1.507.963,31.532,31.532,0,0,0,3.507,1.185,14.765,14.765,0,0,1,6.1,3.086,6.916,6.916,0,0,1,2,5.261,7.255,7.255,0,0,1-1.531,4.617,9.626,9.626,0,0,1-4.2,2.989,16.221,16.221,0,0,1-5.927,1.037,17.785,17.785,0,0,1-6.149-1.037,14.109,14.109,0,0,1-4.815-2.865l3.8-4.247a11.191,11.191,0,0,0,6.964,2.569,5.175,5.175,0,0,0,2.79-.643,2.041,2.041,0,0,0,1.013-1.826,2.47,2.47,0,0,0-.4-1.482,3.554,3.554,0,0,0-1.53-1.012,35.5,35.5,0,0,0-3.606-1.161,12.852,12.852,0,0,1-5.828-3.161,7.024,7.024,0,0,1-1.926-5.038,6.762,6.762,0,0,1,1.309-4.075,8.865,8.865,0,0,1,3.753-2.863,14.073,14.073,0,0,1,5.655-1.063A16.336,16.336,0,0,1,119.565,184.894Z" transform="translate(-12.764 -9.728)" fill="#fff"/>
    <path id="Path_96" data-name="Path 96" d="M175.489,164.159v37.484h-6.915l-.4-3.062a8.683,8.683,0,0,1-7.457,3.9,8.409,8.409,0,0,1-7.433-3.754q-2.545-3.752-2.543-10.272a18.273,18.273,0,0,1,1.333-7.162,11.425,11.425,0,0,1,3.778-4.939,9.281,9.281,0,0,1,5.6-1.778,8.438,8.438,0,0,1,6.223,2.47v-12.89Zm-7.8,29.632V182.482a7.023,7.023,0,0,0-1.9-1.68,4.395,4.395,0,0,0-2.2-.544,3.924,3.924,0,0,0-3.457,2.025q-1.285,2.027-1.285,6.223,0,4.593,1.112,6.42a3.524,3.524,0,0,0,3.185,1.828Q165.857,196.755,167.686,193.791Z" transform="translate(-36.36)" fill="#fff"/>
    <path id="Path_97" data-name="Path 97" d="M229.124,187.734q3.408,3.679,3.408,10.3a16.314,16.314,0,0,1-1.555,7.335,11.466,11.466,0,0,1-4.446,4.865,13.079,13.079,0,0,1-6.84,1.728q-5.976,0-9.409-3.679t-3.432-10.3a16.3,16.3,0,0,1,1.556-7.334,11.47,11.47,0,0,1,4.444-4.865,13.08,13.08,0,0,1,6.84-1.729Q225.715,184.054,229.124,187.734Zm-12.989,4.049q-1.186,2-1.185,6.2,0,4.3,1.161,6.272a4.2,4.2,0,0,0,7.137-.025q1.185-2,1.185-6.2,0-4.3-1.161-6.272a4.2,4.2,0,0,0-7.137.025Z" transform="translate(-63.469 -9.728)" fill="#fff"/>
    <path id="Path_98" data-name="Path 98" d="M298.469,186.154a8.4,8.4,0,0,1,1.876,5.8v19.162h-7.8V193.29q0-3.507-2.222-3.507a3.158,3.158,0,0,0-2.173.839,8.913,8.913,0,0,0-1.828,2.568v17.928h-7.8V193.29q0-3.507-2.222-3.507a3.144,3.144,0,0,0-2.149.865,9.158,9.158,0,0,0-1.851,2.543v17.928h-7.8V184.894h6.816l.543,3.062a10.39,10.39,0,0,1,3.383-2.939,9.009,9.009,0,0,1,4.223-.963,6.665,6.665,0,0,1,3.828,1.087,6.216,6.216,0,0,1,2.345,3.062,10.66,10.66,0,0,1,3.482-3.137,9.168,9.168,0,0,1,4.371-1.012A6.369,6.369,0,0,1,298.469,186.154Z" transform="translate(-91.625 -9.719)" fill="#fff"/>
    <path id="Path_99" data-name="Path 99" d="M348.945,244.914a4.279,4.279,0,0,1,1.308,3.136,4.335,4.335,0,0,1-1.308,3.185,4.28,4.28,0,0,1-3.136,1.309,4.469,4.469,0,0,1-4.494-4.494,4.275,4.275,0,0,1,1.309-3.136,4.336,4.336,0,0,1,3.185-1.309A4.28,4.28,0,0,1,348.945,244.914Z" transform="translate(-128.213 -38.385)" fill="#fff"/>
    <rect id="Rectangle_10" data-name="Rectangle 10" width="133.245" height="1.583" rx="0.792" transform="translate(75.48 208.898)" fill="#fff"/>
  </g>
</svg>
