<svg xmlns="http://www.w3.org/2000/svg" viewBox="0 0 800 184.53"><defs><style>.cls-1{fill:#fff;}</style></defs><title>n12</title><g id="Layer_2" data-name="Layer 2"><g id="Layer_1-2" data-name="Layer 1"><path class="cls-1" d="M133.44,31.63,79.17.27a2,2,0,0,0-2,0L22.85,31.63a2,2,0,0,0,1,3.73,1.63,1.63,0,0,0,.89-.27L76,5.45V52.4a2.22,2.22,0,0,0,4.42,0V5.45l51.17,29.64a1.94,1.94,0,0,0,2.67-.73,2,2,0,0,0-.78-2.73"/><path class="cls-1" d="M101,81.06a2,2,0,0,1-1-3.72L124.9,63a2,2,0,1,1,2,3.46L102,80.8a2,2,0,0,1-1,.26"/><path class="cls-1" d="M134.23,150.17a1.88,1.88,0,0,0-2.62-.73L80.38,179.08V132.14a2.22,2.22,0,0,0-4.42,0v46.94L24.8,149.44a1.94,1.94,0,0,0-2.67.73,2,2,0,0,0,.75,2.73l54.28,31.36a2,2,0,0,0,2,0L133.5,152.9a2,2,0,0,0,.73-2.73"/><path class="cls-1" d="M30.45,121.82a2,2,0,0,1-1-3.73l24.87-14.36a2,2,0,0,1,2,3.46L31.45,121.55a2,2,0,0,1-1,.27"/><path class="cls-1" d="M0,47.13l.58,66.72a8.73,8.73,0,0,0,8.74,8.64h12.4V74.23L142,145.71l14.57-8.31L156.27,72a8.73,8.73,0,0,0-8.74-8.67H132.78v45.06L14,39.06Z"/><path class="cls-1" d="M185.16,87.25,174.59,98l-8.08-8.49,21-21h12.38V135H185.67V87.46A.3.3,0,0,0,185.16,87.25Z"/><path class="cls-1" d="M211.11,123.85c27.25-20.06,35.23-26.94,35.23-35.12,0-5.79-5.29-8.69-10.78-8.69a23.8,23.8,0,0,0-17.86,7.69l-8.08-9.38c6.48-7.49,16.36-10.88,25.65-10.88,14.17,0,25.44,8,25.44,21.26,0,11.37-9.38,21.25-26.64,33.83h27.14V135h-50.1Z"/></g><g id="Layer_2-2" data-name="Layer 2"><path class="cls-1" d="M298.16,97.11h14.21v9.41H298.16v19.3H316v9.41H287.81V69.34H316v9.42H298.16Z"/><path class="cls-1" d="M336.37,68.59c10.07,0,15.25,6,15.25,16.57v2.07h-9.79V84.5c0-4.71-1.88-6.5-5.18-6.5s-5.17,1.79-5.17,6.5,2.07,8.38,8.84,14.31c8.66,7.62,11.39,13.08,11.39,20.61,0,10.54-5.27,16.56-15.43,16.56s-15.44-6-15.44-16.56v-4h9.79v4.71c0,4.7,2.07,6.4,5.37,6.4s5.36-1.7,5.36-6.4-2.07-8.38-8.85-14.31c-8.66-7.62-11.39-13.08-11.39-20.61C321.12,74.62,326.3,68.59,336.37,68.59Z"/><path class="cls-1" d="M354.63,69.34h32v9.42H375.81v56.47H365.45V78.76H354.63Z"/><path class="cls-1" d="M401,69.34v50.83c0,4.71,2.07,6.4,5.36,6.4s5.37-1.69,5.37-6.4V69.34h9.79v50.17c0,10.54-5.27,16.57-15.44,16.57s-15.43-6-15.43-16.57V69.34Z"/><path class="cls-1" d="M428.61,69.34H445c10.36,0,15.44,5.75,15.44,16.29V119c0,10.54-5.08,16.28-15.44,16.28H428.61ZM439,78.76v47.06h5.84c3.29,0,5.27-1.7,5.27-6.4V85.16c0-4.71-2-6.4-5.27-6.4Z"/><path class="cls-1" d="M467,69.34h10.35v65.89H467Z"/><path class="cls-1" d="M484,85.16c0-10.54,5.55-16.57,15.72-16.57s15.72,6,15.72,16.57v34.26c0,10.54-5.55,16.56-15.72,16.56S484,130,484,119.42Zm10.36,34.92c0,4.7,2.07,6.49,5.36,6.49s5.37-1.79,5.37-6.49V84.5c0-4.71-2.08-6.5-5.37-6.5s-5.36,1.79-5.36,6.5Z"/><path class="cls-1" d="M566.77,110.66v8.76c0,10.54-5.27,16.56-15.43,16.56s-15.44-6-15.44-16.56V85.16c0-10.54,5.27-16.57,15.44-16.57s15.43,6,15.43,16.57v6.4H557V84.5c0-4.71-2.07-6.5-5.36-6.5s-5.37,1.79-5.37,6.5v35.58c0,4.7,2.08,6.4,5.37,6.4s5.36-1.7,5.36-6.4v-9.42Z"/><path class="cls-1" d="M594.73,135.23c-.57-1.69-1-2.73-1-8.09V116.78c0-6.12-2.07-8.37-6.77-8.37h-3.58v26.82H573.08V69.34H588.7c10.73,0,15.34,5,15.34,15.16v5.18c0,6.77-2.16,11.1-6.77,13.27v.18c5.17,2.17,6.87,7.06,6.87,13.94v10.16c0,3.2.09,5.55,1.13,8Zm-11.3-56.47V99h4.05c3.86,0,6.21-1.69,6.21-7v-6.5c0-4.7-1.6-6.77-5.27-6.77Z"/><path class="cls-1" d="M621.27,97.11h14.21v9.41H621.27v19.3h17.88v9.41H610.91V69.34h28.24v9.42H621.27Z"/><path class="cls-1" d="M679.06,135.23H668.61l-1.79-11.95H654.11l-1.78,11.95h-9.51l10.54-65.89h15.16Zm-23.63-20.89h10L660.52,81h-.19Z"/><path class="cls-1" d="M677.27,69.34h32v9.42H698.45v56.47H688.09V78.76H677.27Z"/><path class="cls-1" d="M713.79,69.34h10.35v65.89H713.79Z"/><path class="cls-1" d="M747.2,123.09h.19l7.81-53.75h9.5l-10.16,65.89H739.1L728.94,69.34h10.45Z"/><path class="cls-1" d="M768.56,85.16c0-10.54,5.56-16.57,15.72-16.57S800,74.62,800,85.16v34.26C800,130,794.45,136,784.28,136s-15.72-6-15.72-16.56Zm10.36,34.92c0,4.7,2.07,6.49,5.36,6.49s5.37-1.79,5.37-6.49V84.5c0-4.71-2.07-6.5-5.37-6.5s-5.36,1.79-5.36,6.5Z"/></g></g></svg>