<svg xmlns="http://www.w3.org/2000/svg" width="116.815" height="90" viewBox="0 0 116.815 90">
  <g id="Group_294" data-name="Group 294" transform="translate(-364.255 -135.844)">
    <g id="Group_284" data-name="Group 284" transform="translate(364.255 187.022)">
      <g id="Group_281" data-name="Group 281" transform="translate(19.734 29.536)">
        <g id="Group_280" data-name="Group 280">
          <path id="Path_4393" data-name="Path 4393" d="M441.961,462.5h2.125l1.983,5.32L448,462.5h2.05v.405h-.176a1.055,1.055,0,0,0-.421.054.366.366,0,0,0-.172.185,1.142,1.142,0,0,0-.061.438v4.429a1.771,1.771,0,0,0,.052.548.348.348,0,0,0,.167.186.948.948,0,0,0,.435.069h.176v.4h-2.565v-.4h.179a1.137,1.137,0,0,0,.36-.042.392.392,0,0,0,.187-.126.3.3,0,0,0,.083-.185,2.229,2.229,0,0,0,.025-.307v-4.949l-2.193,6.014h-.482l-2.207-5.924v4.759a1.325,1.325,0,0,0,.061.49.421.421,0,0,0,.194.2,1.074,1.074,0,0,0,.475.073h.154v.4h-2.365v-.4h.136a1.211,1.211,0,0,0,.488-.075.438.438,0,0,0,.211-.2,1.467,1.467,0,0,0,.062-.526v-4.388a1.371,1.371,0,0,0-.054-.486.336.336,0,0,0-.176-.176,1.129,1.129,0,0,0-.436-.057h-.232Z" transform="translate(-441.961 -462.155)" fill="#fff"/>
          <path id="Path_4394" data-name="Path 4394" d="M482.251,472.476v-.526a.9.9,0,0,0-.3-.76,1.364,1.364,0,0,0-.844-.227,1.509,1.509,0,0,0-.475.064.862.862,0,0,0-.326.176.755.755,0,0,0-.18.258c-.016.037-.055.172-.115.408-.075.293-.223.436-.449.436a.4.4,0,0,1-.313-.128.489.489,0,0,1-.115-.345,1,1,0,0,1,.236-.62,1.656,1.656,0,0,1,.719-.507,2.973,2.973,0,0,1,1.144-.2,2.62,2.62,0,0,1,1.055.192,1.311,1.311,0,0,1,.645.546,1.926,1.926,0,0,1,.144.9v1.852a3.2,3.2,0,0,0,.024.512.535.535,0,0,0,.184.313.541.541,0,0,0,.345.1,1.762,1.762,0,0,0,.529-.1v.418a2.652,2.652,0,0,1-.717.118,1.553,1.553,0,0,1-.576-.1.976.976,0,0,1-.384-.281.955.955,0,0,1-.192-.443,4.292,4.292,0,0,1-1.043.636,2.624,2.624,0,0,1-.945.185,1.582,1.582,0,0,1-1.078-.364,1.087,1.087,0,0,1-.414-.847,1.1,1.1,0,0,1,.151-.559,1.417,1.417,0,0,1,.463-.47,3.206,3.206,0,0,1,.977-.355A17.093,17.093,0,0,1,482.251,472.476Zm0,.419c-.747.109-1.208.189-1.386.23a2.646,2.646,0,0,0-.753.262,1.014,1.014,0,0,0-.32.31.682.682,0,0,0-.1.357.674.674,0,0,0,.108.362.774.774,0,0,0,.306.279.922.922,0,0,0,.421.1,2.081,2.081,0,0,0,.707-.149,4.9,4.9,0,0,0,1.014-.586Z" transform="translate(-469.813 -468.201)" fill="#fff"/>
          <path id="Path_4395" data-name="Path 4395" d="M502.082,471.308v-.4a2.638,2.638,0,0,0,.624-.118,3.279,3.279,0,0,0,.623-.287h.359v.911a2.7,2.7,0,0,1,.8-.665,1.746,1.746,0,0,1,.815-.246.869.869,0,0,1,.562.167.514.514,0,0,1,.206.414.413.413,0,0,1-.136.3.463.463,0,0,1-.331.135.367.367,0,0,1-.149-.028.733.733,0,0,1-.183-.105.873.873,0,0,0-.441-.171.947.947,0,0,0-.531.2,2.813,2.813,0,0,0-.574.511v2.22a1.623,1.623,0,0,0,.032.391.421.421,0,0,0,.1.18.438.438,0,0,0,.179.109,1.4,1.4,0,0,0,.37.034h.16v.4h-2.493v-.4h.211a.9.9,0,0,0,.382-.053.443.443,0,0,0,.188-.2,1.18,1.18,0,0,0,.059-.459v-2.842Z" transform="translate(-487.393 -468.201)" fill="#fff"/>
          <path id="Path_4396" data-name="Path 4396" d="M519.6,461.885v-.4a3.294,3.294,0,0,0,1.272-.405h.368v4.808l1.774-1.406c.281-.225.422-.376.422-.45,0-.047-.03-.08-.09-.1a.822.822,0,0,0-.283-.027h-.255v-.405h2.443v.405a2.112,2.112,0,0,0-.653.085,2.133,2.133,0,0,0-.57.331l-1.394,1.071,1.643,1.8a2.692,2.692,0,0,0,.386.364.977.977,0,0,0,.3.148,2.06,2.06,0,0,0,.466.047v.4h-2.563v-.4h.2a.9.9,0,0,0,.373-.047.141.141,0,0,0,.074-.122c0-.054-.047-.128-.144-.225-.017-.014-.034-.035-.054-.056l-1.281-1.469-.791.6v.63a1.237,1.237,0,0,0,.054.459.349.349,0,0,0,.166.169,1.018,1.018,0,0,0,.436.061h.18v.4H519.6v-.4a2.837,2.837,0,0,0,.514-.034.413.413,0,0,0,.244-.189,1.263,1.263,0,0,0,.073-.52v-5.114Z" transform="translate(-500.639 -461.078)" fill="#fff"/>
          <path id="Path_4397" data-name="Path 4397" d="M549.235,474.024l.311.25a4.073,4.073,0,0,1-.682.664,2.225,2.225,0,0,1-.624.346,2.1,2.1,0,0,1-.689.1,2.3,2.3,0,0,1-2.078-1.157,2.537,2.537,0,0,1-.3-1.263,2.666,2.666,0,0,1,.3-1.3,2.173,2.173,0,0,1,.82-.851,2.378,2.378,0,0,1,1.222-.312,2.337,2.337,0,0,1,.9.16,1.706,1.706,0,0,1,.645.486,2.075,2.075,0,0,1,.384.744,2.805,2.805,0,0,1,.078.633h-3.407c-.007.158-.014.278-.014.352a2.669,2.669,0,0,0,.213,1.087,1.542,1.542,0,0,0,.56.7,1.429,1.429,0,0,0,.792.225,1.564,1.564,0,0,0,.728-.176A3.429,3.429,0,0,0,549.235,474.024Zm-.616-1.945a1.867,1.867,0,0,0-.2-.656.954.954,0,0,0-.377-.336,1.184,1.184,0,0,0-.548-.124,1.312,1.312,0,0,0-.567.124,1.2,1.2,0,0,0-.44.348,1.936,1.936,0,0,0-.309.644Z" transform="translate(-519.966 -468.201)" fill="#fff"/>
          <path id="Path_4398" data-name="Path 4398" d="M567.1,464.268h.341v1.637h1.431v.485h-1.431v2.9a1.459,1.459,0,0,0,.067.528.538.538,0,0,0,.219.261.625.625,0,0,0,.351.1,1.778,1.778,0,0,0,1.012-.408v.463a2.275,2.275,0,0,1-1.281.432,1.342,1.342,0,0,1-.661-.165.915.915,0,0,1-.405-.387,1.858,1.858,0,0,1-.11-.772V466.39h-.841v-.405a1.7,1.7,0,0,0,.654-.284,1.451,1.451,0,0,0,.405-.5A3.374,3.374,0,0,0,567.1,464.268Z" transform="translate(-535.553 -463.489)" fill="#fff"/>
          <path id="Path_4399" data-name="Path 4399" d="M581.133,464.587v-.4a3.855,3.855,0,0,0,.67-.134,3.476,3.476,0,0,0,.62-.272h.351v3.863a.672.672,0,0,0,.057.3.365.365,0,0,0,.162.148,1.026,1.026,0,0,0,.379.047h.228v.4h-2.466v-.4h.2a.98.98,0,0,0,.431-.061.312.312,0,0,0,.157-.162,1.55,1.55,0,0,0,.047-.5v-2.836Zm1.223-2.977a.547.547,0,0,1,.4.162.557.557,0,0,1,0,.787.551.551,0,0,1-.4.167.546.546,0,0,1-.4-.167.555.555,0,0,1,.4-.949Z" transform="translate(-547.146 -461.48)" fill="#fff"/>
          <path id="Path_4400" data-name="Path 4400" d="M593.409,471.308v-.4a3.537,3.537,0,0,0,.642-.115,3.6,3.6,0,0,0,.612-.29h.344v.917a4.64,4.64,0,0,1,1.086-.725,2.293,2.293,0,0,1,.915-.192,1.7,1.7,0,0,1,.693.134,1.282,1.282,0,0,1,.495.36,1.178,1.178,0,0,1,.254.513,2.969,2.969,0,0,1,.037.542v2.12a1.3,1.3,0,0,0,.054.486.343.343,0,0,0,.177.158,2.183,2.183,0,0,0,.593.049v.4h-2.475v-.4h.135a1.164,1.164,0,0,0,.471-.065.367.367,0,0,0,.181-.183,1.379,1.379,0,0,0,.054-.491v-1.773a2.2,2.2,0,0,0-.089-.76.731.731,0,0,0-.3-.344.992.992,0,0,0-.541-.131,2,2,0,0,0-.834.2,3.254,3.254,0,0,0-.855.589v2.222a1.463,1.463,0,0,0,.054.5.378.378,0,0,0,.179.187,1.31,1.31,0,0,0,.463.049h.14v.4h-2.484v-.4h.121a1.387,1.387,0,0,0,.49-.061.341.341,0,0,0,.182-.217,2.279,2.279,0,0,0,.031-.529v-2.749Z" transform="translate(-556.421 -468.201)" fill="#fff"/>
          <path id="Path_4401" data-name="Path 4401" d="M623.737,471a1.522,1.522,0,0,1,.438-.374.869.869,0,0,1,.413-.124.435.435,0,0,1,.294.105.315.315,0,0,1,.115.253.352.352,0,0,1-.106.259.367.367,0,0,1-.269.106,1.086,1.086,0,0,1-.183-.022.9.9,0,0,0-.227-.033.413.413,0,0,0-.251.108,1.278,1.278,0,0,1,.3.85,1.477,1.477,0,0,1-.56,1.15,2.089,2.089,0,0,1-1.414.487,2.406,2.406,0,0,1-.948-.2,3.682,3.682,0,0,0-.364.281.26.26,0,0,0,.079.406,2.032,2.032,0,0,0,.724.207l1.393.2a5.084,5.084,0,0,1,.93.24,1.477,1.477,0,0,1,.679.438,1.016,1.016,0,0,1,.211.645A1.172,1.172,0,0,1,624.4,477a4.131,4.131,0,0,1-2.219.484,4.013,4.013,0,0,1-1.252-.162,1.694,1.694,0,0,1-.75-.465.664.664,0,0,1-.192-.445,1.034,1.034,0,0,1,.195-.585,4.465,4.465,0,0,1,.9-.809,1.714,1.714,0,0,1-.654-.272.558.558,0,0,1-.253-.447.581.581,0,0,1,.047-.232.711.711,0,0,1,.148-.218,2.235,2.235,0,0,1,.381-.3c.116-.079.2-.14.245-.18a1.808,1.808,0,0,1-.529-.559,1.335,1.335,0,0,1-.178-.683,1.453,1.453,0,0,1,.471-1.068,2.138,2.138,0,0,1,1.551-.558,2.384,2.384,0,0,1,.757.109A2.224,2.224,0,0,1,623.737,471Zm-2.235,4.133a3.032,3.032,0,0,0-.614.642.87.87,0,0,0-.152.471.557.557,0,0,0,.152.37,1.081,1.081,0,0,0,.516.3,3.051,3.051,0,0,0,.922.118,3.812,3.812,0,0,0,1.124-.143,1.451,1.451,0,0,0,.674-.364.609.609,0,0,0,.149-.409.489.489,0,0,0-.123-.338.948.948,0,0,0-.462-.244,4.906,4.906,0,0,0-.635-.156Zm.767-4.184a1.06,1.06,0,0,0-.8.344,1.169,1.169,0,0,0-.328.844,1.247,1.247,0,0,0,.148.608,1.131,1.131,0,0,0,1.983,0,1.228,1.228,0,0,0,.146-.6,1.173,1.173,0,0,0-.322-.857A1.1,1.1,0,0,0,622.269,470.95Z" transform="translate(-576.513 -468.201)" fill="#fff"/>
          <path id="Path_4402" data-name="Path 4402" d="M656.125,463.94l-.464-.072a2.087,2.087,0,0,1,.272-.86,1.856,1.856,0,0,1,.774-.724,2.518,2.518,0,0,1,1.151-.257,2.582,2.582,0,0,1,1.127.229,1.7,1.7,0,0,1,.736.607,1.441,1.441,0,0,1,.248.814,1.275,1.275,0,0,1-.188.69,1.788,1.788,0,0,1-.557.542,2.626,2.626,0,0,1-.677.294,2.368,2.368,0,0,1,.73.209,1.834,1.834,0,0,1,.727.649,1.668,1.668,0,0,1,.263.913,1.8,1.8,0,0,1-.7,1.4,2.653,2.653,0,0,1-1.807.608,2.891,2.891,0,0,1-1.84-.585,1.337,1.337,0,0,1-.623-1,.448.448,0,0,1,.128-.33.416.416,0,0,1,.317-.131.466.466,0,0,1,.361.162,1.267,1.267,0,0,1,.19.438,1.367,1.367,0,0,0,.506.738,1.483,1.483,0,0,0,.888.256,1.692,1.692,0,0,0,.843-.207,1.51,1.51,0,0,0,.59-.588,1.627,1.627,0,0,0,.218-.832,1.35,1.35,0,0,0-.157-.656,1.415,1.415,0,0,0-1.012-.717,3.548,3.548,0,0,0-.62-.06H657.1V465h.286a3.4,3.4,0,0,0,.811-.1,1.108,1.108,0,0,0,.617-.407,1.121,1.121,0,0,0,.23-.7,1.146,1.146,0,0,0-.161-.608,1.132,1.132,0,0,0-.475-.43,1.579,1.579,0,0,0-.724-.157,1.68,1.68,0,0,0-.736.163,1.467,1.467,0,0,0-.539.438A1.786,1.786,0,0,0,656.125,463.94Z" transform="translate(-603.199 -461.795)" fill="#fff"/>
          <path id="Path_4403" data-name="Path 4403" d="M685.333,461.984v.438a4.849,4.849,0,0,0-1.923.349,2.185,2.185,0,0,0-1.082.993,3.845,3.845,0,0,0-.389,1.628,2.427,2.427,0,0,1,.5-.583,1.806,1.806,0,0,1,.6-.322,2.467,2.467,0,0,1,.753-.111,2.319,2.319,0,0,1,1.169.288,2.072,2.072,0,0,1,.794.782,2.306,2.306,0,0,1,.281,1.162,2.187,2.187,0,0,1-.641,1.67,2.571,2.571,0,0,1-1.833.667,2.635,2.635,0,0,1-1.375-.337,2.336,2.336,0,0,1-.888-1.031,3.99,3.99,0,0,1-.328-1.716,4.511,4.511,0,0,1,.347-1.821,3.218,3.218,0,0,1,.967-1.276,3.254,3.254,0,0,1,1.353-.631,6.49,6.49,0,0,1,1.314-.149Zm-1.757,2.9a1.434,1.434,0,0,0-1.141.525,1.9,1.9,0,0,0-.445,1.259,2.117,2.117,0,0,0,.218.959,1.56,1.56,0,0,0,.558.656,1.426,1.426,0,0,0,.773.214,1.411,1.411,0,0,0,1.1-.5,1.974,1.974,0,0,0,.442-1.347,1.857,1.857,0,0,0-.429-1.286A1.392,1.392,0,0,0,683.576,464.884Z" transform="translate(-622.606 -461.763)" fill="#fff"/>
          <path id="Path_4404" data-name="Path 4404" d="M708.06,462.027a2.208,2.208,0,0,1,1.3.381,2.623,2.623,0,0,1,.9,1.182,5.015,5.015,0,0,1,.348,1.964,3.838,3.838,0,0,1-.854,2.654,2.257,2.257,0,0,1-1.752.77,2.174,2.174,0,0,1-1.274-.386,2.672,2.672,0,0,1-.893-1.146,4.737,4.737,0,0,1-.343-1.949,4.8,4.8,0,0,1,.335-1.941,2.641,2.641,0,0,1,.913-1.139A2.3,2.3,0,0,1,708.06,462.027Zm-.023.476a1.23,1.23,0,0,0-.881.368,2.145,2.145,0,0,0-.525,1,6.219,6.219,0,0,0-.225,1.724,5.891,5.891,0,0,0,.141,1.327,2.681,2.681,0,0,0,.365.925,1.543,1.543,0,0,0,.512.491,1.222,1.222,0,0,0,.6.157,1.323,1.323,0,0,0,.891-.37,2.039,2.039,0,0,0,.526-.908,5.777,5.777,0,0,0,.231-1.719,5.622,5.622,0,0,0-.236-1.73,2.084,2.084,0,0,0-.581-.989A1.273,1.273,0,0,0,708.037,462.5Z" transform="translate(-641.133 -461.795)" fill="#fff"/>
          <path id="Path_4405" data-name="Path 4405" d="M732.486,462.027a1.316,1.316,0,1,1-.93.387A1.267,1.267,0,0,1,732.486,462.027Zm0,.476a.842.842,0,0,0-.6.244.819.819,0,0,0-.251.6.808.808,0,0,0,.251.595.859.859,0,0,0,1.209,0,.8.8,0,0,0,.251-.595.809.809,0,0,0-.251-.6A.845.845,0,0,0,732.486,462.5Z" transform="translate(-660.544 -461.795)" fill="#fff"/>
        </g>
      </g>
      <g id="Group_283" data-name="Group 283" transform="translate(0 0)">
        <g id="Group_282" data-name="Group 282">
          <path id="Path_4406" data-name="Path 4406" d="M371.313,370.155v2.187a14.4,14.4,0,0,1,3.179-1.724,8.242,8.242,0,0,1,2.708-.463,5.789,5.789,0,0,1,2.82.673,4.392,4.392,0,0,1,1.781,1.686,6.014,6.014,0,0,1,.559,2.87v6.843a3.118,3.118,0,0,0,.123,1.116.786.786,0,0,0,.389.364,4.653,4.653,0,0,0,1.182.082h.807v3.172h-9.652v-3.172a12.132,12.132,0,0,0,1.232-.049.8.8,0,0,0,.543-.38,3.017,3.017,0,0,0,.131-1.133V376.2a3,3,0,0,0-.243-1.51,1.425,1.425,0,0,0-1.253-.576,4.2,4.2,0,0,0-1.511.314,11.053,11.053,0,0,0-2.17,1.28v6.516a2.238,2.238,0,0,0,.231,1.312,1.619,1.619,0,0,0,1.11.251h.534v3.172h-9.557v-3.172h.48a5.392,5.392,0,0,0,1.405-.1.749.749,0,0,0,.41-.343,2.178,2.178,0,0,0,.14-.967v-7.648h-2.436v-3.173a22.334,22.334,0,0,0,5.533-1.4Z" transform="translate(-364.255 -362.823)" fill="#fff"/>
          <path id="Path_4407" data-name="Path 4407" d="M471.784,380.878l2.246,2.269a13.1,13.1,0,0,1-3.95,3.217,9.741,9.741,0,0,1-4.355.991,8.632,8.632,0,0,1-6.314-2.54A8.664,8.664,0,0,1,458,374.341a8.063,8.063,0,0,1,3.188-3.075,9.511,9.511,0,0,1,4.618-1.111,8.948,8.948,0,0,1,3,.479A7.143,7.143,0,0,1,471.163,372a6.76,6.76,0,0,1,1.629,2.148,9.669,9.669,0,0,1,.847,2.6,16.388,16.388,0,0,1,.1,2.14H462.671a4.892,4.892,0,0,0,1.224,3.375,3.806,3.806,0,0,0,2.919,1.293,5.339,5.339,0,0,0,2.4-.665A9.609,9.609,0,0,0,471.784,380.878Zm-3.294-4.753a3.709,3.709,0,0,0-.473-1.554,2.588,2.588,0,0,0-.956-.9,2.5,2.5,0,0,0-1.26-.337,2.765,2.765,0,0,0-1.333.344,2.82,2.82,0,0,0-1.033.937,3.529,3.529,0,0,0-.5,1.514Z" transform="translate(-433.85 -362.823)" fill="#fff"/>
          <path id="Path_4408" data-name="Path 4408" d="M544.931,347.464v12.154a3.282,3.282,0,0,0,.1,1.067.661.661,0,0,0,.351.306,3.709,3.709,0,0,0,1.146.107h.889v3.172H537.253V361.1h.868a3.875,3.875,0,0,0,1.1-.095.633.633,0,0,0,.349-.3,2.09,2.09,0,0,0,.116-.859V352h-2.433V348.91a19.83,19.83,0,0,0,2.489-.279,17.265,17.265,0,0,0,2.133-.508,10.308,10.308,0,0,0,1.493-.659Zm-2.664-7.332a3.077,3.077,0,1,1-2.1.894A2.9,2.9,0,0,1,542.267,340.132Z" transform="translate(-494.332 -340.132)" fill="#fff"/>
          <path id="Path_4409" data-name="Path 4409" d="M594.737,370.155v2.187a14.373,14.373,0,0,1,3.184-1.724,8.2,8.2,0,0,1,2.7-.463,5.76,5.76,0,0,1,2.819.673,4.364,4.364,0,0,1,1.786,1.686,6.007,6.007,0,0,1,.557,2.87v6.843a2.936,2.936,0,0,0,.129,1.116.74.74,0,0,0,.384.364,4.643,4.643,0,0,0,1.183.082h.806v3.172h-9.654v-3.172a12.28,12.28,0,0,0,1.235-.049.813.813,0,0,0,.543-.38,3.1,3.1,0,0,0,.128-1.133V376.2a3,3,0,0,0-.246-1.51,1.41,1.41,0,0,0-1.247-.576,4.188,4.188,0,0,0-1.513.314,11.222,11.222,0,0,0-2.174,1.28v6.516a2.273,2.273,0,0,0,.232,1.312,1.633,1.633,0,0,0,1.115.251h.531v3.172h-9.554v-3.172h.48a5.35,5.35,0,0,0,1.4-.1.7.7,0,0,0,.41-.343,2.183,2.183,0,0,0,.144-.967v-7.648h-2.435v-3.173a22.2,22.2,0,0,0,5.527-1.4Z" transform="translate(-532.155 -362.823)" fill="#fff"/>
          <path id="Path_4410" data-name="Path 4410" d="M695.206,380.878l2.251,2.269a13.094,13.094,0,0,1-3.954,3.217,9.721,9.721,0,0,1-4.349.991,8.619,8.619,0,0,1-6.313-2.54,8.306,8.306,0,0,1-2.565-6.142,8.415,8.415,0,0,1,1.15-4.333,8.1,8.1,0,0,1,3.188-3.075,9.522,9.522,0,0,1,4.622-1.111,8.918,8.918,0,0,1,2.994.479A7.083,7.083,0,0,1,694.586,372a6.808,6.808,0,0,1,1.633,2.148,9.674,9.674,0,0,1,.848,2.6,17.64,17.64,0,0,1,.094,2.14H686.095a4.881,4.881,0,0,0,1.228,3.375,3.808,3.808,0,0,0,2.916,1.293,5.318,5.318,0,0,0,2.4-.665A9.533,9.533,0,0,0,695.206,380.878Zm-3.288-4.753a3.76,3.76,0,0,0-.471-1.554,2.661,2.661,0,0,0-.953-.9,2.547,2.547,0,0,0-1.263-.337,2.765,2.765,0,0,0-1.336.344,2.8,2.8,0,0,0-1.032.937,3.558,3.558,0,0,0-.5,1.514Z" transform="translate(-601.783 -362.823)" fill="#fff"/>
          <path id="Path_4411" data-name="Path 4411" d="M769.6,370.155a10.408,10.408,0,0,1,4.9,1.1,8.02,8.02,0,0,1,3.212,3,8.559,8.559,0,0,1,1.127,4.448,8.275,8.275,0,0,1-2.5,6.252,9.241,9.241,0,0,1-6.677,2.4,9.37,9.37,0,0,1-6.776-2.415,8.185,8.185,0,0,1-2.435-6.236,8.466,8.466,0,0,1,1.113-4.436,8.061,8.061,0,0,1,3.211-2.986A10.062,10.062,0,0,1,769.6,370.155Zm.066,3.6a3.07,3.07,0,0,0-1.762.56,3.606,3.606,0,0,0-1.272,1.645,7.261,7.261,0,0,0-.452,2.764,8,8,0,0,0,.443,2.857,3.552,3.552,0,0,0,1.224,1.683,2.98,2.98,0,0,0,1.724.541,3.151,3.151,0,0,0,2.481-1.225,5.821,5.821,0,0,0,1.034-3.807,6.148,6.148,0,0,0-.96-3.757A2.968,2.968,0,0,0,769.667,373.756Z" transform="translate(-662.027 -362.823)" fill="#fff"/>
        </g>
      </g>
    </g>
    <g id="Group_287" data-name="Group 287" transform="translate(399.243 135.844)">
      <g id="Group_285" data-name="Group 285" transform="translate(0 0)">
        <path id="Path_4412" data-name="Path 4412" d="M525.8,178.9a8.559,8.559,0,0,1-6.093-2.525l-12.912-12.907a8.635,8.635,0,0,1,0-12.188L519.7,138.374a8.6,8.6,0,0,1,12.188,0L544.8,151.281a8.625,8.625,0,0,1,0,12.188l-12.906,12.907A8.568,8.568,0,0,1,525.8,178.9Zm0-38.215a3.72,3.72,0,0,0-2.67,1.108L510.212,154.7a3.773,3.773,0,0,0,0,5.342l12.914,12.906a3.869,3.869,0,0,0,5.342,0l12.9-12.906a3.773,3.773,0,0,0,0-5.342l-12.9-12.911A3.732,3.732,0,0,0,525.8,140.686Z" transform="translate(-504.275 -135.844)" fill="#fff"/>
      </g>
      <g id="Group_286" data-name="Group 286" transform="translate(12.076 17.722)">
        <path id="Path_4413" data-name="Path 4413" d="M569.2,218.449l-4.607-4.607a1.861,1.861,0,0,0-.654-.433,1.974,1.974,0,0,0-1.535,0,1.779,1.779,0,0,0-.651.433l-4.61,4.607-3.419-3.433,4.6-4.6a6.867,6.867,0,0,1,9.7,0l4.592,4.6Z" transform="translate(-553.723 -208.414)" fill="#fff"/>
      </g>
    </g>
  </g>
</svg>
