<svg xmlns="http://www.w3.org/2000/svg" width="150" height="50" viewBox="0 0 150 50">
  <g id="Group_293" data-name="Group 293" transform="translate(-49.842 -155.89)">
    <path id="Path_4371" data-name="Path 4371" d="M191.235,192.257c.367-2.453.595-4.965.708-7.278a54.992,54.992,0,0,1,2.491,7.278Zm-5.011,7.361h3.652c.312-1.269.6-2.651.849-4.061h4.532c.368,1.607.65,3.018.791,4.061h3.795c-.538-3.891-2.8-13.172-5.634-17.657h-5.8A70.7,70.7,0,0,1,186.224,199.618Zm-9.372-14.47h.934c2.181,0,3.2.959,3.2,2.765,0,1.269-.481,2.257-2.151,2.257h-1.672C177.133,188.476,177.021,186.784,176.852,185.148Zm-4.22,14.47H176.4a56.746,56.746,0,0,0,.707-6.288h2.039a29.716,29.716,0,0,1,1.3,6.288h4.389a24.948,24.948,0,0,0-2.633-7.08,5.225,5.225,0,0,0,2.662-4.908c0-4.175-3.2-5.669-7.109-5.669h-5.124a47.906,47.906,0,0,1,0,17.657Zm-12.43,0H170.4a11.563,11.563,0,0,0,.536-3.329H164.76a34.683,34.683,0,0,0,.339-3.89h4.021a9.341,9.341,0,0,0,0-3.331H165.1c-.085-1.3-.2-2.566-.4-3.808h5.89a9.752,9.752,0,0,0-.538-3.3H160.2a33.089,33.089,0,0,1,1.189,8.829A32.162,32.162,0,0,1,160.2,199.618Zm-11.893,0h4.021A27.949,27.949,0,0,0,153.6,193.5h3.851a8.615,8.615,0,0,0,.142-3.3h-3.879a28.443,28.443,0,0,0-.511-4.937H158.7a8.757,8.757,0,0,0-.736-3.3h-9.657a25.527,25.527,0,0,1,1.615,8.829A24.377,24.377,0,0,1,148.309,199.618Zm-13.59-.591a16.3,16.3,0,0,0,5.21.875c4.418,0,6.654-2.2,6.654-5.219,0-3.132-2.406-4.6-4.134-5.7-1.5-.9-2.633-1.607-2.633-2.567,0-1.071,1.048-1.325,2.322-1.325a28.306,28.306,0,0,1,3.851.311,7.92,7.92,0,0,0-1.048-3.386,15.785,15.785,0,0,0-3.256-.367c-4.473,0-5.748,2.483-5.748,4.654,0,5.388,6.767,5.925,6.767,8.606,0,1.184-1.247,1.5-2.407,1.5a11.249,11.249,0,0,1-3.624-.65A13.961,13.961,0,0,1,134.718,199.027Zm-33.44-8.237a22.888,22.888,0,0,0,1.784,8.827h4.161a18.176,18.176,0,0,1-1.67-4.626c.426-.649,1.049-1.5,1.728-2.4a51.89,51.89,0,0,0,3.992,7.023h5.04a59.428,59.428,0,0,1-6.454-10.3c2.349-2.934,4.9-5.953,6.143-7.361h-4.446c-1.273,1.55-4.615,5.557-6.427,8.068a18.679,18.679,0,0,1,2.094-8.068h-4.132A22.081,22.081,0,0,0,101.279,190.791Zm-10.872-.621a32.367,32.367,0,0,1,.48-5.022h1.16c1.728,0,2.6.394,2.6,1.889,0,1.665-.877,3.133-3.426,3.133Zm-3.767.621a36.766,36.766,0,0,0,1.077,8.827h3.907a32.686,32.686,0,0,1-1.1-6.288h.765a11.119,11.119,0,0,0,1.416-.086,34.677,34.677,0,0,0,2.859,6.374h4.87a38.285,38.285,0,0,1-4.53-7.588,6.428,6.428,0,0,0,2.578-5.387c0-3.78-2.8-4.682-5.862-4.682h-4.9A36.593,36.593,0,0,0,86.64,190.791ZM50,181.961c-.621,4.287.654,13,2.69,17.657h4.927a48.542,48.542,0,0,1,1.729-11.791A44.727,44.727,0,0,0,62.2,199.618h4.927a72.9,72.9,0,0,1,3.058-17.657H66.423a57.074,57.074,0,0,0-2.32,12.157,42.336,42.336,0,0,1-1.586-12.157H57.76a54.729,54.729,0,0,0-2.974,12.327,44.66,44.66,0,0,1-1.132-12.327Z" transform="translate(0 -12.866)" fill="#fff"/>
    <path id="Path_4372" data-name="Path 4372" d="M154.762,161.353a3.557,3.557,0,1,0,1.308,4.863A3.552,3.552,0,0,0,154.762,161.353ZM99.448,155.89a8.559,8.559,0,1,0,8.574,8.544A8.527,8.527,0,0,0,99.448,155.89Zm45.785,12.858a9.111,9.111,0,1,0,9.108,9.114A9.094,9.094,0,0,0,145.233,168.748Z" transform="translate(-20.593 0)" fill="#fff"/>
    <text id="Atmósfera_para_emprender" data-name="Atmósfera para emprender" transform="translate(110.902 202.89)" fill="#fff" font-size="9" font-family="AvenirNext-Regular, Avenir Next"><tspan x="-55.84" y="0">Atmósfera para emprender</tspan></text>
  </g>
</svg>
