<svg xmlns="http://www.w3.org/2000/svg" width="200.717" height="342.305" viewBox="0 0 200.717 342.305">
  <g id="Group_5" data-name="Group 5" transform="matrix(0.469, -0.883, 0.883, 0.469, -569.821, 3690.191)">
    <path id="Path_36" data-name="Path 36" d="M3656.79-1124.872c-.3-1.339-.643-2.67-.938-4.011a1.747,1.747,0,0,0-1.273-1.327,4.427,4.427,0,0,1-2.045-1.3,1.855,1.855,0,0,0-1.762-.963c-1.633.087-3.264.219-4.893.351a19.171,19.171,0,0,0-7.614,1.7,5.177,5.177,0,0,1-1.347.243c-3.914.792-7.847,1.5-11.732,2.417-2.286.539-4.489,1.422-6.737,2.127q-5.619,1.761-11.25,3.489c-.437.135-.908.162-1.344.3-2.62.841-5.262,1.625-7.837,2.586-1.337.5-2.5,1.449-3.835,1.972-2.591,1.018-5.245,1.875-7.87,2.806-2.6.92-5.247,1.716-7.769,2.808-3.172,1.373-6.615,2.205-9.359,4.5a2.957,2.957,0,0,1-1.608.588c-.849.058-1.4-.161-1.625-.6-4.728,2.194-9.385,4.535-14.075,6.809a7.589,7.589,0,0,1-3.13,2.04,3.134,3.134,0,0,0-2.1,1.8c1.256.929,1.333,1.026,2.051.453,1.583-1.263,3.517-1.156,5.28-1.2,1.443-.035,2.114,1.569,2.805,2.744a1.639,1.639,0,0,1-.479,2.271,3.764,3.764,0,0,0-.543.81,3.041,3.041,0,0,0,3.054-.165c2.255-1.146,4.627-2.061,7.138-3.151l1.676,4.8c1.708-.879,3.286-1.647,4.813-2.5a2.357,2.357,0,0,0,1.03-1.136,29.938,29.938,0,0,0,.953-3.575c.259-1.205.7-1.773,1.5-1.735.829.038,1.247.617,1.311,1.825.007.13-.022.262-.027.393a1.217,1.217,0,0,0,.975,1.3,1.153,1.153,0,0,0,1.446-.727,4.632,4.632,0,0,0,.367-1.669c.03-.65-.16-1.309-.131-1.96.044-1.056.607-1.437,1.7-1.251.308.052.61.133.876.192,1.778-2.871,3.373-4.043,5.868-2.826.135.438.311.929.437,1.433.656,2.641,1.4,2.927,3.6,1.355a2.756,2.756,0,0,0,.466-.546c-.159-.708-.33-1.336-.439-1.974a2.982,2.982,0,0,1,1.892-3.758c.349-.177.77-.219,1.1-.416.613-.363,1.245-.756,1.065-1.857a10.108,10.108,0,0,0-5.537.107,8.316,8.316,0,0,0-3.538,2.005,8.408,8.408,0,0,1-3.351,2.242c-1.02.418-2,.929-3.019,1.4l-1.64-1.043a10.176,10.176,0,0,0-1.229,1.094,8.123,8.123,0,0,1-3.792,2.681,59.607,59.607,0,0,0-8.31,3.5,49.071,49.071,0,0,1-4.988,1.941c0-.936.047-1.391-.008-1.833-.236-1.914,1.208-3.051,2.423-3.693a13.738,13.738,0,0,0,2.986-2.042,8.8,8.8,0,0,1,1.861-1.07c.516-.275,1.069-.487,1.565-.793,1.769-1.092,4.03-1.035,5.672-2.456.227-.2.763-.039,1.155-.037a6.161,6.161,0,0,0,3.523-1c1.411-.919,2.653-2.115,4.428-2.477,1.691-.344,3.541-.455,4.766-1.992a.943.943,0,0,1,.537-.224c3.4-.629,6.4-2.248,9.466-3.724a9.61,9.61,0,0,1,1.317-.359c1.935-.6,3.921-1.089,5.787-1.866,2.081-.867,4.454-.976,6.3-2.432a.343.343,0,0,1,.191-.035c2.576-.023,4.875-1.554,7.5-1.368.4.027.821-.356,1.237-.54a23.706,23.706,0,0,1,3.756-1.606c3.556-.87,7.156-1.56,10.736-2.33a2.145,2.145,0,0,0,.923-.318c1.949-1.654,3.983-.767,5.978-.195.8.231.989,1,.545,1.763-.162.279-.439.49-.62.761-.9,1.349-.4,2.5,1.187,2.608,1.435.1,2.88.047,4.318.113a4.706,4.706,0,0,1,2.1.314c1.708,1.025,3.291.521,4.893-.131C3656.922-1122.985,3657.122-1123.415,3656.79-1124.872Z" transform="translate(-79.682)" fill="#fff"/>
    <path id="Path_37" data-name="Path 37" d="M3463.508-1081.16c-2.825,1.351-5.606,2.793-8.4,4.213-.87.443-1.727.911-2.583,1.384-2.338,1.293-4.646,2.646-7.015,3.88-2.43,1.265-5.1,2.155-7.332,3.687-2.318,1.589-4.906,2.472-7.368,3.671-1.759.857-3.713,1.327-5.441,2.234-2.951,1.549-5.8,3.287-8.677,4.979-6.441,3.791-12.98,7.4-19.7,10.68-3.942,1.926-7.853,3.938-11.643,6.143a39.935,39.935,0,0,1-5.818,2.722,30.311,30.311,0,0,0-4.089,2.292c-.666.385-1.334.768-1.979,1.185a4.776,4.776,0,0,0-1.349,1.02c-.713.991-1.219,2.132-1.958,3.1a8.9,8.9,0,0,1-2.544,2.655,29.14,29.14,0,0,0-5.989,4.683,21.468,21.468,0,0,1-6.986,4.622,3.083,3.083,0,0,0-1.549,1.355,12.175,12.175,0,0,1-7.814,6.366,2.789,2.789,0,0,0-.872.44c-1.666,1.209-3.968,1.5-5.087,3.507a.709.709,0,0,1-.488.308c-1.593.122-2.5,1.313-3.616,2.214a5.217,5.217,0,0,1-1.876,1.033,9.3,9.3,0,0,0-4.065,2.651,12.351,12.351,0,0,1-2.608,2.051,26.369,26.369,0,0,0-5.654,3.471,27.719,27.719,0,0,1-3.441,2.558c-2.013,1.335-4.08,2.591-6.111,3.9a56.653,56.653,0,0,0-5.867,3.908,28.786,28.786,0,0,1-5.857,3.849c-1.306.642-2.541,1.444-4.051.6-.688,1.977-2.448,2.409-3.875,3.482l-1.4-1.782a2.713,2.713,0,0,0-.692.368c-1,1.01-2.251,1.762-2.923,3.1-.524,1.047-1.937,1.21-2.536,2.01a30.067,30.067,0,0,1-4.887,4.508,4.456,4.456,0,0,0-1.7,2.507,13.37,13.37,0,0,1-1.4,4.85c-.729,1.569-.205,2.667,1.363,3.554a13.777,13.777,0,0,1,2.112,1.43,2.655,2.655,0,0,0,3.446.235c1.2-.783,2.319-1.694,3.49-2.526a8.846,8.846,0,0,1,1.809-1.134,34.477,34.477,0,0,1,4.277-1.422,8.467,8.467,0,0,0,5.431-3.91,3.538,3.538,0,0,1,3.06-1.861,2.965,2.965,0,0,0,2.527-1.289,3.426,3.426,0,0,1,3.23-1.506,5.812,5.812,0,0,0,4.075-1.154,12.942,12.942,0,0,0,1.892-2.151c1.805-2.24,3.648-4.453,5.36-6.761a3.256,3.256,0,0,1,2.765-1.564c.639.005,1.214-.057,1.454-.733a1.82,1.82,0,0,1,2.575-1.3,1.874,1.874,0,0,0,2.376-1.519,6.109,6.109,0,0,0,.146-1.552,7.29,7.29,0,0,1,1.156-3.818,4.23,4.23,0,0,1,3.563,2.065,3.316,3.316,0,0,0,2.856-1.3,28.135,28.135,0,0,1,6.352-4.575,8.441,8.441,0,0,0,3.688-4.173,4.184,4.184,0,0,1,1.737-2.03,32.627,32.627,0,0,0,5.39-4.193c1.736-1.636,2.615-1.527,3.923.413,1.642,2.433,2.086,2.454,3.675.076.427-.639.8-1.128,1.707-1.009a3.155,3.155,0,0,0,2.922-1.286,2.248,2.248,0,0,1,1.288-.807c1.864-.2,2.973-1.321,4.108-2.686.97-1.167,1.867-2.545,3.789-2.689.77-.057,1.518-1.125,2.165-1.835a8.628,8.628,0,0,0,.965-1.677c-1.176-3.407-1.176-3.407,0-4.448a11.29,11.29,0,0,1,.846,1.472c.345.884.859,1.513,1.877,1.4,1.084-.121,1-.985,1.08-1.789a4.6,4.6,0,0,1,.989-2.7c1.451-1.723,3.362-2.82,5.108-4.146.874-.664,1.674-1.425,2.542-2.1a7.182,7.182,0,0,1,2.4-1.624,6.486,6.486,0,0,0,2.59-1.25c.521-.392,1.106-.989,1.663-.991,1.957,0,3.042-1.289,4.27-2.467a7.359,7.359,0,0,1,1.671-1,13.156,13.156,0,0,0,2.76-1.473,17.82,17.82,0,0,1,4.546-2.674,21.845,21.845,0,0,0,4.573-2.585,13.389,13.389,0,0,1,3.615-2.285c2.248-.9,2.237-.914,3.91.75a2.581,2.581,0,0,0,.787.573.965.965,0,0,0,1.366-.915,1.907,1.907,0,0,0-.177-.959c-.836-1.442-.118-2.334,1.016-3.124.43-.3.788-.715,1.241-.967,1.811-1.007,3.125-2.811,5.264-3.282a8.441,8.441,0,0,0,4.477-2.3c.285-.3.87-.281,1.252-.515,1.372-.84,3.145-1,4.174-2.41.872-1.194,1.847-2.19,3.461-2.229.18,0,.351-.181.538-.231,1.192-.321,2.4-.605,3.582-.95a14.9,14.9,0,0,0,2.143-.781,10.413,10.413,0,0,0,1.48-.953,20.755,20.755,0,0,0,2.07-1.5,1.993,1.993,0,0,0,.463-2.485,2.148,2.148,0,0,0-2.719-.1c-.157.112-.253.316-.416.415a6.276,6.276,0,0,1-1.691.931,5.9,5.9,0,0,0-2.658,1.576,4.2,4.2,0,0,1-2.164,1.144,3.563,3.563,0,0,0-2.1.852c-1.093.9-2.292,1.555-3.662.935a12.736,12.736,0,0,1-1.546,1.048c-.578.278-1.262.342-1.823.643-1.745.936-2.723.615-3.709-1.341a7.106,7.106,0,0,1,6.266-3.988,3.6,3.6,0,0,0,2.649-1.488c1.957-2.363,4.161-4.388,7.53-4.435a2.52,2.52,0,0,0,1.408-.6c1.656-1.338,4.064-1.511,5.323-3.479.177-.277.683-.376,1.057-.488a25.9,25.9,0,0,0,7.844-3.959c.816-.595,1.713-1.255,1.488-2.761A7.415,7.415,0,0,0,3463.508-1081.16ZM3301.109-973.7l-.51-.562c.147-.095.3-.268.442-.262a.563.563,0,0,1,.413.3C3301.489-974.136,3301.288-973.956,3301.109-973.7Zm26.742-16.953a2.148,2.148,0,0,1-.545-.383c.115-.127.242-.368.343-.358a2.506,2.506,0,0,1,.7.332C3328.1-990.845,3327.936-990.623,3327.852-990.65Zm13.713-12.076-1.189-.067c.015-.19.032-.38.047-.57l1.185.165Z" transform="translate(0 -15.014)" fill="#fff"/>
  </g>
</svg>
