<svg xmlns="http://www.w3.org/2000/svg" width="68.52" height="68.52" viewBox="0 0 68.52 68.52">
  <g id="Group_7" data-name="Group 7" transform="translate(162.119 529.521)">
    <path id="Path_66" data-name="Path 66" d="M-103.334-495.7a20.134,20.134,0,0,0-4.666-.636c-5.862-.292-9.539,2.756-12.374,6.876l-5.919-.295a2.724,2.724,0,0,0-2.513,1.425L-131.9-482.7a1.421,1.421,0,0,0,.518,1.909,1.33,1.33,0,0,0,.6.178l5.895.293-1.342,1.248a1.908,1.908,0,0,0-.131,2.642l2.744,3.116a1.785,1.785,0,0,0,2.57.128h0l1.341-1.248-.3,6.063a1.384,1.384,0,0,0,1.294,1.469,1.326,1.326,0,0,0,.615-.117l5.75-2.6a2.809,2.809,0,0,0,1.63-2.43l.3-6.1c4.258-2.5,7.587-5.967,7.884-11.963a21.3,21.3,0,0,0-.149-4.842A.917.917,0,0,0-103.334-495.7Z" transform="translate(-10.592 -11.694)" fill="#fff"/>
    <path id="Path_67" data-name="Path 67" d="M-127.86-529.521a34.3,34.3,0,0,0-34.259,34.26A34.3,34.3,0,0,0-127.86-461,34.3,34.3,0,0,0-93.6-495.261,34.3,34.3,0,0,0-127.86-529.521Zm0,65.282a31.057,31.057,0,0,1-31.022-31.022,31.058,31.058,0,0,1,31.022-31.023,31.058,31.058,0,0,1,31.023,31.023A31.058,31.058,0,0,1-127.86-464.239Z" fill="#fff"/>
  </g>
</svg>
