<svg xmlns="http://www.w3.org/2000/svg" xmlns:xlink="http://www.w3.org/1999/xlink" width="117.335" height="135.364" viewBox="0 0 117.335 135.364">
  <defs>
    <linearGradient id="linear-gradient" x1="0.5" y1="1" x2="0.5" gradientUnits="objectBoundingBox">
      <stop offset="0" stop-color="#9f2fff"/>
      <stop offset="1" stop-color="#0bb1d3"/>
    </linearGradient>
  </defs>
  <path id="aqualung" d="M91.338,4.644a14.272,14.272,0,0,0-20.094-.017l-5.821,5.8a22.633,22.633,0,0,0-5.613,9.333l-.8-.8a10.083,10.083,0,0,0-14.255,0l-1.52,1.52-7.362-7.363A7.844,7.844,0,1,0,24.783,24.219l7.362,7.363L23.707,40.02a10.079,10.079,0,0,0,0,14.254l1.857,1.858a14.635,14.635,0,0,0-2.876,2.2L2.3,78.724A7.845,7.845,0,0,0,7.845,92.116H8.34a7.9,7.9,0,0,0,4.708-1.569L29.4,78.28,17.135,94.638a7.88,7.88,0,0,0-1.569,4.706v.495a7.844,7.844,0,0,0,13.392,5.545L49.35,84.992a14.566,14.566,0,0,0,2.2-2.876l1.857,1.858a10.078,10.078,0,0,0,14.255,0l3.25-3.251,4.979,4.98a1.73,1.73,0,0,1,0,2.446l-2.027,2.027a5.192,5.192,0,0,0,0,7.336l38.89,38.35h4.582L76.31,95.069a1.73,1.73,0,0,1,0-2.446L78.336,90.6a5.192,5.192,0,0,0,0-7.336L73.357,78.28,76.1,75.536,83.463,82.9A7.844,7.844,0,1,0,94.556,71.806l-7.362-7.362,1.52-1.521a10.079,10.079,0,0,0,0-14.254l-.8-.8a22.6,22.6,0,0,0,9.334-5.613l5.852-5.874a14.146,14.146,0,0,0-.015-19.992ZM47.2,21.413a6.782,6.782,0,0,1,9.364,0l2.4,2.4a22.083,22.083,0,0,0-.163,2.558c0,.512.043,1.012.076,1.517a10.049,10.049,0,0,0-9.014-.771l-4.182-4.182ZM40.644,35.19l-8.8-8.8,6.2-6.2L46.864,29c-.127.112-.256.22-.376.341Zm-14.7-16.518a4.386,4.386,0,0,1,7.487-3.1L35.6,17.746l-6.2,6.2-2.174-2.175A4.357,4.357,0,0,1,25.943,18.672Zm.209,33.158a6.622,6.622,0,0,1,0-9.364l8.438-8.439L38.2,37.635l-5.844,5.844A10.009,10.009,0,0,0,29.4,50.607a9.856,9.856,0,0,0,.746,3.734c-.4.078-.777.209-1.165.32Zm2.84,22.433-9.558,7.169-7.476-7.476,11.7-11.7ZM10.97,87.78a4.412,4.412,0,0,1-2.632.877H7.845a4.386,4.386,0,0,1-3.1-7.487L9.513,76.4l7.128,7.128Zm22.448-9.09,12.006,5.336-11.7,11.7-7.477-7.477Zm-6.906,24.248a4.386,4.386,0,0,1-7.487-3.1v-.495a4.415,4.415,0,0,1,.877-2.631l4.251-5.669,7.128,7.128ZM47.924,81.353,33.856,75.1l-1.275-1.274L26.329,59.758a10.973,10.973,0,0,1,5.979-2.2l6.313,6.314,2.446-2.446-6.756-6.758a6.53,6.53,0,0,1,.49-8.746L48.934,31.791a6.782,6.782,0,0,1,9.364,0l1.667,1.668A22.586,22.586,0,0,0,74.222,47.715l1.667,1.668a6.622,6.622,0,0,1,0,9.366L61.757,72.882a6.689,6.689,0,0,1-8.748.487l-6.754-6.754L43.81,69.061l6.314,6.313A11.007,11.007,0,0,1,47.924,81.353Zm30.412-20.16c.119-.119.226-.251.341-.375l8.813,8.814-6.2,6.2-8.8-8.8ZM65.216,81.53a6.782,6.782,0,0,1-9.364,0L53.021,78.7c.111-.388.242-.766.32-1.164A10.091,10.091,0,0,0,64.2,75.328l5.844-5.845,3.608,3.609ZM93.4,77.353a4.386,4.386,0,0,1-7.487,3.1L83.735,78.28l6.2-6.2,2.174,2.175A4.357,4.357,0,0,1,93.4,77.353ZM86.268,51.114a6.622,6.622,0,0,1,0,9.364L84.748,62l-4.182-4.182a10.05,10.05,0,0,0-.771-9.015c.5.033,1,.077,1.517.077a22.1,22.1,0,0,0,2.558-.163Zm14.386-17.17L94.8,39.818A19.048,19.048,0,1,1,67.864,12.88l5.822-5.8a10.81,10.81,0,0,1,15.2.012l11.75,11.75a10.691,10.691,0,0,1,.014,15.1ZM82.984,12.993a7.349,7.349,0,0,0-10.31-.009l-2.366,2.348A15.587,15.587,0,1,0,92.354,37.372l2.39-2.411a7.173,7.173,0,0,0,2.11-5.105,7.268,7.268,0,0,0-2.117-5.109Zm9.308,19.53L89.9,34.934a12.129,12.129,0,1,1-17.155-17.15l2.368-2.349a3.736,3.736,0,0,1,2.659-1.1,3.827,3.827,0,0,1,2.767,1.1L92.294,27.194a3.791,3.791,0,0,1,1.1,2.664A3.748,3.748,0,0,1,92.292,32.523ZM73.357,55.8,51.886,34.325,37.334,48.878,58.8,70.347ZM51.886,39.216,68.466,55.8,58.8,65.457,42.225,48.878Zm8.648,13.121a5.189,5.189,0,1,0-5.189,5.189A5.195,5.195,0,0,0,60.534,52.337Zm-5.189,1.73a1.73,1.73,0,1,1,1.73-1.73A1.733,1.733,0,0,1,55.346,54.066Zm0,0" transform="translate(0 -0.5)" opacity="0.501" fill="url(#linear-gradient)"/>
</svg>
