<svg xmlns="http://www.w3.org/2000/svg" xmlns:xlink="http://www.w3.org/1999/xlink" width="142.716" height="142.598" viewBox="0 0 142.716 142.598">
  <defs>
    <linearGradient id="linear-gradient" x1="0.5" y1="1" x2="0.5" gradientUnits="objectBoundingBox">
      <stop offset="0" stop-color="#9f2fff"/>
      <stop offset="1" stop-color="#0bb1d3"/>
    </linearGradient>
  </defs>
  <path id="astronomy" d="M17.633,142.8c10.874,0,25.4-8.268,38.88-18.15A55.143,55.143,0,0,0,124.5,56.657c2.693-3.7,5.146-7.3,7.3-10.749,7.716-12.343,16.725-30.005,5.935-40.792A17.315,17.315,0,0,0,125.084.2c-9.259,0-22.328,6.116-38.832,18.149A55.2,55.2,0,0,0,18.2,86.365c-2.693,3.7-5.149,7.306-7.288,10.732C3.191,109.44-5.82,127.1,4.971,137.889A17.332,17.332,0,0,0,17.633,142.8ZM121.957,71.5a50.522,50.522,0,0,1-60.682,49.567A354.827,354.827,0,0,0,92.931,93.076a327.809,327.809,0,0,0,27.995-31.657A50.935,50.935,0,0,1,121.957,71.5ZM41.748,118.1c-1.106.731-2.221,1.484-3.3,2.155-14.358,8.972-21.753,9.85-23.724,7.881-2.431-2.43-.156-11.688,10.04-27.071A55.15,55.15,0,0,0,41.748,118.1Zm4.188-2.866a50.625,50.625,0,0,1-13.914-11.914C47.111,98.976,62.57,89.4,75.911,76.057,87.846,64.125,96.745,50.63,101.634,37.042c.579-1.607,1.083-3.233,1.548-4.862a50.664,50.664,0,0,1,11.905,13.9A294.228,294.228,0,0,1,83.175,83.32,294,294,0,0,1,45.935,115.229ZM117.95,41.893a55.184,55.184,0,0,0-17.033-16.977c15.382-10.2,24.639-12.466,27.071-10.041,1.971,1.971,1.093,9.367-7.88,23.722C119.433,39.671,118.682,40.786,117.95,41.893ZM99.194,29.273c-.536,2.078-1.148,4.161-1.886,6.213C92.643,48.441,84.119,61.349,72.659,72.807,59.372,86.093,43.971,95.456,29.12,99.334A50.52,50.52,0,0,1,23.086,86.6c13.135-2.767,27.5-11.234,39.814-23.55,9.893-9.889,17.5-21.339,21.42-32.239a54.443,54.443,0,0,0,2.135-7.576A50.491,50.491,0,0,1,99.194,29.273Zm-17.25-7.24a49.862,49.862,0,0,1-1.953,7.222C76.3,39.528,69.071,50.376,59.649,59.8,47.866,71.581,34.229,79.624,21.9,82.143A50.73,50.73,0,0,1,20.758,71.5c0-1.115.048-2.221.121-3.321,9.168-2.357,19.865-9,29.012-18.147S65.678,30.19,68.039,21.023c1.1-.072,2.2-.12,3.319-.12A50.622,50.622,0,0,1,81.944,22.033Zm-18.8-.453c-2.511,8-8.482,17.185-16.5,25.2s-17.2,13.993-25.2,16.5A50.709,50.709,0,0,1,63.141,21.58ZM14.806,99.535c1.571-2.512,3.321-5.132,5.214-7.819.657,1.674,1.375,3.322,2.189,4.918-8.606,12.6-17.075,28.407-10.732,34.75a8.322,8.322,0,0,0,6.155,2.229c5.4,0,13.176-3.16,23.257-9.46,13.685-8.553,29.856-21.9,45.537-37.579s29.026-31.852,37.58-45.537c9.351-14.964,11.787-24.86,7.233-29.414C124.9,5.281,109.09,13.752,96.486,22.357c-1.585-.812-3.222-1.525-4.885-2.181C105.868,10.112,117.4,4.8,125.084,4.8a12.818,12.818,0,0,1,9.408,3.568c8.47,8.469.3,24.09-6.583,35.1C119.176,57.443,105.6,73.9,89.678,89.824,65.6,113.9,33.985,138.2,17.631,138.2a12.828,12.828,0,0,1-9.408-3.567C-.247,126.165,7.924,110.546,14.806,99.535Zm65.27,12.447.961,4.5a45.788,45.788,0,0,1-4.844.768l-.476-4.574A41.094,41.094,0,0,0,80.077,111.982Zm4.356-1.186a41.54,41.54,0,0,0,27.406-30.577l4.5.965a46.148,46.148,0,0,1-30.452,33.975ZM71.357,60h4.6v4.6h-4.6Zm-25.3,43.7h4.6v4.6h-4.6Zm57.5-48.3h-4.6V50.8h4.6ZM50.658,37h-4.6V32.4h4.6Zm0,0" transform="translate(0.001 -0.203)" opacity="0.501" fill="url(#linear-gradient)"/>
</svg>
