<svg id="Dots" xmlns="http://www.w3.org/2000/svg" width="883.681" height="747.487" viewBox="0 0 883.681 747.487">
  <path id="Fill_28" data-name="Fill 28" d="M17.055,15.49,0,13.414,1.466,0,18.521,2.076Z" transform="matrix(0.485, 0.875, -0.875, 0.485, 809.92, 48.535)" fill="#9169db"/>
  <path id="Fill_30" data-name="Fill 30" d="M15.583,9.182,3.844,14.132,0,4.95,11.738,0Z" transform="matrix(-0.438, 0.899, -0.899, -0.438, 733.361, 67.533)" fill="#e0e2e7"/>
  <path id="Fill_30-2" data-name="Fill 30" d="M15.644,9.231,3.968,14.026,0,4.795,11.676,0Z" transform="translate(870.97 127.124) rotate(-115)" fill="#e0e2e7"/>
  <path id="Fill_30-3" data-name="Fill 30" d="M15.66,9.212l-11.7,4.8L0,4.806,11.7,0Z" transform="matrix(0.309, 0.951, -0.951, 0.309, 872.023, 0)" fill="#e0e2e7"/>
  <path id="Fill_36" data-name="Fill 36" d="M20.887,24.587,0,17.509,5.972,0,26.86,7.078Z" transform="matrix(-0.921, 0.391, -0.391, -0.921, 784.507, 178.718)" fill="#9169db"/>
  <path id="Fill_28-2" data-name="Fill 28" d="M16.958,15.309,0,13.491,1.672,0,18.63,1.817Z" transform="translate(92.027 627.755) rotate(133)" fill="#e0e2e7"/>
  <path id="Fill_30-4" data-name="Fill 30" d="M15.5,9.218,3.81,14.211,0,4.994,11.692,0Z" transform="translate(20.966 736.148) rotate(133)" fill="#e0e2e7"/>
  <path id="Fill_36-2" data-name="Fill 36" d="M21.007,24.392,0,17.41,6.052,0,27.059,6.982Z" transform="translate(180.737 706.437) rotate(133)" fill="#9169db"/>
</svg>
