<svg xmlns="http://www.w3.org/2000/svg" viewBox="0 0 473.06 334.18"><title>logo_n12</title><g id="Layer_2" data-name="Layer 2"><g id="Layer_1-2" data-name="Layer 1"><path d="M241.66,57.29,143.38.49a3.61,3.61,0,0,0-3.61,0L41.39,57.28A3.62,3.62,0,0,0,43.2,64a3,3,0,0,0,1.6-.48L137.57,9.87v85a4,4,0,0,0,8,0v-85l92.66,53.66a3.5,3.5,0,0,0,4.84-1.32,3.63,3.63,0,0,0-1.41-4.93"/><path d="M183,146.81a3.62,3.62,0,0,1-1.81-6.75l45-26a3.61,3.61,0,1,1,3.61,6.26l-45,26a3.6,3.6,0,0,1-1.81.49"/><path d="M243.09,272a3.4,3.4,0,0,0-4.75-1.32l-92.78,53.67v-85a4,4,0,0,0-8,0v85L44.91,270.64A3.5,3.5,0,0,0,40.07,272a3.63,3.63,0,0,0,1.37,4.94l98.3,56.8a3.69,3.69,0,0,0,3.64,0l98.38-56.8a3.63,3.63,0,0,0,1.33-4.94"/><path d="M55.15,220.61a3.62,3.62,0,0,1-1.81-6.75l45-26a3.62,3.62,0,0,1,3.62,6.26l-45,26a3.59,3.59,0,0,1-1.8.49"/><path d="M0,85.35,1.05,206.19a15.8,15.8,0,0,0,15.83,15.63H39.34V134.43L257.08,263.88l26.4-15L283,130.4a15.8,15.8,0,0,0-15.83-15.71h-26.7V196.3L25.32,70.73Z"/><path d="M335.32,158l-19.14,19.48-14.64-15.36,38-38.13h22.41V244.54H336.24V158.39A.54.54,0,0,0,335.32,158Z"/><path d="M382.33,224.3c49.34-36.33,63.79-48.8,63.79-63.62,0-10.48-9.58-15.72-19.52-15.72a43.06,43.06,0,0,0-32.34,13.92l-14.64-17c11.74-13.56,29.64-19.71,46.44-19.71,25.67,0,46.09,14.47,46.09,38.5,0,20.61-17,38.5-48.26,61.27h49.17v22.59H382.33Z"/></g></g></svg>