<svg xmlns="http://www.w3.org/2000/svg" width="216.766" height="50" viewBox="0 0 216.766 50">
  <g id="Group_102" data-name="Group 102" transform="translate(0 0)">
    <g id="Group_100" data-name="Group 100" transform="translate(0 0)">
      <g id="Group_99" data-name="Group 99" transform="translate(0 0)">
        <path id="Path_100" data-name="Path 100" d="M70,8.623,55.2.073a.544.544,0,0,0-.544,0L39.851,8.622a.544.544,0,0,0,.273,1.015.44.44,0,0,0,.242-.073L54.328,1.486v12.8a.605.605,0,0,0,1.2,0V1.487L69.481,9.565a.528.528,0,0,0,.729-.2A.549.549,0,0,0,70,8.623" transform="translate(-33.621 0)"/>
        <path id="Path_101" data-name="Path 101" d="M179.9,118.578a.544.544,0,0,1-.273-1.015l6.779-3.914a.544.544,0,1,1,.544.942l-6.779,3.914a.541.541,0,0,1-.272.073" transform="translate(-152.359 -96.594)"/>
        <path id="Path_102" data-name="Path 102" d="M70.229,241.144a.511.511,0,0,0-.715-.2L55.55,249.024v-12.8a.605.605,0,0,0-1.2,0v12.8L40.4,240.945a.527.527,0,0,0-.729.2.546.546,0,0,0,.206.743l14.8,8.55a.548.548,0,0,0,.547,0l14.809-8.55a.544.544,0,0,0,.2-.743" transform="translate(-33.639 -200.51)"/>
        <path id="Path_103" data-name="Path 103" d="M52.073,192.379a.544.544,0,0,1-.273-1.015l6.779-3.914a.544.544,0,1,1,.544.942l-6.779,3.914a.541.541,0,0,1-.272.073" transform="translate(-43.772 -159.36)"/>
        <path id="Path_104" data-name="Path 104" d="M0,72.911l.159,18a2.367,2.367,0,0,0,2.383,2.329h3.38V80.221L38.7,99.5l3.974-2.242L42.6,79.621a2.366,2.366,0,0,0-2.383-2.34H36.2V89.436L3.812,70.733Z" transform="translate(0 -60.086)"/>
      </g>
      <path id="Path_105" data-name="Path 105" d="M306.626,129.116l-2.88,2.932-2.2-2.313,5.713-5.74h3.373V142.14h-3.863V129.173A.082.082,0,0,0,306.626,129.116Z" transform="translate(-256.152 -105.507)"/>
      <path id="Path_106" data-name="Path 106" d="M380.024,137.554c7.427-5.468,9.6-7.345,9.6-9.576,0-1.578-1.442-2.367-2.938-2.367a6.486,6.486,0,0,0-4.869,2.1l-2.2-2.557a9.242,9.242,0,0,1,6.992-2.966c3.863,0,6.937,2.177,6.937,5.8,0,3.1-2.558,5.795-7.264,9.223h7.4v3.4H380.024Z" transform="translate(-322.474 -103.966)"/>
    </g>
    <g id="Group_101" data-name="Group 101" transform="translate(77.142 18.52)">
      <path id="Path_107" data-name="Path 107" d="M524.036,133.152h3.874v2.566h-3.874v5.26h4.875v2.566h-7.7v-17.96h7.7v2.566h-4.875Z" transform="translate(-521.214 -125.378)"/>
      <path id="Path_108" data-name="Path 108" d="M585.276,124.22c2.745,0,4.157,1.642,4.157,4.516v.564h-2.668v-.744c0-1.283-.513-1.77-1.411-1.77s-1.411.488-1.411,1.77c0,1.309.565,2.284,2.412,3.9,2.36,2.078,3.1,3.566,3.1,5.619,0,2.874-1.437,4.516-4.208,4.516s-4.208-1.642-4.208-4.516v-1.1h2.668v1.283c0,1.283.564,1.745,1.463,1.745s1.463-.462,1.463-1.745c0-1.309-.565-2.283-2.412-3.9-2.361-2.078-3.1-3.567-3.1-5.619C581.119,125.862,582.53,124.22,585.276,124.22Z" transform="translate(-572.036 -124.22)"/>
      <path id="Path_109" data-name="Path 109" d="M642.232,125.583h8.724v2.566H648v15.395h-2.822V128.149h-2.951Z" transform="translate(-624.016 -125.378)"/>
      <path id="Path_110" data-name="Path 110" d="M710.335,125.583v13.855c0,1.283.564,1.745,1.463,1.745s1.462-.462,1.462-1.745V125.583h2.669v13.676c0,2.874-1.437,4.516-4.208,4.516s-4.208-1.642-4.208-4.516V125.583Z" transform="translate(-679.47 -125.378)"/>
      <path id="Path_111" data-name="Path 111" d="M776.2,125.583h4.464c2.822,0,4.208,1.565,4.208,4.439V139.1c0,2.874-1.386,4.439-4.208,4.439H776.2Zm2.822,2.566v12.829h1.591c.9,0,1.437-.462,1.437-1.745v-9.339c0-1.283-.539-1.745-1.437-1.745Z" transform="translate(-737.822 -125.378)"/>
      <path id="Path_112" data-name="Path 112" d="M845.747,125.583h2.822v17.96h-2.822Z" transform="translate(-796.897 -125.378)"/>
      <path id="Path_113" data-name="Path 113" d="M876.6,128.736c0-2.874,1.514-4.516,4.285-4.516s4.285,1.642,4.285,4.516v9.339c0,2.874-1.514,4.516-4.285,4.516s-4.285-1.642-4.285-4.516Zm2.822,9.519c0,1.283.564,1.77,1.463,1.77s1.462-.487,1.462-1.77v-9.7c0-1.283-.564-1.77-1.462-1.77s-1.463.488-1.463,1.77Z" transform="translate(-823.103 -124.22)"/>
      <path id="Path_114" data-name="Path 114" d="M978.93,135.689v2.386c0,2.874-1.437,4.516-4.208,4.516s-4.208-1.642-4.208-4.516v-9.339c0-2.874,1.437-4.516,4.208-4.516s4.208,1.642,4.208,4.516v1.745h-2.668v-1.924c0-1.283-.564-1.77-1.462-1.77s-1.463.488-1.463,1.77v9.7c0,1.283.564,1.745,1.463,1.745s1.462-.462,1.462-1.745v-2.566Z" transform="translate(-902.883 -124.22)"/>
      <path id="Path_115" data-name="Path 115" d="M1043.741,143.543a5.522,5.522,0,0,1-.257-2.207v-2.822c0-1.668-.564-2.284-1.847-2.284h-.975v7.313h-2.822v-17.96h4.259c2.925,0,4.182,1.36,4.182,4.131v1.411c0,1.847-.59,3.028-1.847,3.618v.051c1.411.59,1.873,1.924,1.873,3.8v2.771a5.289,5.289,0,0,0,.308,2.181Zm-3.079-15.395v5.516h1.1c1.052,0,1.694-.462,1.694-1.9V130c0-1.283-.436-1.847-1.437-1.847Z" transform="translate(-960.075 -125.378)"/>
      <path id="Path_116" data-name="Path 116" d="M1109.182,133.152h3.875v2.566h-3.875v5.26h4.875v2.566h-7.7v-17.96h7.7v2.566h-4.875Z" transform="translate(-1018.281 -125.378)"/>
      <path id="Path_117" data-name="Path 117" d="M1174.021,143.543h-2.848l-.488-3.259h-3.464l-.488,3.259h-2.591l2.874-17.96h4.131Zm-6.44-5.7h2.72l-1.334-9.083h-.051Z" transform="translate(-1067.366 -125.378)"/>
      <path id="Path_118" data-name="Path 118" d="M1226.529,125.583h8.724v2.566H1232.3v15.395h-2.823V128.149h-2.95Z" transform="translate(-1120.361 -125.378)"/>
      <path id="Path_119" data-name="Path 119" d="M1292.662,125.583h2.822v17.96h-2.822Z" transform="translate(-1176.54 -125.378)"/>
      <path id="Path_120" data-name="Path 120" d="M1325.08,140.234h.051l2.13-14.651h2.591l-2.771,17.96h-4.208l-2.771-17.96h2.848Z" transform="translate(-1199.849 -125.378)"/>
      <path id="Path_121" data-name="Path 121" d="M1391.862,128.736c0-2.874,1.514-4.516,4.285-4.516s4.285,1.642,4.285,4.516v9.339c0,2.874-1.514,4.516-4.285,4.516s-4.285-1.642-4.285-4.516Zm2.822,9.519c0,1.283.564,1.77,1.463,1.77s1.462-.487,1.462-1.77v-9.7c0-1.283-.564-1.77-1.462-1.77s-1.463.488-1.463,1.77Z" transform="translate(-1260.808 -124.22)"/>
    </g>
  </g>
</svg>
