<svg xmlns="http://www.w3.org/2000/svg" viewBox="0 0 76.32 89.97"><defs><style>.cls-1{fill:#fff;}</style></defs><title>n12_sq</title><g id="Layer_2" data-name="Layer 2"><g id="Layer_2-2" data-name="Layer 2"><path class="cls-1" d="M65.06,15.42,38.6.13a1,1,0,0,0-1,0L11.14,15.42a1,1,0,0,0,.49,1.82.77.77,0,0,0,.43-.13L37,2.66V25.54a1.09,1.09,0,0,0,2.16,0V2.66L64.13,17.11a1,1,0,0,0,1.31-.36,1,1,0,0,0-.38-1.33"/><path class="cls-1" d="M49.26,39.52a1,1,0,0,1-.85-.49,1,1,0,0,1,.36-1.32l12.12-7a1,1,0,1,1,1,1.68l-12.13,7a.94.94,0,0,1-.48.13"/><path class="cls-1" d="M65.44,73.21a.92.92,0,0,0-1.28-.35l-25,14.45V64.42a1.09,1.09,0,0,0-2.16,0V87.31L12.09,72.86a.94.94,0,0,0-1.3.35,1,1,0,0,0,.37,1.33L37.62,89.83a.93.93,0,0,0,1,0L65.08,74.54a1,1,0,0,0,.36-1.33"/><path class="cls-1" d="M14.85,59.39a1,1,0,0,1-.49-1.82l12.12-7a1,1,0,0,1,1,1.69l-12.13,7a.94.94,0,0,1-.48.13"/><path class="cls-1" d="M0,23,.28,55.51a4.26,4.26,0,0,0,4.26,4.21h6.05V36.19L69.21,71,76.32,67,76.19,35.1a4.26,4.26,0,0,0-4.26-4.22H64.74v22L6.82,19Z"/></g></g></svg>