<svg xmlns="http://www.w3.org/2000/svg" width="228.513" height="50" viewBox="0 0 228.513 50">
  <g id="Group_248" data-name="Group 248" transform="translate(-30.194 -21.389)">
    <g id="Group_246" data-name="Group 246" transform="translate(30.194 62.863)">
      <path id="Path_4327" data-name="Path 4327" d="M32.627,127.9h-1.3v2.143H30.194v-6.161h2.659a2.461,2.461,0,0,1,.859.145,2.008,2.008,0,0,1,.677.41,1.854,1.854,0,0,1,.444.636,2.072,2.072,0,0,1,.159.82,2.206,2.206,0,0,1-.086.627,1.85,1.85,0,0,1-.247.528,1.79,1.79,0,0,1-.389.412,2.023,2.023,0,0,1-.51.285l1.373,2.3h-1.3Zm.19-.974a1.113,1.113,0,0,0,.412-.075,1.012,1.012,0,0,0,.331-.208.966.966,0,0,0,.222-.324,1.127,1.127,0,0,0,0-.843,1.013,1.013,0,0,0-.222-.329.989.989,0,0,0-.335-.215,1.125,1.125,0,0,0-.417-.077H31.322v2.07Z" transform="translate(-30.194 -121.648)" fill="#161615"/>
      <path id="Path_4328" data-name="Path 4328" d="M43.765,123.882h4.223v.978H44.893v1.649h2.673v.97H44.893v1.59h3.135v.974H43.765Z" transform="translate(-37.898 -121.648)" fill="#161615"/>
      <path id="Path_4329" data-name="Path 4329" d="M56.121,123.882h2.392a4.045,4.045,0,0,1,1.3.2,2.912,2.912,0,0,1,1.033.594,2.737,2.737,0,0,1,.682.965,3.3,3.3,0,0,1,.247,1.316,3.554,3.554,0,0,1-.213,1.258,2.628,2.628,0,0,1-.628.974,2.853,2.853,0,0,1-1.019.63,3.965,3.965,0,0,1-1.384.224h-2.41Zm2.374,5.187a2.733,2.733,0,0,0,.918-.143,1.819,1.819,0,0,0,.675-.412,1.74,1.74,0,0,0,.415-.657,2.572,2.572,0,0,0,.14-.881,2.7,2.7,0,0,0-.131-.865,1.765,1.765,0,0,0-.4-.668,1.81,1.81,0,0,0-.67-.433,2.65,2.65,0,0,0-.947-.154H57.254v4.213Z" transform="translate(-44.913 -121.648)" fill="#161615"/>
      <path id="Path_4330" data-name="Path 4330" d="M76.839,123.882h2.392a4.045,4.045,0,0,1,1.3.2,2.912,2.912,0,0,1,1.033.594,2.738,2.738,0,0,1,.682.965,3.306,3.306,0,0,1,.247,1.316,3.564,3.564,0,0,1-.213,1.258,2.634,2.634,0,0,1-.628.974,2.855,2.855,0,0,1-1.019.63,3.964,3.964,0,0,1-1.384.224h-2.41Zm2.374,5.187a2.729,2.729,0,0,0,.917-.143,1.821,1.821,0,0,0,.675-.412,1.745,1.745,0,0,0,.414-.657,2.572,2.572,0,0,0,.14-.881,2.691,2.691,0,0,0-.131-.865,1.769,1.769,0,0,0-.4-.668,1.81,1.81,0,0,0-.67-.433,2.654,2.654,0,0,0-.947-.154H77.972v4.213Z" transform="translate(-56.675 -121.648)" fill="#161615"/>
      <path id="Path_4331" data-name="Path 4331" d="M92.653,123.882h4.222v.978H93.781v1.649h2.673v.97H93.781v1.59h3.135v.974H92.653Z" transform="translate(-65.653 -121.648)" fill="#161615"/>
      <path id="Path_4332" data-name="Path 4332" d="M114.605,125.8a1.952,1.952,0,0,0-.326-.541,2.084,2.084,0,0,0-.465-.4,2.137,2.137,0,0,0-.564-.251,2.261,2.261,0,0,0-.621-.086,2.155,2.155,0,0,0-.858.172,2.193,2.193,0,0,0-.7.473,2.285,2.285,0,0,0,0,3.2,2.193,2.193,0,0,0,.7.473,2.155,2.155,0,0,0,.858.172,2.3,2.3,0,0,0,.619-.083,2.138,2.138,0,0,0,.562-.247,2.027,2.027,0,0,0,.464-.4,1.954,1.954,0,0,0,.326-.542h1.159a2.743,2.743,0,0,1-.473.963,3.175,3.175,0,0,1-.752.7,3.454,3.454,0,0,1-2.793.466,3.3,3.3,0,0,1-.8-.324,3.436,3.436,0,0,1-.675-.5,3.118,3.118,0,0,1-.521-.65,3.248,3.248,0,0,1-.335-.77,3.153,3.153,0,0,1,0-1.721,3.263,3.263,0,0,1,.335-.77,3.118,3.118,0,0,1,.521-.65,3.352,3.352,0,0,1,1.47-.822,3.431,3.431,0,0,1,.887-.114,3.531,3.531,0,0,1,.983.143,3.34,3.34,0,0,1,.922.426,3.089,3.089,0,0,1,.752.706,2.784,2.784,0,0,1,.473.986Z" transform="translate(-75.101 -121.458)" fill="#161615"/>
      <path id="Path_4333" data-name="Path 4333" d="M126.137,126.763a3.064,3.064,0,0,1,.12-.861,3.263,3.263,0,0,1,.335-.77,3.119,3.119,0,0,1,.521-.65,3.352,3.352,0,0,1,1.47-.822,3.514,3.514,0,0,1,1.773,0,3.343,3.343,0,0,1,1.472.822,3.157,3.157,0,0,1,.523.65,3.2,3.2,0,0,1,.338.77,3.153,3.153,0,0,1,0,1.721,3.179,3.179,0,0,1-.861,1.42,3.436,3.436,0,0,1-.675.5,3.288,3.288,0,0,1-.8.324,3.527,3.527,0,0,1-1.773,0,3.3,3.3,0,0,1-.8-.324,3.436,3.436,0,0,1-.675-.5,3.119,3.119,0,0,1-.521-.65,3.248,3.248,0,0,1-.335-.77A3.064,3.064,0,0,1,126.137,126.763Zm1.128,0a2.252,2.252,0,0,0,.648,1.6,2.2,2.2,0,0,0,.7.473,2.155,2.155,0,0,0,.859.172,2.192,2.192,0,0,0,1.567-.645,2.208,2.208,0,0,0,.471-.711,2.366,2.366,0,0,0,0-1.774,2.187,2.187,0,0,0-2.038-1.36,2.156,2.156,0,0,0-.859.172,2.2,2.2,0,0,0-.7.473,2.264,2.264,0,0,0-.648,1.6Z" transform="translate(-85.183 -121.458)" fill="#161615"/>
      <path id="Path_4334" data-name="Path 4334" d="M143.648,126.763a3.049,3.049,0,0,1,.12-.861,3.261,3.261,0,0,1,.335-.77,3.118,3.118,0,0,1,.521-.65,3.357,3.357,0,0,1,.675-.5,3.392,3.392,0,0,1,.8-.322,3.514,3.514,0,0,1,1.773,0,3.343,3.343,0,0,1,1.472.822,3.159,3.159,0,0,1,.523.65,3.217,3.217,0,0,1,.338.77,3.153,3.153,0,0,1,0,1.721,3.2,3.2,0,0,1-.338.77,3.159,3.159,0,0,1-.523.65,3.436,3.436,0,0,1-.675.5,3.288,3.288,0,0,1-.8.324,3.527,3.527,0,0,1-1.773,0,3.307,3.307,0,0,1-.8-.324,3.436,3.436,0,0,1-.675-.5,3.118,3.118,0,0,1-.521-.65,3.246,3.246,0,0,1-.335-.77A3.049,3.049,0,0,1,143.648,126.763Zm1.128,0a2.252,2.252,0,0,0,.648,1.6,2.2,2.2,0,0,0,.7.473,2.155,2.155,0,0,0,.859.172,2.192,2.192,0,0,0,1.567-.645,2.208,2.208,0,0,0,.471-.711,2.366,2.366,0,0,0,0-1.774,2.187,2.187,0,0,0-2.038-1.36,2.156,2.156,0,0,0-.859.172,2.2,2.2,0,0,0-.7.473,2.264,2.264,0,0,0-.648,1.6Z" transform="translate(-95.22 -121.458)" fill="#161615"/>
      <path id="Path_4335" data-name="Path 4335" d="M162.906,128.032v2.011h-1.128v-6.161h2.6a2.3,2.3,0,0,1,.859.156,2.065,2.065,0,0,1,.677.433,1.944,1.944,0,0,1,.444.659,2.289,2.289,0,0,1,0,1.667,1.94,1.94,0,0,1-.44.655,1.974,1.974,0,0,1-.673.428,2.328,2.328,0,0,1-.852.152Zm1.427-.974a1.028,1.028,0,0,0,.415-.084,1.015,1.015,0,0,0,.333-.231,1.107,1.107,0,0,0,.222-.347,1.123,1.123,0,0,0,.082-.431,1.143,1.143,0,0,0-.082-.433,1.109,1.109,0,0,0-.224-.351,1.087,1.087,0,0,0-.335-.237.978.978,0,0,0-.415-.089h-1.423v2.2Z" transform="translate(-105.605 -121.648)" fill="#161615"/>
      <path id="Path_4336" data-name="Path 4336" d="M175.234,123.882h4.222v.978h-3.094v1.649h2.673v.97h-2.673v1.59H179.5v.974h-4.263Z" transform="translate(-113.315 -121.648)" fill="#161615"/>
      <path id="Path_4337" data-name="Path 4337" d="M190.022,127.9h-1.3v2.143H187.59v-6.161h2.659a2.461,2.461,0,0,1,.859.145,2.007,2.007,0,0,1,.677.41,1.848,1.848,0,0,1,.444.636,2.064,2.064,0,0,1,.159.82,2.222,2.222,0,0,1-.086.627,1.863,1.863,0,0,1-.247.528,1.8,1.8,0,0,1-.389.412,2.033,2.033,0,0,1-.51.285l1.373,2.3h-1.3Zm.191-.974a1.109,1.109,0,0,0,.412-.075,1,1,0,0,0,.331-.208.973.973,0,0,0,.222-.324,1.132,1.132,0,0,0,0-.843,1.021,1.021,0,0,0-.222-.329.985.985,0,0,0-.335-.215,1.123,1.123,0,0,0-.417-.077h-1.486v2.07Z" transform="translate(-120.398 -121.648)" fill="#161615"/>
      <path id="Path_4338" data-name="Path 4338" d="M204.252,128.863h-2.84l-.485,1.173h-1.192l2.564-6.166h1.069l2.564,6.166h-1.2Zm-2.442-.97h2.039l-.979-2.378-.036-.159h0l-.036.159Z" transform="translate(-127.364 -121.642)" fill="#161615"/>
      <path id="Path_4339" data-name="Path 4339" d="M219.863,125.8a1.953,1.953,0,0,0-.326-.541,2.084,2.084,0,0,0-.465-.4,2.137,2.137,0,0,0-.564-.251,2.26,2.26,0,0,0-.62-.086,2.156,2.156,0,0,0-.859.172,2.2,2.2,0,0,0-.7.473,2.285,2.285,0,0,0,0,3.2,2.2,2.2,0,0,0,.7.473,2.155,2.155,0,0,0,.859.172,2.3,2.3,0,0,0,.618-.083,2.138,2.138,0,0,0,.562-.247,2.018,2.018,0,0,0,.464-.4,1.954,1.954,0,0,0,.326-.542h1.159a2.743,2.743,0,0,1-.473.963,3.175,3.175,0,0,1-.752.7,3.454,3.454,0,0,1-2.793.466,3.3,3.3,0,0,1-.8-.324,3.436,3.436,0,0,1-.675-.5,3.119,3.119,0,0,1-.521-.65,3.229,3.229,0,0,1-.335-.77,3.142,3.142,0,0,1,0-1.721,3.244,3.244,0,0,1,.335-.77,3.119,3.119,0,0,1,.521-.65,3.352,3.352,0,0,1,1.47-.822,3.432,3.432,0,0,1,.888-.114,3.53,3.53,0,0,1,.983.143,3.34,3.34,0,0,1,.922.426,3.088,3.088,0,0,1,.752.706,2.783,2.783,0,0,1,.473.986Z" transform="translate(-135.858 -121.458)" fill="#161615"/>
      <path id="Path_4340" data-name="Path 4340" d="M232.348,123.882h1.128v6.161h-1.128Z" transform="translate(-146.031 -121.648)" fill="#161615"/>
      <path id="Path_4341" data-name="Path 4341" d="M237.652,124.02a3.065,3.065,0,0,1,.12-.861,3.262,3.262,0,0,1,.335-.77,3.121,3.121,0,0,1,.521-.65,3.352,3.352,0,0,1,1.47-.822,3.514,3.514,0,0,1,1.773,0,3.343,3.343,0,0,1,1.472.822,3.157,3.157,0,0,1,.523.65,3.2,3.2,0,0,1,.338.77,3.142,3.142,0,0,1,0,1.721,3.173,3.173,0,0,1-.861,1.42,3.436,3.436,0,0,1-.675.5,3.3,3.3,0,0,1-.8.324,3.527,3.527,0,0,1-1.773,0,3.3,3.3,0,0,1-.8-.324,3.437,3.437,0,0,1-.675-.5,3.121,3.121,0,0,1-.521-.65,3.247,3.247,0,0,1-.335-.77A3.065,3.065,0,0,1,237.652,124.02Zm1.128,0a2.252,2.252,0,0,0,.648,1.6,2.193,2.193,0,0,0,.7.473,2.155,2.155,0,0,0,.858.172,2.192,2.192,0,0,0,1.567-.645,2.215,2.215,0,0,0,.471-.711,2.366,2.366,0,0,0,0-1.774,2.208,2.208,0,0,0-.471-.714,2.195,2.195,0,0,0-1.567-.646,2.155,2.155,0,0,0-.858.172,2.193,2.193,0,0,0-.7.473,2.228,2.228,0,0,0-.473.714A2.254,2.254,0,0,0,238.78,124.024Zm3.329-5.019-.852,1.078h-.788l.824-1.368Z" transform="translate(-149.098 -118.715)" fill="#161615"/>
      <path id="Path_4342" data-name="Path 4342" d="M261.231,130.043h-.97l-3.352-4.209v4.209h-1.128v-6.161h.97l3.357,4.208v-4.208h1.124Z" transform="translate(-159.482 -121.648)" fill="#161615"/>
      <path id="Path_4343" data-name="Path 4343" d="M276.6,123.882h1.128v6.161H276.6Z" transform="translate(-171.39 -121.648)" fill="#161615"/>
      <path id="Path_4344" data-name="Path 4344" d="M287.975,130.043h-.97l-3.352-4.209v4.209h-1.128v-6.161h.97l3.357,4.208v-4.208h1.123Z" transform="translate(-174.809 -121.648)" fill="#161615"/>
      <path id="Path_4345" data-name="Path 4345" d="M299.174,124.856h-1.83v-.974h4.793v.974H300.3v5.187h-1.128Z" transform="translate(-183.298 -121.648)" fill="#161615"/>
      <path id="Path_4346" data-name="Path 4346" d="M310.621,123.882h4.222v.978h-3.094v1.649h2.673v.97h-2.673v1.59h3.135v.974h-4.263Z" transform="translate(-190.903 -121.648)" fill="#161615"/>
      <path id="Path_4347" data-name="Path 4347" d="M325.41,127.9h-1.3v2.143h-1.128v-6.161h2.659a2.461,2.461,0,0,1,.859.145,2.007,2.007,0,0,1,.677.41,1.853,1.853,0,0,1,.444.636,2.072,2.072,0,0,1,.159.82,2.206,2.206,0,0,1-.086.627,1.85,1.85,0,0,1-.247.528,1.79,1.79,0,0,1-.389.412,2.023,2.023,0,0,1-.51.285l1.373,2.3h-1.3Zm.19-.974a1.112,1.112,0,0,0,.412-.075,1.008,1.008,0,0,0,.331-.208.965.965,0,0,0,.222-.324,1.127,1.127,0,0,0,0-.843,1.013,1.013,0,0,0-.222-.329.989.989,0,0,0-.335-.215,1.123,1.123,0,0,0-.417-.077h-1.486v2.07Z" transform="translate(-197.989 -121.648)" fill="#161615"/>
      <path id="Path_4348" data-name="Path 4348" d="M342,130.043h-.97l-3.352-4.209v4.209h-1.128v-6.161h.969l3.357,4.208v-4.208H342Z" transform="translate(-205.771 -121.648)" fill="#161615"/>
      <path id="Path_4349" data-name="Path 4349" d="M355.559,128.863h-2.84l-.485,1.173h-1.192l2.564-6.166h1.069l2.564,6.166h-1.2Zm-2.442-.97h2.039l-.979-2.378-.036-.159h0l-.036.159Z" transform="translate(-214.083 -121.642)" fill="#161615"/>
      <path id="Path_4350" data-name="Path 4350" d="M371.17,125.8a1.952,1.952,0,0,0-.326-.541,2.083,2.083,0,0,0-.465-.4,2.138,2.138,0,0,0-.564-.251,2.26,2.26,0,0,0-.62-.086,2.156,2.156,0,0,0-.858.172,2.2,2.2,0,0,0-.7.473,2.285,2.285,0,0,0,0,3.2,2.2,2.2,0,0,0,.7.473,2.155,2.155,0,0,0,.858.172,2.3,2.3,0,0,0,.618-.083,2.132,2.132,0,0,0,.562-.247,2.018,2.018,0,0,0,.464-.4,1.943,1.943,0,0,0,.326-.542h1.159a2.743,2.743,0,0,1-.473.963,3.176,3.176,0,0,1-.752.7,3.454,3.454,0,0,1-2.793.466,3.307,3.307,0,0,1-.8-.324,3.436,3.436,0,0,1-.675-.5,3.118,3.118,0,0,1-.521-.65,3.229,3.229,0,0,1-.335-.77,3.142,3.142,0,0,1,0-1.721,3.244,3.244,0,0,1,.335-.77,3.118,3.118,0,0,1,.521-.65,3.357,3.357,0,0,1,.675-.5,3.392,3.392,0,0,1,.8-.322,3.431,3.431,0,0,1,.888-.114,3.528,3.528,0,0,1,.983.143,3.334,3.334,0,0,1,.922.426,3.09,3.09,0,0,1,.752.706,2.784,2.784,0,0,1,.473.986Z" transform="translate(-222.579 -121.458)" fill="#161615"/>
      <path id="Path_4351" data-name="Path 4351" d="M383.655,123.882h1.128v6.161h-1.128Z" transform="translate(-232.732 -121.648)" fill="#161615"/>
      <path id="Path_4352" data-name="Path 4352" d="M388.958,126.763a3.049,3.049,0,0,1,.12-.861,3.261,3.261,0,0,1,.335-.77,3.117,3.117,0,0,1,.521-.65,3.352,3.352,0,0,1,1.47-.822,3.514,3.514,0,0,1,1.773,0,3.344,3.344,0,0,1,1.472.822,3.16,3.16,0,0,1,.523.65,3.216,3.216,0,0,1,.338.77,3.153,3.153,0,0,1,0,1.721,3.2,3.2,0,0,1-.338.77,3.16,3.16,0,0,1-.523.65,3.436,3.436,0,0,1-.675.5,3.288,3.288,0,0,1-.8.324,3.527,3.527,0,0,1-1.773,0,3.3,3.3,0,0,1-.8-.324,3.435,3.435,0,0,1-.675-.5,3.117,3.117,0,0,1-.521-.65,3.245,3.245,0,0,1-.335-.77A3.049,3.049,0,0,1,388.958,126.763Zm1.128,0a2.252,2.252,0,0,0,.648,1.6,2.2,2.2,0,0,0,.7.473,2.155,2.155,0,0,0,.858.172,2.192,2.192,0,0,0,1.567-.645,2.209,2.209,0,0,0,.471-.711,2.366,2.366,0,0,0,0-1.774,2.187,2.187,0,0,0-2.038-1.36,2.156,2.156,0,0,0-.858.172,2.2,2.2,0,0,0-.7.473,2.265,2.265,0,0,0-.648,1.6Z" transform="translate(-235.819 -121.458)" fill="#161615"/>
      <path id="Path_4353" data-name="Path 4353" d="M412.538,130.043h-.97l-3.352-4.209v4.209h-1.128v-6.161h.969l3.357,4.208v-4.208h1.124Z" transform="translate(-246.198 -121.648)" fill="#161615"/>
      <path id="Path_4354" data-name="Path 4354" d="M426.1,128.863h-2.84l-.485,1.173h-1.192l2.564-6.166h1.069l2.564,6.166h-1.2Zm-2.442-.97h2.039l-.979-2.378-.036-.159h0l-.036.159Z" transform="translate(-254.512 -121.642)" fill="#161615"/>
      <path id="Path_4355" data-name="Path 4355" d="M437.824,123.882h1.128v5.187h2.781v.974h-3.91Z" transform="translate(-263.798 -121.648)" fill="#161615"/>
      <path id="Path_4356" data-name="Path 4356" d="M457.022,128.222l-1.826-2.5v4.317h-1.128v-6.161h.983l2.125,2.85,2.134-2.85h.987v6.161h-1.128v-4.308l-1.844,2.487Z" transform="translate(-273.57 -121.648)" fill="#161615"/>
      <path id="Path_4357" data-name="Path 4357" d="M471.779,123.882H476v.978h-3.094v1.649h2.672v.97h-2.672v1.59h3.134v.974h-4.263Z" transform="translate(-283.624 -121.648)" fill="#161615"/>
      <path id="Path_4358" data-name="Path 4358" d="M485.832,126.043l1.49-2.161h1.328l-2.111,2.94,2.306,3.221h-1.337l-1.676-2.437-1.676,2.437h-1.332l2.3-3.221-2.111-2.94h1.332Z" transform="translate(-289.895 -121.648)" fill="#161615"/>
      <path id="Path_4359" data-name="Path 4359" d="M498.764,123.882h1.128v6.161h-1.128Z" transform="translate(-298.944 -121.648)" fill="#161615"/>
      <path id="Path_4360" data-name="Path 4360" d="M509.376,125.8a1.941,1.941,0,0,0-.326-.541,2.084,2.084,0,0,0-.465-.4,2.129,2.129,0,0,0-.564-.251,2.264,2.264,0,0,0-.621-.086,2.152,2.152,0,0,0-.858.172,2.195,2.195,0,0,0-.7.473,2.285,2.285,0,0,0,0,3.2,2.195,2.195,0,0,0,.7.473,2.152,2.152,0,0,0,.858.172,2.3,2.3,0,0,0,.619-.083,2.129,2.129,0,0,0,.562-.247,2.018,2.018,0,0,0,.464-.4,1.932,1.932,0,0,0,.326-.542h1.159a2.736,2.736,0,0,1-.473.963,3.174,3.174,0,0,1-.752.7,3.455,3.455,0,0,1-2.793.466,3.3,3.3,0,0,1-.795-.324,3.438,3.438,0,0,1-.675-.5,3.119,3.119,0,0,1-.521-.65,3.248,3.248,0,0,1-.335-.77,3.142,3.142,0,0,1,0-1.721,3.263,3.263,0,0,1,.335-.77,3.119,3.119,0,0,1,.521-.65,3.358,3.358,0,0,1,1.47-.822,3.434,3.434,0,0,1,.888-.114,3.526,3.526,0,0,1,.983.143,3.338,3.338,0,0,1,.922.426,3.088,3.088,0,0,1,.752.706,2.776,2.776,0,0,1,.473.986Z" transform="translate(-301.955 -121.458)" fill="#161615"/>
      <path id="Path_4361" data-name="Path 4361" d="M524.953,128.863h-2.84l-.485,1.173h-1.192L523,123.871h1.069l2.564,6.166h-1.2Zm-2.442-.97h2.039l-.979-2.378-.036-.159h0l-.036.159Z" transform="translate(-311.248 -121.642)" fill="#161615"/>
      <path id="Path_4362" data-name="Path 4362" d="M542.13,130.043h-.97l-3.352-4.209v4.209H536.68v-6.161h.97l3.357,4.208v-4.208h1.124Z" transform="translate(-320.47 -121.648)" fill="#161615"/>
    </g>
    <g id="Group_247" data-name="Group 247" transform="translate(252.509 65.092)">
      <path id="Path_4363" data-name="Path 4363" d="M555.319,128.863h-2.841l-.485,1.173H550.8l2.564-6.166h1.069L557,130.037h-1.2Zm-2.442-.97h2.038l-.978-2.378-.036-.159h0l-.036.159Z" transform="translate(-550.803 -123.871)" fill="#161615"/>
    </g>
    <path id="Path_4364" data-name="Path 4364" d="M516.476,58.625l-9.01-.013h-.74V39.127l-.086-.022c-.239.342-.479.683-.717,1.027q-3.325,4.813-6.644,9.629a.579.579,0,0,1-.558.306c-.564-.023-1.13-.019-1.694,0a.538.538,0,0,1-.529-.279q-3.481-5.2-6.979-10.379a1.238,1.238,0,0,0-.335-.361V58.586h-9.756V23.456h.432c2.58,0,5.161,0,7.741-.006a.671.671,0,0,1,.629.324q4.724,6.7,9.467,13.386c.051.071.112.136.193.234l1.655-2.29q4.1-5.677,8.205-11.356a.585.585,0,0,1,.527-.3c2.619.01,5.238.006,7.857.007a3.276,3.276,0,0,1,.342.037Z" transform="translate(-257.773 -1.17)"/>
    <path id="Path_4365" data-name="Path 4365" d="M358.575,58.3c-.619-.076-1.24-.137-1.858-.228a19.332,19.332,0,0,1-10.743-5.166,17.859,17.859,0,0,1-.954-25.221,18.8,18.8,0,0,1,12.349-6.174,20.107,20.107,0,0,1,15.993,5.13,14.856,14.856,0,0,1,2.885,3.589L368.3,35.559a8.187,8.187,0,0,0-1.5-2.75,9.106,9.106,0,0,0-7.786-3.272,9.749,9.749,0,0,0-8.919,8.688,10.667,10.667,0,0,0,2.412,8.624,9.415,9.415,0,0,0,13.628.735,7.727,7.727,0,0,0,2-3.114c.042-.121.086-.241.132-.36.009-.022.032-.038.068-.078l8.053,5.055c-.278.428-.532.853-.818,1.254a18.632,18.632,0,0,1-10.545,7.16,41.675,41.675,0,0,1-4.195.737c-.086.015-.169.042-.252.064Z" transform="translate(-177.904 0)"/>
    <path id="Path_4366" data-name="Path 4366" d="M180.726,58.6V23.466c.145-.007.281-.019.416-.019,4.981,0,9.962-.04,14.943.011a20.375,20.375,0,0,1,10.986,3.007,15.3,15.3,0,0,1,6.968,10.194,20.174,20.174,0,0,1-.982,11.941,15.188,15.188,0,0,1-9.124,8.615,21.167,21.167,0,0,1-7.418,1.35c-5.147.041-10.295.027-15.442.035Zm9.739-8.157c.145.006.27.017.4.017,1.489,0,2.978.029,4.466-.01a17.591,17.591,0,0,0,2.753-.245,7.356,7.356,0,0,0,6.269-5.738,13.714,13.714,0,0,0-.056-6.965,7.5,7.5,0,0,0-2.081-3.622,8.326,8.326,0,0,0-5.483-2.213c-2.023-.1-4.053-.061-6.08-.08a.938.938,0,0,0-.184.037Z" transform="translate(-86.361 -1.16)"/>
    <path id="Path_4367" data-name="Path 4367" d="M40.241,47.722V58.583H30.508V23.454h.427c5.186,0,10.372-.023,15.558.009a13.269,13.269,0,0,1,8.318,2.761A11.174,11.174,0,0,1,59.2,34.9a11.558,11.558,0,0,1-4.09,9.928c-.623.524-1.337.941-2.042,1.43L60.1,58.586c-.169.01-.288.022-.408.023-3.453,0-6.906,0-10.359.007a.53.53,0,0,1-.558-.338c-1.7-3.393-3.41-6.778-5.1-10.172a.6.6,0,0,0-.643-.393C42.122,47.737,41.213,47.722,40.241,47.722Zm.035-16.14v8c1.944,0,3.855.035,5.764-.023a3.473,3.473,0,0,0,1.555-.492A3.8,3.8,0,0,0,49.446,35.2a3.876,3.876,0,0,0-3.256-3.586,10.265,10.265,0,0,0-1.46-.036C43.256,31.579,41.782,31.581,40.277,31.581Z" transform="translate(-0.178 -1.168)"/>
    <path id="Path_4368" data-name="Path 4368" d="M109.284,23.517h25.323v8.095h-15.6c-.008.169-.019.294-.019.418,0,1.579.011,3.159-.01,4.737,0,.36.1.449.45.447q6.182-.017,12.364-.007h.506v8.1H119.014V50.5h15.819v8.124H109.284Z" transform="translate(-44.901 -1.208)"/>
    <path id="Path_4369" data-name="Path 4369" d="M295.011,37.194v8.122H281.717v5.176h15.825v8.133H271.986V23.513h25.33v8.1h-15.6v5.578Z" transform="translate(-138.659 -1.206)"/>
    <path id="Path_4370" data-name="Path 4370" d="M441.679,23.517h9.688V58.626h-9.688Z" transform="translate(-235.803 -1.208)"/>
  </g>
</svg>
