<svg xmlns="http://www.w3.org/2000/svg" viewBox="0 0 756.49 295.82"><defs><style>.cls-1{fill:#c8a874;}.cls-2{fill:#1c2632;}.cls-3{fill:#1b2632;}</style></defs><title>logo_alt</title><g id="Layer_2" data-name="Layer 2"><g id="Layer_1-2" data-name="Layer 1"><path class="cls-1" d="M375.09,110.31c-1.34-15.47-11.46-18.52-25.58-18.52H339.2V192c0,13.75,6.11,15.65,18.32,15.65v3.82H303.89v-3.82c12.21,0,18.32-1.9,18.32-15.65V91.79H310.57c-15.08,0-21.57,3.63-24.24,18.52h-4.78l1.34-26h95.63l1.34,26Z"/><path class="cls-1" d="M440.36,213.38c-39.89,0-49.25-31.49-49.25-65.47s9.36-65.47,49.25-65.47,49.25,31.49,49.25,65.47S480.25,213.38,440.36,213.38Zm0-123.5c-30,0-30.35,36.27-30.35,58s.38,58,30.35,58,30.35-36.27,30.35-58S470.33,89.88,440.36,89.88Z"/><path class="cls-1" d="M616,211.47,577.84,147H570V192c0,13,4.77,15.65,16.8,15.65v3.82H536.42v-3.82c12,.19,16.6-2.67,16.6-15.65V103.81c0-13-4.58-15.65-16.6-15.65V84.35H587c19.66,0,42.76,5,42.76,29.2,0,20.61-14.51,30.54-33.41,32.07l25.2,42.76c5.54,9.35,11.07,19.27,23.48,19.27v3.82ZM582.42,91.79c-11.07,0-12.41,1.91-12.41,12.6v35.12c19.28,0,41.8-.95,41.8-26C611.81,96.75,596.74,91.79,582.42,91.79Z"/><path class="cls-1" d="M707.24,213.38c-39.89,0-49.24-31.49-49.24-65.47s9.35-65.47,49.24-65.47,49.25,31.49,49.25,65.47S747.14,213.38,707.24,213.38Zm0-123.5c-30,0-30.35,36.27-30.35,58s.39,58,30.35,58,30.35-36.27,30.35-58S737.21,89.88,707.24,89.88Z"/><path class="cls-2" d="M510.86,213.38a12,12,0,1,1,12-12A12,12,0,0,1,510.86,213.38Z"/><path class="cls-3" d="M119.73,242.84c.13,3,.13,3-2.1,4.88a48.24,48.24,0,0,0-6.82,6.81,16.8,16.8,0,0,0-3.36,13.7,71.43,71.43,0,0,0,2.64,9.58c.54,1.74,1.09,3.48,1.54,5.34a11,11,0,0,0-9.18-2.76,10.64,10.64,0,0,0-7.94,6A5.1,5.1,0,0,0,91.93,282c-3.5-2.34-4.37-5.55-3.37-9.47.34-1.34.63-2.7,1-4a13.1,13.1,0,0,0-1.31-10.18c-.13-.21-.24-.43-.36-.65a4.72,4.72,0,0,1-.26-4.16c.22-.6.49-1.19.76-1.77a8.34,8.34,0,0,0-1.55-9.59,16.63,16.63,0,0,0-6.74-4.2,36.33,36.33,0,0,0-17.68-2c-1.54.2-3.09.37-4.85.59a28.06,28.06,0,0,1,3.85-3.74,74.56,74.56,0,0,1,17-10.48A44.3,44.3,0,0,0,89,215.8a28.55,28.55,0,0,0,7.41-9A16.5,16.5,0,0,0,98,196.4a3.65,3.65,0,0,0-.18-.56.83.83,0,0,0-.24-.19c-.34,0-.26.34-.24.55.4,5.94-2.23,10.51-6.5,14.33a36.26,36.26,0,0,1-12.3,7c-3.83,1.35-7.67,2.66-11.37,4.35A68.81,68.81,0,0,0,48.89,234a59.74,59.74,0,0,0-10,11.94,11.14,11.14,0,0,1-2.16,2.23,52.64,52.64,0,0,0-9,10.21,29,29,0,0,0-4.67,13.31c0,.25-.05.49-.08.72-.46.2-.67-.15-.91-.36a14,14,0,0,0-18.6.27c-.27.25-.48.66-1,.57h0a2,2,0,0,1,.42-1.09,109.13,109.13,0,0,0,6.37-14.54A61,61,0,0,0,12.36,244c.23-2.12.44-4.23.6-6.35A6.21,6.21,0,0,1,14.42,234c3.06-3.58,5.87-7.35,8.79-11a7,7,0,0,0,1.36-6.23,47.45,47.45,0,0,1,3.06-29.19A94.9,94.9,0,0,1,40,167.46l2.17-2.82c.2-.13.44-.26.32-.54,0-.06-.26,0-.4,0-2.46.22-4.93.43-7.39.67-3.69.36-7.38,1-11.1.73-5.52-.38-10.29-2.39-13.81-6.85a14.82,14.82,0,0,1-2.94-7.52c-.59-4.61.15-8.89,3.22-12.56a18.48,18.48,0,0,1,8-5.43,17.94,17.94,0,0,1,2.54-.83,3.61,3.61,0,0,0,2.53-1.84,6.93,6.93,0,0,1,5.23-3.51,8.3,8.3,0,0,1,3.61.55c.16.68-.71.66-.72,1.3,2.23.36,4.36.28,6.21-1.33,0,.2.13.31.1.38a20.1,20.1,0,0,1-5,8c-1.6,1.45-3.4,2.41-5.68,1.77l-.29-.06c-1.47.6-2.93,1.19-4.39,1.8A14.28,14.28,0,0,0,17,142.44a8.91,8.91,0,0,0-2.2,9.2A8.66,8.66,0,0,0,22,157.82a15.39,15.39,0,0,0,5.46-.21c7.17-1.18,14.25-2.81,21.4-4.14,4.66-.86,9.34-1.65,14-2.28,2.6-.36,5.19-.73,7.79-1.06a23.74,23.74,0,0,1,2.67-.11l12.19-.1c.89,0,1.77-.11,2.66-.16.12.13.23.11.33,0A68.12,68.12,0,0,0,111,144.66a63.62,63.62,0,0,0,21.9-14.76,30,30,0,0,0,6.25-9.68,126.89,126.89,0,0,0,6-18.63,58.33,58.33,0,0,0,1.72-15.3c-.15-3.86-2.24-6.24-5.59-7.66a75,75,0,0,0-8.16-2.72c-3.76-1.1-7.26-2.63-9.92-5.66a21.24,21.24,0,0,1-3.37-4.88c-1.36-2.89-1-5.69,1.53-7.92a19.1,19.1,0,0,1,4.28-2.65c1.79-.86,3.56-1.73,5.38-2.53a1.36,1.36,0,0,0,.93-1.74c-.27-1.11-.54-2.21-.82-3.31-.67-2.69-.95-5.36.18-8a11.91,11.91,0,0,1,3.94-4.71c.3,1.52.55,2.86.83,4.2.15.72.33,1.44.55,2.15a7.53,7.53,0,0,0,9,5.39c.13.12.22,0,.31-.07a26.63,26.63,0,0,0,4-1.1,49.48,49.48,0,0,1,9.19-2.31,5.86,5.86,0,0,1,1.62,0c.83.11,1.68.16,2.52.21a5.82,5.82,0,0,0,3.54-.9c.5-.32,1-.62,1.52-.94a9.7,9.7,0,0,1,5.48-1.6l3.57.09A25.36,25.36,0,0,0,193,34.54a45.37,45.37,0,0,0,13.6-16.1c2.57-4.91,1.75-9.68-1.33-14.16-.81-1.19-1.85-2.19-2.77-3.3-.21-.25-.54-.44-.5-1a22.56,22.56,0,0,1,6.52,1.8,11.75,11.75,0,0,1,6.82,8.47,17.6,17.6,0,0,1,0,6.63c-.83,5.49-3.15,10.4-5.85,15.16-1,1.85-2.16,3.65-3.32,5.6a9.15,9.15,0,0,0,2.42-.57c1.85-.55,3.69-1.13,5.54-1.68a1.81,1.81,0,0,1,2.15,1c.1.29-.07.46-.22.65-5,6.13-10.22,11.88-17.62,15.17-1.86.82-3.67,1.75-5.48,2.67-1.18.59-1.17.62-.47,1.71q5.2,8.06,10.42,16.1Q214.12,89.88,225.29,107a122.59,122.59,0,0,1,15.08,31.7,108.86,108.86,0,0,1,3.78,18.14,102.87,102.87,0,0,1,.44,18.4A120.06,120.06,0,0,1,240,201.06a212.51,212.51,0,0,1-10.6,28.36c-2.18,4.89-4.51,9.7-6.84,14.52a41.12,41.12,0,0,0-2.37,28.12,1.76,1.76,0,0,1,0,1.18c-3.41-3.2-7.32-4.56-11.89-3.51a10.67,10.67,0,0,0-6.46,4.37,2.15,2.15,0,0,0,1.43-.24,22,22,0,0,1,9.64-1.27,23.77,23.77,0,0,1,6.49,1.51,3.44,3.44,0,0,1,2,2l4.77,11.54a18.88,18.88,0,0,1,1.1,3.69c.38,1.94-.3,3.08-2.19,3.53a20.83,20.83,0,0,1-4.71.61c-6.19,0-12.39,0-18.59,0a11,11,0,0,1-1.62-.19,4.07,4.07,0,0,1-3.32-4.81,60.82,60.82,0,0,1,3.89-14.9,10.61,10.61,0,0,0-.26-9.06c-.37-.75-.69-1.53-1-2.31a7.76,7.76,0,0,1-.61-3.92,16.68,16.68,0,0,0-1.38-8.56c-.65-1.54-1.22-3.11-1.87-4.8a17.88,17.88,0,0,0-2.7,2c-3.88,3.08-7.7,6.25-11.62,9.27-6.87,5.28-14.44,5.68-22.39,3-1-.34-1-.48-.32-1.44a146.16,146.16,0,0,0,9.91-15,108,108,0,0,0,12-29.79,65.44,65.44,0,0,0,1.69-16.5v-3.2a.63.63,0,0,0-.31.58c0,.87,0,1.75,0,2.63a71.58,71.58,0,0,1-4.24,20.71A106.44,106.44,0,0,1,168,239.1a131.85,131.85,0,0,1-14.73,19.73,4.8,4.8,0,0,1-1.6,1.3,3.7,3.7,0,0,0-1.93,2.17c-1.19,3.14-2.4,6.29-3.57,9.44a22.76,22.76,0,0,0-.55,2.28c-2.17-2.58-4.53-4.48-7.64-5.2s-6,0-8.82,1.05c-.59-5.19-1.45-10.24-2.33-15.29-.48-2.78-1.21-5.51-1.81-8.26a66.78,66.78,0,0,1-1.15-8.23c-.32-3.54-.71-7.08-1-10.63-.14-1.43-.3-2.85-.36-4.29-.11-2.77-.32-5.53-.44-8.3s-.2-5.45-.11-8.17a135.25,135.25,0,0,1,.73-13.93,13.41,13.41,0,0,1,.47-2.89,34.47,34.47,0,0,0,1.37-4.58,12.08,12.08,0,0,0-1.86,4.53,62.52,62.52,0,0,0-2,10.15,152.72,152.72,0,0,0-1.21,16.27c-.16,6.79-.12,13.58,0,20.37.05,1.87.24,3.75.23,5.63C119.45,242.45,119.45,242.65,119.73,242.84ZM97,194.43c.05.19.11.46.3.44s.19-.31.17-.51a3.8,3.8,0,0,0-1.22-2.42ZM165.88,43.64a5.69,5.69,0,0,0-.38.62,11.1,11.1,0,0,0,3.63,12.27,16.2,16.2,0,0,0,10.67,2.89A24.19,24.19,0,0,0,189.21,57a3.74,3.74,0,0,0,1.65-1c-2-.11-3.84-.24-5.65-.29a63.64,63.64,0,0,1-8.27-.6c-5.14-.83-8.73-3.53-10.22-8.68C166.47,45.58,166.21,44.75,165.88,43.64Z"/><path class="cls-3" d="M151.51,295.41c-6.18,0-12.37.07-18.56,0-2,0-4-.19-6.08-.19a2.51,2.51,0,0,1-2-.88,4.87,4.87,0,0,1-1.42-4.17c.27-2.06.26-4.15.43-6.22a23.88,23.88,0,0,1,1.13-6.7,16.25,16.25,0,0,1,2-3.65,4.21,4.21,0,0,1,3.08-1.86,21.65,21.65,0,0,1,14.79,3.74,2.1,2.1,0,0,1,1,1.37,5.84,5.84,0,0,0,1.61,2.79c.54.58,1.1,1.15,1.6,1.75a10,10,0,0,1,2.35,6c.14,2.61.26,5.23.39,7.85Z"/><path class="cls-3" d="M14,295.82a26.42,26.42,0,0,1-4.16-.26,7.64,7.64,0,0,1-6.43-6c-.45-1.62-.8-3.26-1.19-4.9a16.38,16.38,0,0,0-1.7-4.42A3.84,3.84,0,0,1,0,278.42,2.29,2.29,0,0,1,1.39,276c4.61-2.46,9.39-4.21,14.75-3.72a42.46,42.46,0,0,1,6.12,1.11.82.82,0,0,1,.74.91c0,3.94,1.29,7.59,2.52,11.25a35.7,35.7,0,0,1,1.53,5.27c0,.19.08.38.11.58.32,2.46-.36,3.37-2.79,3.79a19,19,0,0,1-3.11.26C18.74,295.47,16.22,295.68,14,295.82Z"/><path class="cls-3" d="M97.11,295.25a5.19,5.19,0,0,1-3.24-6.35,8.76,8.76,0,0,0,.25-1,1.76,1.76,0,0,1,1.12-1.43,23,23,0,0,1,14.13-2.32c3,.5,3,.42,3.59,3.46.43,2.14.88,4.27,1.3,6.4.26,1.29.14,1.4-1.23,1.43-4.62.12-9.22-.25-13.83-.18l-1.78,0Z"/></g></g></svg>