<svg xmlns="http://www.w3.org/2000/svg" width="100" height="111.581" viewBox="0 0 100 111.581">
  <g id="writing" transform="translate(-26.57)">
    <g id="Group_150" data-name="Group 150" transform="translate(26.57)">
      <g id="Group_149" data-name="Group 149" transform="translate(0)">
        <path id="Path_4281" data-name="Path 4281" d="M160.466,204.391A4.391,4.391,0,0,0,156.076,200H110.85a4.391,4.391,0,0,0,0,8.782h45.226A4.391,4.391,0,0,0,160.466,204.391Z" transform="translate(-89.197 -156.441)" fill="#fff"/>
        <path id="Path_4282" data-name="Path 4282" d="M110.85,280a4.391,4.391,0,0,0,0,8.782h27.467a4.391,4.391,0,0,0,0-8.782Z" transform="translate(-89.121 -219.017)" fill="#fff"/>
        <path id="Path_4283" data-name="Path 4283" d="M58.551,102.864H43.988a8.723,8.723,0,0,1-8.709-8.717V17.435a8.723,8.723,0,0,1,8.709-8.717H97.523a8.723,8.723,0,0,1,8.709,8.717V44.24a4.354,4.354,0,1,0,8.709,0V17.435A17.446,17.446,0,0,0,97.523,0H43.988A17.446,17.446,0,0,0,26.57,17.435V94.146a17.446,17.446,0,0,0,17.418,17.435H58.551a4.359,4.359,0,0,0,0-8.717Z" transform="translate(-26.57)" fill="#fff"/>
        <path id="Path_4284" data-name="Path 4284" d="M292.728,275.877a13.186,13.186,0,0,0-18.625,0L250,299.926a4.392,4.392,0,0,0-1.1,1.832l-5.25,17.283a4.39,4.39,0,0,0,5.374,5.508l17.723-4.909a4.389,4.389,0,0,0,1.93-1.124l24.056-24.011A13.188,13.188,0,0,0,292.728,275.877Zm-29.442,35.609-8.916,2.47,2.609-8.59,16.266-16.23,6.211,6.211Zm23.236-23.192-.851.849-6.21-6.21.848-.846a4.391,4.391,0,0,1,6.213,6.207Z" transform="translate(-196.58 -213.128)" fill="#fff"/>
        <path id="Path_4285" data-name="Path 4285" d="M156.076,120H110.85a4.391,4.391,0,0,0,0,8.782h45.226a4.391,4.391,0,0,0,0-8.782Z" transform="translate(-89.197 -93.865)" fill="#fff"/>
      </g>
    </g>
  </g>
</svg>
