<svg xmlns="http://www.w3.org/2000/svg" width="100" height="117.555" viewBox="0 0 100 117.555">
  <g id="satellite" transform="translate(3.076 0.001)">
    <path id="Path_268" data-name="Path 268" d="M208.649,465.03c2.138-2.137-1.176-5.451-3.313-3.313s1.177,5.45,3.313,3.313C209.085,464.595,208.213,465.466,208.649,465.03Zm0,0" transform="translate(-169.507 -376.207)" fill="#fff"/>
    <path id="Path_269" data-name="Path 269" d="M62.059,66.057c-3.482,3.753-5.429,8.164-5.208,11.8.185,3.044,4.861,2.712,4.678-.284-.107-1.755.869-4.99,3.966-8.329s6.249-4.553,8.008-4.579c3.008-.043,2.946-4.72-.067-4.686C69.793,60.033,65.54,62.3,62.059,66.057Zm0,0" transform="translate(-48.799 -48.856)" fill="#fff"/>
    <path id="Path_270" data-name="Path 270" d="M8.543,12.692C13,7.889,18.59,4.746,22.787,4.686,25.794,4.643,25.737-.03,22.72,0c-5.5.08-12.248,3.721-17.614,9.506S-3.385,22.292-3.052,27.781c.185,3.044,4.86,2.712,4.678-.284C1.371,23.307,4.087,17.5,8.543,12.692Zm0,0" transform="translate(0 0)" fill="#fff"/>
    <path id="Path_271" data-name="Path 271" d="M128.028,147.067h-8.87L96.579,104.56a16,16,0,0,0,.889-25.113,35.729,35.729,0,0,0-.113-23.57,35.345,35.345,0,0,0-8.39-13.269,2.345,2.345,0,0,0-3.286,0L63.612,64.677l-5.2-5.011c-2.147-2.071-5.377,1.272-3.226,3.346l5.135,4.952L38.54,89.751a2.323,2.323,0,0,0,0,3.286,35.324,35.324,0,0,0,13.267,8.39,35.793,35.793,0,0,0,22.874.344,16.15,16.15,0,0,0,2.935,2.791l-3.967,7.485c-1.381,2.605,2.709,4.813,4.106,2.176l3.964-7.478a16,16,0,0,0,10.76,0l18.215,34.292L89.415,124.71v-6.323c0-2.984-4.648-2.988-4.648,0v6.291L62.251,141.189l5.767-10.3a2.324,2.324,0,1,0-4.055-2.27L53.634,147.065H46.155c-2.984,0-2.988,4.648,0,4.648h81.873C131.012,151.714,131.015,147.067,128.028,147.067ZM53.361,97.048a30.626,30.626,0,0,1-9.831-5.712L87.262,47.6a30.633,30.633,0,0,1,5.713,9.834A31.079,31.079,0,0,1,93.4,76.919,16.02,16.02,0,0,0,72.24,97.654,31.137,31.137,0,0,1,53.361,97.048Zm22.357-5.4A11.379,11.379,0,1,1,87.1,103.031,11.392,11.392,0,0,1,75.717,91.652Zm11.342,37.11,23.855,18.305H62.095Zm0,0" transform="translate(-33.343 -34.159)" fill="#fff"/>
    <path id="Path_272" data-name="Path 272" d="M272.609,271.762a7.5,7.5,0,1,0,7.5,7.5A7.512,7.512,0,0,0,272.609,271.762Zm0,10.32a2.817,2.817,0,1,1,2.817-2.816A2.819,2.819,0,0,1,272.609,282.081Zm0,0" transform="translate(-218.893 -221.804)" fill="#fff"/>
  </g>
</svg>
