<svg xmlns="http://www.w3.org/2000/svg" width="100" height="71.603" viewBox="0 0 100 71.603">
  <g id="award" transform="translate(0.001 -0.499)">
    <path id="Path_4286" data-name="Path 4286" d="M43.406,65.925A36.018,36.018,0,0,1,21.343,47.784a35.232,35.232,0,0,1-1.754-4.021A35.723,35.723,0,0,1,20.18,17.83c.237-.045.315-.06.409-.088A8.921,8.921,0,0,0,23.6,16.175,9.51,9.51,0,0,0,27.219,8.7a12.268,12.268,0,0,0-2.77-7.652A1.48,1.48,0,0,0,22.81.586,12.363,12.363,0,0,0,16.4,5.634a9.486,9.486,0,0,0-.885,8.248,8.838,8.838,0,0,0,1.725,2.91c.038.042.073.078.13.13q-.708,1.723-1.243,3.506a9.625,9.625,0,0,0-4.56-3.671,12.447,12.447,0,0,0-8.175-.2,1.469,1.469,0,0,0-1.03,1.352A12.261,12.261,0,0,0,4.772,25.68a9.6,9.6,0,0,0,7.412,3.806c.091,0,.183,0,.274,0a8.936,8.936,0,0,0,2.1-.255,38.522,38.522,0,0,0,.014,4.836,9.618,9.618,0,0,0-6.639-2.005A12.413,12.413,0,0,0,.466,35.388a1.461,1.461,0,0,0-.343,1.661,12.339,12.339,0,0,0,5.545,5.978,9.631,9.631,0,0,0,8.337.257,8.853,8.853,0,0,0,1.952-1.178,38.207,38.207,0,0,0,2.015,5.477,9.709,9.709,0,0,0-5.363.246,12.363,12.363,0,0,0-6.387,5.079A1.461,1.461,0,0,0,6.31,54.6,12.387,12.387,0,0,0,13.187,59a10.176,10.176,0,0,0,2.185.241,9.574,9.574,0,0,0,5.951-2.073,8.809,8.809,0,0,0,1.569-1.6q.375.47.764.931a39.37,39.37,0,0,0,3.054,3.209,9.731,9.731,0,0,0-4.462,2,12.3,12.3,0,0,0-4.232,6.959,1.464,1.464,0,0,0,.67,1.559A12.687,12.687,0,0,0,25.212,72.1a10.951,10.951,0,0,0,1.455-.1,9.587,9.587,0,0,0,7-4.511,8.753,8.753,0,0,0,.924-2.055,39.069,39.069,0,0,0,7.994,3.3A1.509,1.509,0,0,0,43,68.8a1.466,1.466,0,0,0,.41-2.876ZM17.945,10.23a7.11,7.11,0,0,1,.638-2.452,8.443,8.443,0,0,1,4.2-4.021C25.4,7.72,24.3,11.851,21.748,13.889c-.629.5-1.662,1.3-2.446.8C18,13.868,17.847,11.582,17.945,10.23ZM14.419,38.652a1.9,1.9,0,0,1-.086.433A2.648,2.648,0,0,1,12.821,40.6c-3,1.3-7.189.369-9.516-3.765-.13-.231,2.508-1.329,2.775-1.411a8.77,8.77,0,0,1,3.364-.384,6.411,6.411,0,0,1,3.108,1.082C13.339,36.669,14.5,37.61,14.419,38.652Zm-.833-12.2a4.724,4.724,0,0,1-1.307.106c-3.268-.105-6.647-2.747-6.956-7.475,4.661-.989,8.134,1.53,9.123,4.629C14.832,24.915,15.032,26.075,13.586,26.447Zm7.272,26.743c-.106.669-.86,1.286-1.359,1.676-2.57,2.011-6.866,2.152-10.163-1.269a8.451,8.451,0,0,1,4.973-3.188c1.726-.332,6.029.233,6.536,2.413A.945.945,0,0,1,20.857,53.191Zm10.3,12.769c-1.714,2.769-5.7,4.376-9.978,2.3a8.074,8.074,0,0,1,4.217-4.948c1.409-.649,4.583-1.4,5.947-.292a1.364,1.364,0,0,1,.529.9A3.446,3.446,0,0,1,31.154,65.959Zm0,0" transform="translate(0 -0.003)" fill="#fff"/>
    <path id="Path_4287" data-name="Path 4287" d="M173.414,100.009a2.267,2.267,0,0,0,.908-2.23l-2.332-13.6,9.879-9.629a2.28,2.28,0,0,0-1.264-3.889L166.952,68.68l-6.1-12.37a2.28,2.28,0,0,0-4.09,0l-2.51,5.084a1.475,1.475,0,1,0,2.645,1.306l1.909-3.869,5.661,11.47a2.282,2.282,0,0,0,1.717,1.247l12.658,1.839-9.16,8.928a2.281,2.281,0,0,0-.655,2.018l2.162,12.607-11.321-5.952a2.277,2.277,0,0,0-2.122,0L146.42,96.941l2.162-12.606a2.279,2.279,0,0,0-.656-2.019l-9.159-8.928,12.658-1.839a2.282,2.282,0,0,0,1.717-1.247l.715-1.449a1.475,1.475,0,1,0-2.645-1.306l-.559,1.133L137,70.663a2.281,2.281,0,0,0-1.264,3.89l9.879,9.629-2.332,13.6a2.277,2.277,0,0,0,3.308,2.4l12.21-6.419,12.21,6.419A2.265,2.265,0,0,0,173.414,100.009Zm0,0" transform="translate(-108.804 -43.828)" fill="#fff"/>
    <path id="Path_4288" data-name="Path 4288" d="M225.633,6.98a1.475,1.475,0,0,0,2.918-.429l-.58-3.938a1.475,1.475,0,0,0-2.918.429Zm0,0" transform="translate(-181.094 -0.686)" fill="#fff"/>
    <path id="Path_4289" data-name="Path 4289" d="M184.61,29.669a1.475,1.475,0,1,0,2.509-1.553L185.126,24.9a1.475,1.475,0,1,0-2.508,1.552Zm0,0" transform="translate(-146.784 -19.045)" fill="#fff"/>
    <path id="Path_4290" data-name="Path 4290" d="M271.413,8.224a1.472,1.472,0,0,0,1.674-1.244l.579-3.938a1.475,1.475,0,0,0-2.918-.429l-.579,3.938A1.474,1.474,0,0,0,271.413,8.224Zm0,0" transform="translate(-217.4 -0.686)" fill="#fff"/>
    <path id="Path_4291" data-name="Path 4291" d="M306.3,30.147a1.474,1.474,0,0,0,2.03-.478l1.992-3.219a1.475,1.475,0,0,0-2.508-1.553l-1.992,3.219A1.475,1.475,0,0,0,306.3,30.147Zm0,0" transform="translate(-245.932 -19.045)" fill="#fff"/>
    <path id="Path_4292" data-name="Path 4292" d="M329.58,35.385a12.409,12.409,0,0,0-7.465-3.323,9.615,9.615,0,0,0-6.639,2,38.509,38.509,0,0,0,.015-4.835,8.925,8.925,0,0,0,2.1.255c.092,0,.183,0,.275,0a9.6,9.6,0,0,0,7.412-3.805,12.262,12.262,0,0,0,2.413-7.771,1.468,1.468,0,0,0-1.03-1.351,12.437,12.437,0,0,0-8.175.2,9.619,9.619,0,0,0-4.56,3.67q-.535-1.781-1.243-3.506a1.829,1.829,0,0,0,.13-.131,8.838,8.838,0,0,0,1.725-2.91,9.486,9.486,0,0,0-.885-8.248A12.37,12.37,0,0,0,307.236.582a1.479,1.479,0,0,0-1.64.465,12.259,12.259,0,0,0-2.77,7.651,9.509,9.509,0,0,0,3.622,7.472,8.914,8.914,0,0,0,3.008,1.568,4.135,4.135,0,0,0,.41.087,35.667,35.667,0,0,1-2.86,32.906,36.116,36.116,0,0,1-7.1,8.095,27.869,27.869,0,0,1-3.752,2.788c-1.335.79-2.7,1.6-4.1,2.261a36.153,36.153,0,0,1-5.417,2.045,1.466,1.466,0,0,0,.41,2.875,1.509,1.509,0,0,0,.412-.058,39.07,39.07,0,0,0,7.994-3.3,8.739,8.739,0,0,0,.924,2.055,9.5,9.5,0,0,0,3.541,3.389,1.48,1.48,0,0,0,2-.577,1.462,1.462,0,0,0-.581-1.992,6.6,6.6,0,0,1-2.452-2.357c-.716-1.157-.948-2.442.521-3.015,4.112-1.6,8.215,1.452,9.454,5.3a9.787,9.787,0,0,1-2.029.7,1.467,1.467,0,0,0,.652,2.86,12.809,12.809,0,0,0,3.871-1.572,1.463,1.463,0,0,0,.67-1.559,12.291,12.291,0,0,0-4.232-6.959,9.735,9.735,0,0,0-4.462-2,39.358,39.358,0,0,0,3.054-3.208c.261-.307.515-.618.765-.932a8.809,8.809,0,0,0,1.568,1.6,9.574,9.574,0,0,0,5.951,2.072A10.126,10.126,0,0,0,316.859,59a12.389,12.389,0,0,0,6.877-4.4,1.462,1.462,0,0,0,.087-1.694,12.367,12.367,0,0,0-6.388-5.079,9.716,9.716,0,0,0-5.363-.246,38.208,38.208,0,0,0,2.015-5.477,8.844,8.844,0,0,0,1.952,1.179,9.635,9.635,0,0,0,8.337-.258,12.336,12.336,0,0,0,5.545-5.978A1.462,1.462,0,0,0,329.58,35.385ZM311.989,12.041c-.188.931-.4,2.5-1.592,2.675a2.734,2.734,0,0,1-2.1-.83c-2.547-2.039-3.65-6.17-1.038-10.132.218-.331,2.871,2.031,3.1,2.3A7.423,7.423,0,0,1,311.9,8.992,6.845,6.845,0,0,1,311.989,12.041Zm8.72,41.553c-3.3,3.421-7.592,3.28-10.162,1.269A5.891,5.891,0,0,1,309.1,53.2c-.019-.042-.047-.1-.077-.175q.189-.282.373-.566a5.873,5.873,0,0,1,1.334-1.161C313.495,49.559,317.783,49.856,320.709,53.594ZM315.6,23.7c.99-3.1,4.462-5.617,9.123-4.629-.308,4.728-3.687,7.37-6.956,7.475-.789.027-2.058.035-2.4-.832A3.247,3.247,0,0,1,315.6,23.7Zm1.625,16.891a3.181,3.181,0,0,1-1.764-1.316c-.687-1.493,1.606-2.833,2.585-3.388a7.1,7.1,0,0,1,2.6-.86,8.383,8.383,0,0,1,6.1,1.8C324.412,40.964,320.219,41.9,317.224,40.595Zm0,0" transform="translate(-230.048)" fill="#fff"/>
  </g>
</svg>
