<svg xmlns="http://www.w3.org/2000/svg" width="100" height="110.368" viewBox="0 0 100 110.368">
  <g id="idea" transform="translate(-24.049)">
    <g id="Group_134" data-name="Group 134" transform="translate(41.314 17.231)">
      <g id="Group_133" data-name="Group 133" transform="translate(0)">
        <path id="Path_4273" data-name="Path 4273" d="M158.774,88.484a32.729,32.729,0,0,0-50.639,39.92,32.812,32.812,0,0,0,12.653,12.9,7.925,7.925,0,0,1,4.172,6.889v13.1a5.081,5.081,0,0,0,5.075,5.075h.111v1.84a5.081,5.081,0,0,0,5.075,5.075h3.458a5.081,5.081,0,0,0,5.075-5.075v-1.84h.111a5.081,5.081,0,0,0,5.075-5.075V148.472a8.416,8.416,0,0,1,4.377-7.277,32.7,32.7,0,0,0,5.457-52.71Zm-18.254,79.724h0a1.843,1.843,0,0,1-1.84,1.84h-3.458a1.842,1.842,0,0,1-1.84-1.84v-1.84h7.138Zm5.186-11.99h-.111a1.618,1.618,0,1,0,0,3.235h.111v1.84a1.842,1.842,0,0,1-1.84,1.84H130.035a1.842,1.842,0,0,1-1.84-1.84v-1.84h10.484a1.618,1.618,0,0,0,0-3.235H128.195v-3.68h17.511v3.68Zm5.993-17.824a11.616,11.616,0,0,0-5.993,10.078v.831H128.195V148.2a11.267,11.267,0,0,0-5.809-9.7,29.727,29.727,0,0,1-4.178-2.873,5.307,5.307,0,0,1,1.031-.609l4.481-1.992a24.091,24.091,0,0,0,26.457,0l4.484,1.993a5.277,5.277,0,0,1,1.034.607A29.626,29.626,0,0,1,151.7,138.394Zm-22.2-30.428a1.617,1.617,0,0,0-2.286-.091,5.812,5.812,0,0,1-2.4,1.434.261.261,0,0,1-.043.008.328.328,0,0,1-.027-.146v-3.2a10.5,10.5,0,0,1,10.484-10.484h3.458a10.5,10.5,0,0,1,10.484,10.484v.353a.1.1,0,0,1-.073.106c-9.686,1.914-14.544-1.692-16.183-3.331a1.617,1.617,0,0,0-2.287,2.287c5.023,5.023,12.352,5.114,16.815,4.577v2.923a10.484,10.484,0,0,1-20.969,0v-.727a9.56,9.56,0,0,0,2.938-1.907A1.617,1.617,0,0,0,129.5,107.966Zm2.158,18.233v-.658a13.708,13.708,0,0,0,10.6,0v.658a5.08,5.08,0,0,0,3.014,4.638l1.284.571a20.875,20.875,0,0,1-19.192,0l1.285-.571A5.08,5.08,0,0,0,131.653,126.2Zm30.73,1.621a29.567,29.567,0,0,1-4.286,5.591,8.575,8.575,0,0,0-2.122-1.353l-9.4-4.177a1.841,1.841,0,0,1-1.093-1.682v-2.581a13.7,13.7,0,0,0,5.187-10.731v-3.633a3.352,3.352,0,0,0,1.729-2.929v-.353a13.735,13.735,0,0,0-13.719-13.719h-3.458A13.735,13.735,0,0,0,121.5,105.971v3.2a3.392,3.392,0,0,0,1.291,2.718,3.177,3.177,0,0,0,.438.284v.714a13.7,13.7,0,0,0,5.186,10.731V126.2a1.842,1.842,0,0,1-1.093,1.682l-9.4,4.177a8.561,8.561,0,0,0-2.126,1.353,29.511,29.511,0,0,1,17.76-49.837,31.017,31.017,0,0,1,3.431-.192A29.161,29.161,0,0,1,156.616,90.9a29.478,29.478,0,0,1,5.766,36.924Z" transform="translate(-104.215 -80.147)" fill="#fff"/>
      </g>
    </g>
    <g id="Group_136" data-name="Group 136" transform="translate(72.431)">
      <g id="Group_135" data-name="Group 135">
        <path id="Path_4274" data-name="Path 4274" d="M250.119,0A1.618,1.618,0,0,0,248.5,1.618V11.99a1.618,1.618,0,1,0,3.235,0V1.618A1.618,1.618,0,0,0,250.119,0Z" transform="translate(-248.501)" fill="#fff"/>
      </g>
    </g>
    <g id="Group_138" data-name="Group 138" transform="translate(110.441 48.383)">
      <g id="Group_137" data-name="Group 137">
        <path id="Path_4275" data-name="Path 4275" d="M436.846,224.452H426.474a1.618,1.618,0,1,0,0,3.235h10.373a1.618,1.618,0,1,0,0-3.235Z" transform="translate(-424.856 -224.452)" fill="#fff"/>
      </g>
    </g>
    <g id="Group_140" data-name="Group 140" transform="translate(24.049 48.383)">
      <g id="Group_139" data-name="Group 139" transform="translate(0)">
        <path id="Path_4276" data-name="Path 4276" d="M36.039,224.452H25.667a1.618,1.618,0,1,0,0,3.235H36.039a1.618,1.618,0,1,0,0-3.235Z" transform="translate(-24.049 -224.452)" fill="#fff"/>
      </g>
    </g>
    <g id="Group_142" data-name="Group 142" transform="translate(99.301 14.178)">
      <g id="Group_141" data-name="Group 141">
        <path id="Path_4277" data-name="Path 4277" d="M383.3,66.214a1.617,1.617,0,0,0-2.287,0l-7.335,7.335a1.617,1.617,0,1,0,2.287,2.287L383.3,68.5A1.617,1.617,0,0,0,383.3,66.214Z" transform="translate(-373.202 -65.74)" fill="#fff"/>
      </g>
    </g>
    <g id="Group_144" data-name="Group 144" transform="translate(38.227 75.26)">
      <g id="Group_143" data-name="Group 143">
        <path id="Path_4278" data-name="Path 4278" d="M99.885,349.627a1.617,1.617,0,0,0-2.287,0l-7.335,7.335a1.617,1.617,0,1,0,2.287,2.287l7.335-7.335A1.617,1.617,0,0,0,99.885,349.627Z" transform="translate(-89.789 -349.153)" fill="#fff"/>
      </g>
    </g>
    <g id="Group_146" data-name="Group 146" transform="translate(99.301 75.26)">
      <g id="Group_145" data-name="Group 145">
        <path id="Path_4279" data-name="Path 4279" d="M383.3,356.962l-7.335-7.335a1.617,1.617,0,0,0-2.287,2.287l7.335,7.335a1.617,1.617,0,0,0,2.287-2.287Z" transform="translate(-373.203 -349.153)" fill="#fff"/>
      </g>
    </g>
    <g id="Group_148" data-name="Group 148" transform="translate(38.227 14.178)">
      <g id="Group_147" data-name="Group 147">
        <path id="Path_4280" data-name="Path 4280" d="M99.885,73.549,92.55,66.214A1.617,1.617,0,0,0,90.263,68.5L97.6,75.836a1.617,1.617,0,0,0,2.287-2.287Z" transform="translate(-89.789 -65.74)" fill="#fff"/>
      </g>
    </g>
  </g>
</svg>
