<svg xmlns="http://www.w3.org/2000/svg" width="100" height="90.836" viewBox="0 0 100 90.836">
  <g id="support" transform="translate(0 -23.462)">
    <g id="Group_160" data-name="Group 160" transform="translate(91.305 83.074)">
      <g id="Group_159" data-name="Group 159">
        <path id="Path_4293" data-name="Path 4293" d="M475.7,334.058l-4.778-4.739a1.958,1.958,0,0,0-2.758,2.78l4.778,4.739a1.958,1.958,0,0,0,2.758-2.78Z" transform="translate(-467.587 -328.751)" fill="#fff"/>
      </g>
    </g>
    <g id="Group_162" data-name="Group 162" transform="translate(86.428 78.239)">
      <g id="Group_161" data-name="Group 161" transform="translate(0 0)">
        <path id="Path_4294" data-name="Path 4294" d="M446.02,304.525a1.958,1.958,0,0,0-2.769,0l0,0a1.958,1.958,0,1,0,2.772,0Z" transform="translate(-442.675 -303.952)" fill="#fff"/>
      </g>
    </g>
    <g id="Group_164" data-name="Group 164" transform="translate(0 23.462)">
      <g id="Group_163" data-name="Group 163">
        <path id="Path_4295" data-name="Path 4295" d="M73.132,87.825,92.081,68.874A7.356,7.356,0,0,0,88.531,56.5,7.364,7.364,0,0,0,83.1,46.142a7.349,7.349,0,0,0-5.733-9.555,7.364,7.364,0,0,0-10.505-8.781l-.188-.2a13.033,13.033,0,0,0-9.511-4.142H41.83a1.954,1.954,0,0,0-1.953,1.954v2.562a8.876,8.876,0,0,0,.505,2.962,7.361,7.361,0,0,0-9.811,9.112,7.362,7.362,0,0,0-5.741,9.556,7.361,7.361,0,0,0-5.421,10.352,7.362,7.362,0,0,0-3.551,12.379l3.9,3.9L.572,95.421a1.953,1.953,0,1,0,2.762,2.763L22.7,78.812a7.356,7.356,0,0,0,10.988-6.7c.1,0,.2.007.3.007a7.355,7.355,0,0,0,7.36-7.358c0-.1,0-.2-.007-.3.1,0,.2.007.294.007a7.355,7.355,0,0,0,7.36-7.358c0-.1,0-.2-.007-.3.1,0,.2.007.294.007A7.358,7.358,0,0,0,54.973,44.8L67.939,31.834a3.454,3.454,0,0,1,4.884,4.885l-1.912,1.912-6.936,6.937a1.953,1.953,0,1,0,2.762,2.763l6.936-6.937a3.454,3.454,0,1,1,4.885,4.885l-1.912,1.912-5.024,5.025a1.953,1.953,0,1,0,2.762,2.763l5.024-5.025a3.454,3.454,0,0,1,4.884,4.885l-2.624,2.624-2.4,2.4a1.953,1.953,0,1,0,2.762,2.763l2.4-2.4a3.454,3.454,0,0,1,4.883,4.887L70.368,85.063a26.458,26.458,0,0,1-17.806,7.758,1.953,1.953,0,0,0-1.313.574l-17.5,17.571a1.953,1.953,0,1,0,2.767,2.758L49.387,100.8a18.153,18.153,0,0,0,11.027,2.837L70.49,113.715a1.953,1.953,0,1,0,2.762-2.763L62.539,100.236A1.954,1.954,0,0,0,61,99.67l-.619.051a14.256,14.256,0,0,1-8.151-1.774l1.255-1.26A30.348,30.348,0,0,0,73.132,87.825Zm-44.35-12.97a3.453,3.453,0,0,1-4.884,0L18.62,69.576a3.454,3.454,0,1,1,4.885-4.886l5.278,5.278A3.459,3.459,0,0,1,28.783,74.854Zm7.647-7.648a3.458,3.458,0,0,1-4.885,0l-5.278-5.279L23.643,59.3a3.454,3.454,0,1,1,4.884-4.885l7.9,7.9h0a3.455,3.455,0,0,1,0,4.886Zm7.647-7.648a3.458,3.458,0,0,1-4.885,0l-9.814-9.815a3.454,3.454,0,0,1,4.883-4.887l4.473,4.473,5.342,5.343h0a3.456,3.456,0,0,1,0,4.885Zm7.647-7.648a3.458,3.458,0,0,1-4.885,0l-9.814-9.815,0,0-1.909-1.909A3.454,3.454,0,0,1,40,35.3L51.723,47.024a3.455,3.455,0,0,1,0,4.886Zm.514-9.9-5.365-5.366a8.936,8.936,0,0,0,1.87.2h.043l5.36-.025a1.954,1.954,0,0,0-.009-3.907h-.009l-5.36.025h-.024a4.961,4.961,0,0,1-4.961-4.962v-.608H57.167a9.115,9.115,0,0,1,6.652,2.9l.079.085Z" transform="translate(0 -23.462)" fill="#fff"/>
      </g>
    </g>
  </g>
</svg>
