<svg xmlns="http://www.w3.org/2000/svg" width="483.379" height="64.379" viewBox="0 0 483.379 64.379">
  <g id="Group_302" data-name="Group 302" transform="translate(-1002.811 -193)">
    <g id="Group_11" data-name="Group 11" transform="translate(1379 150.189)">
      <path id="Path_68" data-name="Path 68" d="M212.629,180.439A32.188,32.188,0,1,1,179.9,148.257c.181-.007.362-.007.543-.007A32.188,32.188,0,0,1,212.629,180.439Z" transform="translate(-105.439 -105.439)" fill="#2de0c7"/>
      <path id="Path_69" data-name="Path 69" d="M258.005,181.505a32.2,32.2,0,0,1-45.048,29.516,32.2,32.2,0,0,0,18.269-61.251A32.2,32.2,0,0,1,258.005,181.505Z" transform="translate(-151.08 -106.513)" fill="#00c2cc"/>
      <path id="Path_70" data-name="Path 70" d="M202.934,152.381a12.03,12.03,0,0,1-22.86,5.239,32.068,32.068,0,0,1,22.14-9.346A11.982,11.982,0,0,1,202.934,152.381Z" transform="translate(-127.501 -104.935)" fill="#8bffef"/>
      <path id="Path_71" data-name="Path 71" d="M221.527,152.378a12.03,12.03,0,0,1-12.028,12.03,11.848,11.848,0,0,1-2.909-.358,12.03,12.03,0,0,0,8.589-15.192,32.38,32.38,0,0,1,5.628-.588A11.938,11.938,0,0,1,221.527,152.378Z" transform="translate(-146.195 -104.932)" fill="#00c2cc"/>
      <path id="Path_77" data-name="Path 77" d="M227.427,276.11a7.18,7.18,0,1,1-7.18-7.18A7.18,7.18,0,0,1,227.427,276.11Z" transform="translate(-150.772 -190.303)" fill="#8bffef"/>
      <path id="Path_78" data-name="Path 78" d="M237.865,276.109a7.182,7.182,0,0,1-9.916,6.641,7.183,7.183,0,0,0,0-13.28,7.183,7.183,0,0,1,9.916,6.639Z" transform="translate(-161.258 -190.303)" fill="#00c2cc"/>
      <path id="Path_81" data-name="Path 81" d="M280.891,184.18h.043a2.241,2.241,0,0,0,.01-4.481H280.9a2.241,2.241,0,0,0-.008,4.481Z" transform="translate(-197.07 -127.084)"/>
      <path id="Path_82" data-name="Path 82" d="M292.056,254.6a2.241,2.241,0,0,0,0-4.481h-.034a2.241,2.241,0,0,0,0,4.481Z" transform="translate(-204.935 -176.884)"/>
      <path id="Path_83" data-name="Path 83" d="M280.833,272.985h.043a2.241,2.241,0,0,0,.009-4.481h-.043a2.241,2.241,0,0,0-.01,4.481Z" transform="translate(-197.029 -189.888)"/>
    </g>
    <g id="Group_250" data-name="Group 250" transform="translate(960 150.189)">
      <path id="Path_68-2" data-name="Path 68" d="M212.629,180.439A32.188,32.188,0,1,1,179.9,148.257c.181-.007.362-.007.543-.007A32.188,32.188,0,0,1,212.629,180.439Z" transform="translate(-105.439 -105.439)" fill="#fda736"/>
      <path id="Path_69-2" data-name="Path 69" d="M258.005,181.505a32.2,32.2,0,0,1-45.048,29.516,32.2,32.2,0,0,0,18.269-61.251A32.2,32.2,0,0,1,258.005,181.505Z" transform="translate(-151.08 -106.513)" fill="#fd8f07"/>
      <path id="Path_70-2" data-name="Path 70" d="M202.934,152.381a12.03,12.03,0,0,1-22.86,5.239,32.068,32.068,0,0,1,22.14-9.346A11.982,11.982,0,0,1,202.934,152.381Z" transform="translate(-127.501 -104.935)" fill="#fd7504"/>
      <path id="Path_71-2" data-name="Path 71" d="M221.527,152.378a12.03,12.03,0,0,1-12.028,12.03,11.848,11.848,0,0,1-2.909-.358,12.03,12.03,0,0,0,8.589-15.192,32.38,32.38,0,0,1,5.628-.588A11.938,11.938,0,0,1,221.527,152.378Z" transform="translate(-146.195 -104.932)" fill="#fc5921"/>
      <path id="Path_77-2" data-name="Path 77" d="M227.427,276.11a7.18,7.18,0,1,1-7.18-7.18A7.18,7.18,0,0,1,227.427,276.11Z" transform="translate(-150.772 -190.303)" fill="#fd7504"/>
      <path id="Path_78-2" data-name="Path 78" d="M237.865,276.109a7.182,7.182,0,0,1-9.916,6.641,7.183,7.183,0,0,0,0-13.28,7.183,7.183,0,0,1,9.916,6.639Z" transform="translate(-161.258 -190.303)" fill="#fc5921"/>
      <path id="Path_81-2" data-name="Path 81" d="M280.891,184.18h.043a2.241,2.241,0,0,0,.01-4.481H280.9a2.241,2.241,0,0,0-.008,4.481Z" transform="translate(-197.07 -127.084)"/>
      <path id="Path_82-2" data-name="Path 82" d="M292.056,254.6a2.241,2.241,0,0,0,0-4.481h-.034a2.241,2.241,0,0,0,0,4.481Z" transform="translate(-204.935 -176.884)"/>
      <path id="Path_83-2" data-name="Path 83" d="M280.833,272.985h.043a2.241,2.241,0,0,0,.009-4.481h-.043a2.241,2.241,0,0,0-.01,4.481Z" transform="translate(-197.029 -189.888)"/>
    </g>
    <g id="Group_301" data-name="Group 301">
      <line id="Line_4" data-name="Line 4" x2="137" transform="translate(1090.5 225.5)" fill="none" stroke="#000" stroke-linecap="round" stroke-width="5"/>
      <line id="Line_6" data-name="Line 6" x2="128" transform="translate(1277.5 225.5)" fill="none" stroke="#000" stroke-linecap="round" stroke-width="5"/>
      <circle id="Ellipse_40" data-name="Ellipse 40" cx="5" cy="5" r="5" transform="translate(1248 221)"/>
    </g>
  </g>
</svg>
