<svg xmlns="http://www.w3.org/2000/svg" width="31.208" height="60.104" viewBox="0 0 31.208 60.104">
  <g id="scroll" transform="translate(-51.494 -37.358)">
    <g id="Group_272" data-name="Group 272" transform="translate(38.355 23.062)">
      <path id="Path_4375" data-name="Path 4375" d="M212.119,310.1,196.477,293.56l5.713-5.4,9.914,10.482,9.854-10.473,5.727,5.387Zm0,0" transform="translate(-183.337 -235.695)" fill="#dd3431"/>
      <path id="Path_4377" data-name="Path 4377" d="M249.829,145.938a3.4,3.4,0,1,1-3.4-3.4A3.4,3.4,0,0,1,249.829,145.938Zm0,0" transform="translate(-217.691 -128.243)" fill="#dd3431"/>
      <path id="Path_4378" data-name="Path 4378" d="M249.829,145.938a3.4,3.4,0,1,1-3.4-3.4A3.4,3.4,0,0,1,249.829,145.938Zm0,0" transform="translate(-217.691 -128.243)" fill="#dd3431"/>
      <path id="Path_4379" data-name="Path 4379" d="M249.829,197.805a3.4,3.4,0,1,1-3.4-3.4A3.4,3.4,0,0,1,249.829,197.805Zm0,0" transform="translate(-217.691 -166.516)" fill="#dd3431"/>
      <path id="Path_4380" data-name="Path 4380" d="M249.829,197.805a3.4,3.4,0,1,1-3.4-3.4A3.4,3.4,0,0,1,249.829,197.805Zm0,0" transform="translate(-217.691 -166.516)" fill="#dd3431"/>
      <path id="Path_4381" data-name="Path 4381" d="M249.829,249.672a3.4,3.4,0,1,1-3.4-3.4A3.4,3.4,0,0,1,249.829,249.672Zm0,0" transform="translate(-217.691 -204.79)" fill="#dd3431"/>
      <path id="Path_4382" data-name="Path 4382" d="M249.829,249.672a3.4,3.4,0,1,1-3.4-3.4A3.4,3.4,0,0,1,249.829,249.672Zm0,0" transform="translate(-217.691 -204.79)" fill="#dd3431"/>
    </g>
  </g>
</svg>
